<?xml version="1.0" encoding="UTF-8" standalone="no"?>
<svg width="1140px" height="452px" viewBox="0 0 1140 452" version="1.1" xmlns="http://www.w3.org/2000/svg" xmlns:xlink="http://www.w3.org/1999/xlink" xmlns:sketch="http://www.bohemiancoding.com/sketch/ns">
    <!-- Generator: Sketch 3.0.3 (7891) - http://www.bohemiancoding.com/sketch -->
    <title>gratitude</title>
    <desc>Created with Sketch.</desc>
    <defs>
        <rect id="path-1" x="0" y="0" width="141" height="97"></rect>
    </defs>
    <g id="SVGs" stroke="none" stroke-width="1" fill="none" fill-rule="evenodd" sketch:type="MSPage">
        <g id="gratitude" sketch:type="MSLayerGroup" transform="translate(0.000000, 0.644531)">
            <g id="Background" fill="#41B0B3" sketch:type="MSShapeGroup">
                <rect id="Rectangle-path" x="0" y="0" width="1140" height="450"></rect>
            </g>
            <g id="Layer_3" transform="translate(0.000000, 22.000000)">
                <rect id="Rectangle-path" fill="#C3996B" sketch:type="MSShapeGroup" x="0" y="318" width="1140" height="110.3"></rect>
                <g id="Group" transform="translate(501.000000, 188.000000)" sketch:type="MSShapeGroup">
                    <rect id="Rectangle-path" fill="#F0D328" x="0" y="52" width="138.6" height="101"></rect>
                    <path d="M138.3,152.9 L-0.3,152.9 L-0.3,51.9 L138.3,152.9 Z" id="Shape" fill="#FFDE28"></path>
                    <path d="M-0.3,51.9 L138.3,51.9 L69,-0.5 L-0.3,51.9 Z" id="Shape" fill="#FFDE28"></path>
                    <path d="M11.1,51.9 L-0.3,51.9 L69,102.4 L138.3,51.9 L130.5,51.9 L126.9,51.9 L69,8.1 L11.1,51.9 Z" id="Shape" fill="#F8AC5B"></path>
                    <path d="M130.3,15.4 L10.8,15.4 L10.8,60.2 L69,102.4 L130.3,57.8 L130.3,15.4 Z" id="Shape" fill="#FFFFFF"></path>
                    <path d="M130.3,15.4 L69,15.4 L69,102.4 L130.3,57.8 L130.3,15.4 Z" id="Shape" fill="#FFFFFF"></path>
                    <g transform="translate(36.000000, 31.000000)" id="Shape" fill="#6D6E70">
                        <path d="M8.1,4.2 C7.7,7.6 8.1,10.4 8.2,13.7 C8.3,15.5 8.1,17.3 8.2,19.2 C8.2,19.8 8.4,21.3 8.2,21.8 C8,22.5 4.7,22.2 4.6,21.7 C4.5,20.6 4.3,10.7 4.3,9.4 C4.3,6.1 4.4,4.6 4.1,4.2 C3.7,3.8 0.8,4.1 0.1,4 C-0.3,3.9 -0.4,0.7 -5.49560397e-14,0.7 C1,0.6 2.3,0.6 3.5,0.6 L12,0.6 C12.4,0.6 12.1,3.9 12.1,3.9 C11.6,4.2 9.8,4 8.1,4.2 L8.1,4.2 Z"></path>
                        <path d="M17.6,22.2 C16.8,22.5 15.1,22.5 14.4,21.9 C14.4,21.9 14.6,14.3 14.6,10.7 C14.6,8.2 14.3,6.1 14.3,3.7 L14.3,0.7 C14.6,0.3 15.8,0.4 16.8,0.6 C17.2,0.7 17.5,0.7 17.8,0.9 C17.9,3.3 17.7,7.2 18,9.3 C19.1,9.4 20.6,9.6 21.5,9.3 C22.3,7.7 21.6,3.1 21.8,1 C21.9,0.2 22.4,0.5 22.9,0.4 C23.8,0.2 24.9,0.4 25.2,1 C25.1,1.2 25.3,4.8 25.3,6 C25.3,7.3 25.4,8.6 25.4,9.9 C25.5,11.6 25.3,13.2 25.3,14.8 C25.3,15.7 25.4,16.6 25.4,17.5 C25.4,18.8 25.3,20.5 25.3,21.9 C25.2,22.1 23,22.2 22.3,22 C21.8,20.8 21.9,18.1 21.9,18.1 C22,17.2 22,15.6 21.9,13.9 C21.8,13.2 22,12.7 21.8,12.3 C21.6,12.4 18,12.1 17.9,12.4 C17.8,12.9 17.7,16.9 17.7,18.4 C17.7,19.9 18,21.1 17.6,22.2 L17.6,22.2 Z"></path>
                        <path d="M35.9,6.4 C36.2,8.7 36.3,9.7 36.6,11.7 C36.7,12.5 36.9,13.2 36.9,13.7 C37.2,16.5 37.5,18.7 37.6,21.5 C37.2,22.7 34.5,21.9 34.5,21.9 C33.8,20.9 34.4,18.6 33.8,17.6 C32.6,17.5 31.1,17.5 30.3,17.5 C29.6,18.8 30.2,21.6 29.3,22.1 C28.8,22.5 26.6,22.1 26.6,22.1 C26.3,21.4 27.4,14.9 27.5,13.7 C27.6,12.4 27.9,11.1 28.1,9.9 C28.4,8.1 28.5,7.1 28.8,5.3 C28.9,4.9 29.7,1.4 29.8,0.8 C29.8,0.8 30,0.7 30.4,0.7 C30.7,0.7 31.6,0.6 31.9,0.6 C33.5,0.5 34,0.6 34.6,0.8 C35.4,2.1 35.7,4.5 35.9,6.4 L35.9,6.4 Z M30.6,14.6 C31.6,14.8 32.9,14.8 33.6,14.7 C33.4,11.4 32.3,4.7 32.3,4.7 C31.8,6 31.6,7.9 31.3,9.7 C31,11.5 30.6,12.9 30.6,14.6 L30.6,14.6 Z"></path>
                        <path d="M47.6,6.8 C47.5,5.7 47.6,4.6 47.6,3.6 C47.6,2.7 47.4,1.4 47.8,0.9 C48.4,0.2 51.1,0.7 51.1,0.7 C51.1,0.7 51.2,3.6 51.2,5.2 C51.1,7.7 51.4,10.7 51.4,13.5 C51.4,14.8 51.3,18.6 51.3,19 C51.3,19.2 51.4,21.6 51.3,21.9 C51.3,21.9 49.1,22.1 48,21.9 C48,21.9 47.1,19.8 46.5,18.5 C46.1,17.4 44.1,11.6 43.1,9.4 C42.8,11 43.1,22.2 43.1,22.2 C43.1,22.2 42.7,22.1 41.4,22.2 C39.6,22.3 39.6,21.8 39.6,21.8 L39.6,11.6 C39.6,9.7 39.6,7.1 39.5,4.5 C39.4,3.4 39.4,1.6 39.5,1.2 C39.6,1 42.3,0.5 43.2,0.9 C43.7,1.2 47,10.7 47.8,12.6 C47.8,11.8 47.7,8 47.6,6.8 L47.6,6.8 Z"></path>
                        <path d="M62.7,14.8 C62.9,15.1 64.3,18 64.4,18.3 C65.1,19.4 65.7,20.5 66.3,21.9 C66.5,22.5 63.9,22.2 63.2,22.2 C62.5,22.2 61.1,18.8 60.8,18.4 C60.5,17.9 60.3,17.6 59.8,16.8 C59.7,16.5 58.3,14.3 57.9,14.5 C57.6,14.6 57.8,18.7 57.8,20 C57.8,20.7 58,21.4 57.8,22.1 C57.2,22.4 54.6,22.2 54.6,22.2 C54.4,21.6 54.4,21 54.4,19.7 C54.4,16.1 54.3,11.6 54.4,8 C54.4,7.1 54.3,6.2 54.4,5.2 C54.5,3.9 54.4,0.7 54.4,0.7 C54.4,0.7 57.7,0.3 58,0.7 C58,0.7 57.9,4.8 58,8.4 C59.4,7.3 60.5,4.4 61.6,2.5 C62.1,1.7 62.2,0.8 63.1,0.6 C64.2,0.5 66.2,0.6 66.1,0.8 C65.8,1.8 64.8,4 64.2,4.9 C63,7 62,9.4 60.8,11.4 C61.5,12.8 62.1,13.7 62.7,14.8 L62.7,14.8 Z"></path>
                        <path d="M20.2,30.4 C20.5,29.7 20.9,27.6 21.5,26.3 C22.4,26.1 23.8,26.1 24.8,26.4 C24.9,26.5 23.5,30.6 23.1,31.6 C21.9,34.6 21.8,36 20.6,38.7 C20.7,40.2 20.5,41.8 20.5,42.9 C20.6,43.8 20.5,46.4 20.4,47.1 C20.3,47.8 20.2,47.7 18.7,47.7 C17.8,47.7 17.1,47.7 16.9,46.9 C16.7,45.6 16.8,42.4 16.9,40.9 C17,39.3 16.8,38.5 16.8,38.5 C16.7,38 15.7,35.7 15.5,35.3 C14.3,33 12.2,26.3 12.4,26.3 C13.5,26.1 15.7,26 15.8,26.4 C15.9,26.9 16.5,28.2 16.6,28.9 C17.1,30.6 18,33.3 18.5,34.4 C19.2,33.5 19.7,31.8 20.2,30.4 L20.2,30.4 Z"></path>
                        <path d="M26.7,33.2 C26.8,31.8 26.9,30.2 27.3,29.1 C27.8,27.8 28.9,27 29.9,26.3 C31.8,26 34.3,26.2 35.6,27.6 C36.4,28.5 37.1,30.5 37.3,31.9 C37.4,32.8 37.4,34.1 37.4,34.9 C37.4,36.6 37.7,38.3 37.5,40 C37.3,42.5 37.1,45.3 35.9,46.7 C34.1,48.8 29.1,47.9 27.9,46 C26,42.9 26.4,37.4 26.7,33.2 L26.7,33.2 Z M29.9,38.7 C29.9,39.1 29.9,39.7 30,40 C30.1,40.4 30.1,41.7 30.4,42.7 C30.7,43.8 31.3,45.3 32.7,44.7 C33.4,43.8 33.6,42.1 33.7,40.6 C33.9,37.9 33.6,36.1 33.5,33.9 C33.4,31.8 33.4,29.3 31.6,29.4 C30.3,30.1 30.4,31.9 30.3,34.1 C30.2,35.7 30,37.4 29.9,38.7 L29.9,38.7 Z"></path>
                        <path d="M43.6,36 C43.7,37.1 43.7,37.6 43.7,38.6 C43.8,40.4 43.7,41.9 44.1,43.1 C44.3,43.8 44.6,45 46.1,45 C47.8,45.1 48.3,41.9 48.3,39.9 C48.3,38.1 48.2,36.1 48.2,34.3 C48.2,32.6 47.8,27.9 47.9,26.3 C47.9,26 49.1,26 49.8,26 C50.4,26 51.1,25.9 51.4,26.4 C51.8,27 51.6,31 51.7,31.9 C51.8,32.6 51.8,33.5 51.8,34.3 C51.8,36 52,37.9 51.9,39.7 C51.8,41.9 52.3,44.4 50.4,46.3 C49.7,47.1 48.7,47.6 48.1,47.9 C43.7,48.9 41.8,46.7 40.7,43.6 C40.3,42.4 40.3,37.1 40.3,35.9 C40.1,32.7 40.2,28.9 40.4,26.3 C41.5,26.1 43.6,26.1 43.8,26.3 C43.7,29.2 43.4,32.8 43.6,36 L43.6,36 Z"></path>
                    </g>
                </g>
                <g id="Group" transform="translate(795.000000, 82.000000)" sketch:type="MSShapeGroup">
                    <g transform="translate(8.000000, 50.000000)" id="Shape">
                        <path d="M43.9,89.3 L53.5,79.7 L66.7,83.3 L44.7,0.3 L21.9,6.4 L43.9,89.3 Z" fill="#46427B"></path>
                        <path d="M22.3,89.3 L12.7,79.7 L-0.5,83.3 L21.5,0.3 L44.3,6.4 L22.3,89.3 Z" fill="#5D57A2"></path>
                    </g>
                    <g>
                        <path d="M77.7,59.7 L74.3,61.7 L74,65.6 L70.3,67 L69.4,70.9 L65.5,71.6 L64,75.2 L60,75.3 L57.9,78.6 L54,78 L51.3,80.9 L47.6,79.7 L44.4,82.1 L41,80.2 L37.5,82.1 L34.4,79.7 L30.6,80.9 L28,78 L24.1,78.6 L21.9,75.2 L18,75.2 L16.4,71.5 L12.6,70.8 L11.7,66.9 L8,65.5 L7.7,61.6 L4.3,59.6 L4.8,55.7 L1.8,53.1 L2.8,49.3 L0.3,46.3 L2,42.8 L0,39.4 L2.3,36.1 L0.9,32.5 L3.7,29.7 L3,25.8 L6.2,23.5 L6.1,19.6 L9.7,17.9 L10.3,14 L14.1,12.9 L15.3,9.2 L19.2,8.8 L21.1,5.3 L25,5.6 L27.4,2.4 L31.3,3.4 L34.2,0.7 L37.8,2.2 L41.1,0.1 L44.4,2.3 L48,0.7 L50.9,3.4 L54.8,2.5 L57.2,5.6 L61.1,5.4 L63,8.8 L66.9,9.3 L68.1,13 L71.9,14.1 L72.5,18 L76,19.7 L75.9,23.6 L79.2,25.9 L78.4,29.8 L81.2,32.6 L79.8,36.3 L82.1,39.5 L80.1,42.9 L81.7,46.5 L79.2,49.5 L80.3,53.3 L77.3,55.8 L77.7,59.7 Z" id="Shape" fill="#F0D328"></path>
                        <path d="M41,80.2 L44.4,82.1 L47.6,79.7 L51.3,80.9 L54,78 L57.9,78.6 L60,75.3 L64,75.2 L65.5,71.6 L69.4,70.9 L70.3,67 L74,65.6 L74.3,61.7 L77.7,59.7 L77.3,55.8 L80.3,53.3 L79.2,49.5 L81.7,46.5 L80.1,42.9 L82.1,39.5 L79.8,36.3 L81.2,32.6 L78.4,29.8 L79.2,25.9 L75.9,23.6 L76,19.7 L72.5,18 L71.9,14.1 L68.1,13 L66.9,9.3 L63,8.8 L61.1,5.4 L57.2,5.6 L54.8,2.5 L50.9,3.4 L48,0.7 L44.4,2.3 L41.1,0.1 L41,80.2 Z" id="Shape" fill="#E8C713"></path>
                        <circle id="Oval" fill="#FFDE28" cx="40.7" cy="41.7" r="35.7"></circle>
                        <path d="M76.8,41.9 C76.8,61.6 60.8,77.6 41.1,77.6 L41.1,6.3 C60.8,6.2 76.8,22.2 76.8,41.9 L76.8,41.9 Z" id="Shape" fill="#F0D328"></path>
                    </g>
                    <g transform="translate(17.000000, 18.000000)" id="Shape" fill="#FFFFFF">
                        <path d="M4.9,11.6 C4.5,11 4.1,10.4 3.5,9.6 C3.2,9.3 2.7,8.7 2.7,8.4 C2.7,8.3 3.7,7.4 3.7,7.4 C3.9,7.5 4.7,8.8 4.9,9.1 C5.5,9.8 6.1,10.8 6.6,11.6 C6.9,12.1 7.8,13.3 7.9,13.6 C8.1,13.9 8.5,14.4 8.5,14.6 C8.5,14.7 7.7,15.6 7.6,15.6 C7.3,15.6 6.6,15.1 6.3,14.9 C5.4,14.3 4.8,13.9 4,13.4 C3.6,13.2 3.2,12.9 2.9,12.7 C2.6,12.5 2.1,12.3 1.6,12 C1.4,11.9 1.2,11.7 1,11.6 C0.8,11.5 0.2,11.1 0.2,11.1 C0.3,10.8 1.1,10.1 1.2,10.1 C2.6,11 4.8,12.4 5.8,13 C5.6,12.5 5.1,11.9 4.9,11.6 L4.9,11.6 Z"></path>
                        <path d="M8.6,6.4 C9,6.2 9.5,6.1 9.8,6.2 C10.2,6.4 10.7,6.7 11.3,7.5 C11.5,7.8 11.8,8.1 11.9,8.4 C12.4,9.4 13.1,10.1 12.8,11 C12.7,11.3 12.2,12.1 11.8,12.3 C11,12.7 10.5,12.6 10,12.4 C9.4,12.1 9.2,11.6 8.8,11.1 C8.5,10.8 8.3,10.4 8,9.9 C7.7,9.5 7.4,9.1 7.3,8.7 C7.2,8.2 7.1,7.6 7.5,7.3 C7.7,7 8.1,6.6 8.6,6.4 L8.6,6.4 Z M10.8,9.2 C10.7,9 10.6,8.9 10.4,8.6 C10.1,8.1 9.7,7.5 9.2,7.5 C9,7.5 8.8,7.6 8.6,7.8 C8.5,8 8.6,8.2 8.6,8.3 C8.8,8.8 9.3,9.6 9.7,10.1 C10,10.5 10.5,11.1 10.8,11.1 C11,11.1 11.2,10.9 11.3,10.6 C11.6,10.2 11.1,9.7 10.8,9.2 L10.8,9.2 Z"></path>
                        <path d="M12.8,6.6 C12.7,6.4 12.3,5.5 12,5 C11.7,4.5 11.4,3.6 11.2,3.1 C11,2.6 10.9,2.6 11.2,2.3 C11.6,2.1 12.1,1.8 12.2,2.1 C12.3,2.2 12.4,2.4 12.4,2.5 C12.5,2.9 13.5,4.6 14,5.9 C14.1,6.2 15,8.1 15.2,8.3 C15.4,8.7 15.7,9.3 15.7,9.7 C15.7,9.8 15.4,9.9 15.3,9.9 C14.9,10.1 14.8,10.3 14.5,10.2 C13.8,9.3 13.3,7.8 12.8,6.6 L12.8,6.6 Z"></path>
                        <path d="M16.8,9.1 C16.4,8.6 16.1,7.8 16.1,7.8 C16,7.5 15.9,7.1 15.8,6.7 C15.7,6 15.1,4.4 15,3.6 C14.9,3.2 15.1,3.3 15.4,3.2 C15.8,3.1 16.2,2.9 16.3,3.2 C16.5,3.8 16.9,5.1 17,5.9 C17.1,6.6 17.4,8.1 17.8,8.1 C18.2,8.1 18.3,8 18.6,7.6 C18.7,7.2 18.3,6.2 18.2,5.8 C18,5.1 17.7,3.7 17.6,3.1 C17.5,2.5 17.6,2.6 18.2,2.4 C18.6,2.3 18.8,2 19,2.9 C19,3.1 19.3,4.2 19.4,4.4 C19.5,5.1 19.8,5.9 20,6.6 C20.2,7.1 20.4,7.8 20.5,8.4 C20.3,8.6 19.7,8.7 19.4,8.7 C19.2,8.6 19.2,8.5 19.1,8.4 C18.7,9 17.5,9.5 16.8,9.1 L16.8,9.1 Z"></path>
                        <path d="M24.9,2 C25.2,2.6 25.3,3.4 25.3,3.5 C25.3,3.8 25.4,4.2 25.3,4.7 C25.3,5.4 25.5,7.2 25.4,8 C25.4,8.4 25.3,8.3 24.9,8.3 C24.5,8.3 24.1,8.5 24,8.1 C23.9,7.5 23.9,6 23.9,5.2 C23.9,4.5 24,3 23.6,2.9 C23.2,2.8 23.1,2.9 22.7,3.2 C22.5,3.6 22.7,4.7 22.7,5.1 L22.7,7.9 C22.7,8.5 22.6,8.5 21.9,8.5 C21.5,8.5 21.3,8.7 21.3,7.7 L21.3,6.2 C21.3,5.5 21.3,4.6 21.2,3.8 C21.2,3.3 21.1,2.6 21.2,2.1 C21.4,1.9 22.1,2 22.4,2 L22.4,2.3 C23,1.7 24.3,1.5 24.9,2 L24.9,2 Z"></path>
                        <path d="M29.6,2.3 C29.8,2.5 29.6,2.8 29.6,3.1 C29.6,3.8 29.1,3.1 28.6,3.3 C28.4,4.6 28.1,5.9 28,7.1 C28.1,7.3 28.3,7.5 28.6,7.5 C29.1,7.5 28.7,7.6 28.8,8 C28.8,8.2 28.7,8.5 28.7,8.7 C28.1,8.9 27.9,8.6 27.6,8.6 C27,8.4 26.8,8.1 26.7,7.4 C26.6,6.8 26.9,6 26.9,5.3 C27,4.5 27.2,3.8 27.3,3.1 C27.3,3 26.8,3.2 26.7,2.9 C26.6,2.5 26.8,2.1 26.8,2.1 C26.9,2 27.4,2 27.6,2.1 C27.7,1.8 27.7,0.8 28,0.4 C28,0.4 28.8,0.3 29.1,0.6 C29.2,0.7 29,1.8 28.9,2.3 C29,2.3 29.5,2.2 29.6,2.3 L29.6,2.3 Z"></path>
                        <path d="M31.1,7.2 C31,7.4 31,7.9 31,8 C31.1,8.4 31.6,8.4 32,8.2 C32.2,8.1 32.5,7.8 32.6,7.6 C32.7,7.4 33.9,7.8 33.8,8.1 C33.8,8.1 33.6,8.3 33.5,8.6 C33.4,8.8 33.1,9.1 33,9.2 C32.6,9.7 31.6,9.8 30.9,9.4 C30.6,9.2 30.2,8.9 30,8.6 C29.6,7.9 29.8,6.8 30.1,5.9 C30.2,5.6 30.4,4.9 30.6,4.6 C30.8,4.2 31,3.9 31.3,3.6 C31.4,3.4 31.8,3.2 32,3.1 C32.8,2.8 33.8,3.2 34.2,3.8 C34.4,4.1 34.6,4.4 34.7,4.8 C34.7,5.2 34.6,5.5 34.6,5.7 C34.6,5.9 34.4,6.4 34.3,6.6 C34.2,6.9 34.3,6.8 34.1,7.1 C33.1,7.1 32.3,6.3 31.4,6.3 C31.3,6.6 31.2,7 31.1,7.2 L31.1,7.2 Z M31.9,5.3 C32.2,5.5 32.8,5.8 33.2,5.7 C33.7,5.2 33.3,4.2 32.7,4.2 C32.4,4.3 32,5 31.9,5.3 L31.9,5.3 Z"></path>
                        <path d="M35.9,9.4 C35.8,9.6 35.6,10 35.7,10.2 C35.7,10.6 36.2,10.7 36.6,10.6 C36.8,10.6 37.2,10.3 37.3,10.1 C37.4,9.9 38.6,10.6 38.4,10.8 C38.4,10.8 38.2,11 38,11.2 C37.9,11.4 37.5,11.6 37.4,11.7 C36.9,12.1 35.9,11.9 35.3,11.4 C35,11.2 34.8,10.7 34.6,10.4 C34.3,9.6 34.8,8.6 35.3,7.7 C35.5,7.4 35.8,6.8 36.1,6.5 C36.4,6.2 36.7,5.9 37,5.7 C37.2,5.5 37.6,5.4 37.8,5.4 C38.6,5.3 39.5,5.9 39.8,6.6 C39.9,6.9 40.1,7.2 40,7.7 C40,8.1 39.8,8.3 39.7,8.6 C39.6,8.8 39.3,9.3 39.2,9.4 C39.1,9.7 39.1,9.6 38.9,9.9 C38,9.6 37.3,8.7 36.5,8.5 C36.2,8.8 36.1,9.1 35.9,9.4 L35.9,9.4 Z M37.1,7.7 C37.3,8 37.9,8.3 38.2,8.4 C38.8,8 38.6,6.9 38.1,6.9 C37.8,6.8 37.3,7.4 37.1,7.7 L37.1,7.7 Z"></path>
                        <path d="M38,13 C38.1,12.9 38.8,12.1 38.9,11.9 C39.7,11.2 40.1,10.6 40.7,9.9 C40.8,9.7 41.8,8.8 42,8.6 C42.3,8.3 42.6,9 43,9.2 C43.4,9.4 42.8,9.5 42.8,9.8 C43.2,9.9 43.6,9.8 44,10.1 C44.4,10.4 44.5,10.4 44.2,10.7 C44,10.9 43.7,11.4 43.5,11.4 C43.4,11.4 43,10.9 42.9,10.8 C42.5,10.4 42.2,10.6 41.8,10.7 C41.6,10.8 41.4,11.1 41.3,11.1 C41.2,11.2 40.9,11.4 40.8,11.7 C40.1,12.6 39.5,13.1 38.7,14 C38.5,14.1 37.7,13.4 38,13 L38,13 Z"></path>
                    </g>
                    <g transform="translate(31.000000, 32.000000)" id="Shape">
                        <path d="M2.4,5.6 C1.3,5.6 0.4,4.7 0.4,3.6 C0.4,2.5 1.3,1.6 2.4,1.6 C3.5,1.6 4.4,2.5 4.4,3.6 C4.4,4.7 3.5,5.6 2.4,5.6 L2.4,5.6 Z M1,3.7 C1,4.5 1.6,5.1 2.4,5.1 C3.2,5.1 3.8,4.5 3.8,3.7 C3.8,2.9 3.2,2.3 2.4,2.3 C1.7,2.2 1,2.9 1,3.7 L1,3.7 Z" fill="#FFFFFF"></path>
                        <path d="M5.9,1.8 L6.5,1.8 C6.7,1.8 6.8,1.9 6.8,2 C6.8,2.2 6.7,2.2 6.5,2.2 L5.9,2.2 L5.9,5.2 C5.9,5.4 5.8,5.5 5.6,5.5 C5.4,5.5 5.3,5.4 5.3,5.2 L5.3,2.2 L5.1,2.2 C4.9,2.2 4.8,2.1 4.8,2 C4.8,1.8 4.9,1.8 5.1,1.8 L5.3,1.8 L5.3,1.1 C5.3,0.4 5.8,-0.1 6.5,-0.1 C7,-0.1 7.6,0.3 7.6,0.9 C7.6,1.1 7.5,1.2 7.3,1.2 C7.2,1.2 7.1,1.1 7.1,1 C7,0.7 6.8,0.5 6.5,0.5 C6.1,0.5 5.9,0.8 5.9,1.1 L5.9,1.8 L5.9,1.8 Z" fill="#FFFFFF"></path>
                        <path d="M9.8,1.8 L9.8,0.8 C9.8,0.6 9.9,0.5 10.1,0.5 C10.3,0.5 10.4,0.6 10.4,0.8 L10.4,1.8 L10.9,1.8 C11.1,1.8 11.2,1.9 11.2,2 C11.2,2.2 11.1,2.2 10.9,2.2 L10.4,2.2 L10.4,5.2 C10.4,5.4 10.3,5.5 10.1,5.5 C9.9,5.5 9.8,5.4 9.8,5.2 L9.8,2.2 L9.3,2.2 C9.1,2.2 9,2.1 9,2 C9,1.8 9.1,1.8 9.3,1.8 L9.8,1.8 L9.8,1.8 Z" fill="#FFFFFF"></path>
                        <path d="M12.1,2.4 C12.3,2.1 12.7,1.7 13.4,1.7 C14.3,1.7 15,2.3 15,3.4 L15,5.3 C15,5.5 14.9,5.6 14.7,5.6 C14.5,5.6 14.4,5.5 14.4,5.3 L14.4,3.4 C14.4,2.6 13.9,2.2 13.2,2.2 C12.5,2.2 12,2.7 12,3.5 L12,5.3 C12,5.5 11.9,5.6 11.7,5.6 C11.5,5.6 11.4,5.5 11.4,5.3 L11.4,0.3 C11.4,0.1 11.5,2.84217094e-14 11.7,2.84217094e-14 C11.9,2.84217094e-14 12,0.1 12,0.3 L12,2.4 L12.1,2.4 Z" fill="#F2F2F2"></path>
                        <path d="M16,3.6 L16,3.6 C16,4.4 16.7,5 17.4,5 C17.9,5 18.3,4.8 18.5,4.6 C18.6,4.5 18.7,4.5 18.8,4.5 C18.9,4.5 19.1,4.6 19.1,4.8 C19.1,4.9 19.1,5 19,5.1 C18.7,5.4 18.2,5.7 17.5,5.7 C16.4,5.7 15.5,4.8 15.5,3.7 C15.5,2.6 16.4,1.7 17.5,1.7 C18.6,1.7 19.3,2.5 19.3,3.2 C19.3,3.5 19.1,3.6 18.8,3.6 L16,3.6 L16,3.6 Z M18.7,3.1 C18.6,2.6 18.1,2.2 17.4,2.2 C16.8,2.2 16.2,2.6 16.1,3.1 L18.7,3.1 L18.7,3.1 Z" fill="#F2F2F2"></path>
                        <path d="M10.1,0.5 C10.3,0.5 10.4,0.6 10.4,0.8 L10.4,1.8 L10.9,1.8 C11.1,1.8 11.2,1.9 11.2,2 C11.2,2.2 11.1,2.2 10.9,2.2 L10.4,2.2 L10.4,5.2 C10.4,5.4 10.3,5.5 10.1,5.5 L10.1,0.5 L10.1,0.5 Z" fill="#F2F2F2"></path>
                    </g>
                    <g transform="translate(21.000000, 43.000000)" id="Shape">
                        <path d="M5.9,3 C6.1,2.5 6.5,0.7 6.9,-0.3 C7.6,-0.5 8.8,-0.5 9.6,-0.3 C9.6,-0.2 8.6,3.1 8.3,3.9 C7.3,6.3 7.2,7.4 6.3,9.6 C6.3,10.8 6.2,12.1 6.2,13 L6.2,16.4 C6.2,17 6,16.9 4.8,16.9 C4.1,16.9 3.5,16.9 3.4,16.3 C3.2,15.3 3.3,12.7 3.4,11.5 C3.4,10.2 3.3,9.6 3.3,9.6 C3.2,9.2 2.4,7.3 2.2,7 C1.3,5.2 -0.4,-0.2 -0.3,-0.2 C0.6,-0.4 2.3,-0.4 2.4,-0.2 C2.5,0.2 2.9,1.3 3.1,1.8 C3.5,3.2 4.3,5.3 4.6,6.2 C5.1,5.5 5.5,4.1 5.9,3 L5.9,3 Z" fill="#FFFFFF"></path>
                        <path d="M19,-0.1 C19.1,0.2 18.9,1.7 19,2.1 C19,2.1 16,2.2 14.2,2.1 C14.3,4 14,5.8 14.2,7.3 C15,7.3 17.4,7.2 18.3,7.3 L18.3,9.3 C17.4,9.8 16,9.5 14.5,9.5 C14.3,10.7 14.6,12.9 14.5,14.4 C14.7,14.5 18.4,14.3 19.2,14.5 C19.4,14.6 19.3,15.2 19.3,15.9 C19.3,16.5 19.3,16.8 19,16.8 L11.7,16.8 L11.6,16.8 L11.6,11.3 C11.6,9 11.7,8.1 11.5,5.4 C11.6,3.8 11.6,-3.55271368e-14 11.7,-0.1 C11.9,-0.3 14.4,-0.2 16.2,-0.2 C17.1,-0.2 19,-0.1 19,-0.1 L19,-0.1 Z" fill="#FFFFFF"></path>
                        <path d="M28,4.2 C28.3,6 28.4,6.8 28.6,8.5 C28.7,9.1 28.8,9.7 28.8,10.1 C29,12.3 29.3,14.1 29.4,16.4 C29,17.4 26.9,16.8 26.9,16.8 C26.3,16 26.8,14.1 26.4,13.3 C25.4,13.2 24.2,13.2 23.6,13.2 C23,14.2 23.5,16.5 22.8,16.9 C22.4,17.2 20.7,16.9 20.7,16.9 C20.4,16.3 21.3,11.1 21.4,10.2 C21.5,9.2 21.7,8.1 21.9,7.2 C22.1,5.8 22.2,4.9 22.4,3.5 C22.5,3.2 23.1,0.4 23.2,-0.1 C23.2,-0.1 23.4,-0.1 23.7,-0.2 C23.9,-0.2 24.6,-0.3 24.9,-0.3 C26.2,-0.4 26.6,-0.3 27,-0.1 C27.5,0.7 27.8,2.7 28,4.2 L28,4.2 Z M23.7,10.8 C24.5,10.9 25.5,10.9 26.1,10.8 C25.9,8.2 25,2.7 25,2.8 C24.6,3.9 24.4,5.3 24.2,6.8 C24,8.3 23.7,9.4 23.7,10.8 L23.7,10.8 Z" fill="#F2F2F2"></path>
                        <path d="M33.8,12.9 C33.7,14.1 34,16.4 33.7,16.8 C33.6,17 31.4,17.1 31.2,16.8 C30.9,16.4 31,13.4 31.1,12.3 C31.1,11.2 31,9.9 31,8.5 C31,6.5 31.1,1.8 31,-0.1 C31,-0.3 31.1,-0.4 31.1,-0.4 C31.5,-0.4 33.4,-0.5 34.1,-0.4 C37.9,-0.3 40.4,0.4 40.6,4 C40.6,4.6 40.6,5.3 40.4,5.9 C39.9,7.5 39.1,8.7 37.8,9.5 C38.3,11 38.9,12.7 39.5,14.3 C39.8,15.2 40.1,15.9 40.2,16.7 C39.6,17 38.3,16.7 37.7,16.7 C37.5,16.7 36.5,13.9 36.1,12.8 C35.7,11.7 35.3,9.4 34.2,9.8 C33.8,10.8 33.8,11.9 33.8,12.9 L33.8,12.9 Z M37.1,3.1 C36.9,2.7 36.7,2.5 36.3,2.3 C35.6,2.1 34.7,2 33.8,2 C33.7,3.7 33.8,5.5 33.8,7.2 C34.6,7.2 35.1,7.3 35.6,7.2 C36.9,7.1 37.8,4.4 37.1,3.1 L37.1,3.1 Z" fill="#F2F2F2"></path>
                    </g>
                    <g transform="translate(41.000000, 18.000000)" id="Shape" fill="#F2F2F2">
                        <path d="M0.9,2 C1.2,2.6 1.3,3.4 1.3,3.5 C1.3,3.8 1.4,4.2 1.3,4.7 C1.3,5.4 1.5,7.2 1.4,8 C1.4,8.4 1.3,8.3 0.9,8.3 C0.6,8.3 0.3,8.4 0.1,8.3 L0.1,1.8 C0.4,1.7 0.7,1.8 0.9,2 L0.9,2 Z"></path>
                        <path d="M5.7,2.3 C5.9,2.5 5.7,2.8 5.7,3.1 C5.7,3.8 5.2,3.1 4.7,3.3 C4.5,4.6 4.2,5.9 4.1,7.1 C4.2,7.3 4.4,7.5 4.7,7.5 C5.2,7.5 4.8,7.6 4.9,8 C4.9,8.2 4.8,8.5 4.8,8.7 C4.2,8.9 4,8.6 3.7,8.6 C3.1,8.4 2.9,8.1 2.8,7.4 C2.7,6.8 3,6 3,5.3 C3.1,4.5 3.3,3.8 3.4,3.1 C3.4,3 2.9,3.2 2.8,2.9 C2.7,2.5 2.9,2.1 2.9,2.1 C3,2 3.5,2 3.7,2.1 C3.8,1.8 3.8,0.8 4.1,0.4 C4.1,0.4 4.9,0.3 5.2,0.6 C5.3,0.7 5.1,1.8 5,2.3 C5,2.3 5.5,2.2 5.7,2.3 L5.7,2.3 Z"></path>
                        <path d="M7.1,7.2 C7,7.4 7,7.9 7,8 C7.1,8.4 7.6,8.4 8,8.2 C8.2,8.1 8.5,7.8 8.6,7.6 C8.7,7.4 9.9,7.8 9.8,8.1 C9.8,8.1 9.6,8.3 9.5,8.6 C9.4,8.8 9.1,9.1 9,9.2 C8.6,9.7 7.6,9.8 6.9,9.4 C6.6,9.2 6.2,8.9 6,8.6 C5.6,7.9 5.8,6.8 6.1,5.9 C6.2,5.6 6.4,4.9 6.6,4.6 C6.8,4.2 7,3.9 7.3,3.6 C7.4,3.4 7.8,3.2 8,3.1 C8.8,2.8 9.8,3.2 10.2,3.8 C10.4,4.1 10.6,4.4 10.7,4.8 C10.7,5.2 10.6,5.5 10.6,5.7 C10.6,5.9 10.4,6.4 10.3,6.6 C10.2,6.9 10.3,6.8 10.1,7.1 C9.1,7.1 8.3,6.3 7.4,6.3 C7.3,6.6 7.2,7 7.1,7.2 L7.1,7.2 Z M7.9,5.3 C8.2,5.5 8.8,5.8 9.2,5.7 C9.7,5.2 9.3,4.2 8.7,4.2 C8.4,4.3 8.1,5 7.9,5.3 L7.9,5.3 Z"></path>
                        <path d="M12,9.4 C11.9,9.6 11.7,10 11.8,10.2 C11.8,10.6 12.3,10.7 12.7,10.6 C12.9,10.6 13.3,10.3 13.4,10.1 C13.5,9.9 14.7,10.6 14.5,10.8 C14.5,10.8 14.3,11 14.1,11.2 C14,11.4 13.6,11.6 13.5,11.7 C13,12.1 12,11.9 11.4,11.4 C11.1,11.2 10.9,10.7 10.7,10.4 C10.4,9.6 10.9,8.6 11.4,7.7 C11.6,7.4 11.9,6.8 12.2,6.5 C12.5,6.2 12.8,5.9 13.1,5.7 C13.3,5.5 13.7,5.4 13.9,5.4 C14.7,5.3 15.6,5.9 15.9,6.6 C16,6.9 16.2,7.2 16.1,7.7 C16.1,8.1 15.9,8.3 15.8,8.6 C15.7,8.8 15.4,9.3 15.3,9.4 C15.2,9.7 15.2,9.6 15,9.9 C14.1,9.6 13.4,8.7 12.6,8.5 C12.3,8.8 12.1,9.1 12,9.4 L12,9.4 Z M13.2,7.7 C13.4,8 14,8.3 14.3,8.4 C14.9,8 14.7,6.9 14.2,6.9 C13.9,6.8 13.4,7.4 13.2,7.7 L13.2,7.7 Z"></path>
                        <path d="M14,13 C14.1,12.9 14.8,12.1 14.9,11.9 C15.7,11.2 16.1,10.6 16.7,9.9 C16.8,9.7 17.8,8.8 18,8.6 C18.3,8.3 18.6,9 19,9.2 C19.4,9.4 18.8,9.5 18.8,9.8 C19.2,9.9 19.6,9.8 20,10.1 C20.4,10.4 20.5,10.4 20.2,10.7 C20,10.9 19.7,11.4 19.5,11.4 C19.4,11.4 19,10.9 18.9,10.8 C18.5,10.4 18.2,10.6 17.8,10.7 C17.6,10.8 17.4,11.1 17.3,11.1 C17.2,11.2 16.9,11.4 16.8,11.7 C16.1,12.6 15.5,13.1 14.7,14 C14.6,14.1 13.7,13.4 14,13 L14,13 Z"></path>
                    </g>
                </g>
                <g id="Group" transform="translate(19.000000, 49.000000)" sketch:type="MSShapeGroup">
                    <rect id="Rectangle-path" fill="#666666" transform="translate(197.328450, 4.890950) rotate(135.000000) translate(-197.328450, -4.890950) " x="193.828484" y="0.89098836" width="6.69993575" height="7.99992328"></rect>
                    <rect id="Rectangle-path" fill="#CCCCCC" transform="translate(114.235350, 222.012750) rotate(-45.000000) translate(-114.235350, -222.012750) " x="108.235408" y="143.513503" width="11.9998849" height="156.998494"></rect>
                    <path d="M160.8,294.4 C160.8,296.1 162.1,297.4 163.8,297.4 L171.8,297.4 C173.5,297.4 174.8,296.1 174.8,294.4 L174.8,274.4 C174.8,272.7 173.5,271.4 171.8,271.4 L163.8,271.4 C162.1,271.4 160.8,272.7 160.8,274.4 L160.8,294.4 L160.8,294.4 Z" id="Shape" fill="#FFDE28"></path>
                    <path d="M101.8,303.7 C101.8,307 104.5,309.7 107.8,309.7 L227.9,309.7 C231.2,309.7 233.9,307 233.9,303.7 L233.9,299.7 C233.9,296.4 231.2,293.7 227.9,293.7 L107.8,293.7 C104.5,293.7 101.8,296.4 101.8,299.7 L101.8,303.7 L101.8,303.7 Z" id="Shape" fill="#F2F2F2"></path>
                    <circle id="Oval" fill="#666666" cx="167.9" cy="276.9" r="2.9"></circle>
                    <rect id="Rectangle-path" fill="#F2F2F2" transform="translate(117.889950, 113.914250) rotate(225.000000) translate(-117.889950, -113.914250) " x="111.890008" y="-16.5844985" width="11.9998849" height="260.997497"></rect>
                    <g transform="translate(56.000000, 165.000000)">
                        <path d="M0.2,-0.1 C-0.1,0.2 -0.1,0.7 0.2,1 L10.6,11.4 C10.9,11.7 11.4,11.7 11.7,11.4 L11.7,11.4 C12,11.1 12,10.6 11.7,10.3 L1.3,-0.1 C1,-0.4 0.5,-0.4 0.2,-0.1 L0.2,-0.1 L0.2,-0.1 Z" id="Shape" fill="#808080"></path>
                        <circle id="Oval" fill="#666666" cx="5.9" cy="5.9" r="2.9"></circle>
                    </g>
                    <path d="M234,121.1 L313.6,41.5 C283.1,11 240.6,4.2 218.7,26.1 C196.8,48 203.6,90.6 234,121.1 L234,121.1 Z" id="Shape" fill="#F2F2F2"></path>
                    <path d="M196,20.5 C193.9,17.8 193.7,14.4 196,12 L204.5,3.5 C206.8,1.2 210,1 213,3.5 L232.6,20.2 C234.9,22.5 234.9,26.3 232.6,28.7 L221.3,40 C219,42.3 215.2,42.3 212.8,40 L196,20.5 L196,20.5 Z" id="Shape" fill="#FFDE28"></path>
                    <ellipse id="Oval" fill="#CCCCCC" transform="translate(273.156200, 81.612000) rotate(135.000000) translate(-273.156200, -81.612000) " cx="272.956202" cy="81.612" rx="56.2994601" ry="5.49994725"></ellipse>
                    <path d="M259.1,88.4 C265.1,90.7 272.2,89.4 277.1,84.5 C282,79.6 283.3,72.6 281,66.5 C281,66.5 277.4,69.8 269.9,77.3 C262.4,84.8 259.1,88.4 259.1,88.4 L259.1,88.4 Z" id="Shape" fill="#FDF060"></path>
                    <path d="M7.8,231.1 C9,232.3 10.9,232.3 12,231.1 L32.5,210.6 C33.7,209.4 33.7,207.5 32.5,206.4 L25.6,199.5 C24.4,198.3 22.5,198.3 21.4,199.5 L1,219.9 C-0.2,221.1 -0.2,223 1,224.1 L7.8,231.1 L7.8,231.1 Z" id="Shape" fill="#FFDE28"></path>
                </g>
                <g id="Clipped" transform="translate(499.000000, 2.000000)">
                    <mask id="mask-2" sketch:name="SVGID_1_" fill="white">
                        <use xlink:href="#path-1"></use>
                    </mask>
                    <g id="SVGID_1_"></g>
                    <g id="Group" mask="url(#mask-2)">
                        <g transform="translate(-23.000000, 0.000000)">
                            <rect id="Rectangle-path" fill="#98D5D6" sketch:type="MSShapeGroup" x="23" y="0" width="141" height="97"></rect>
                            <path d="M78.6,39.5 C78.6,39.5 80.3,36.3 82,36.3 C83.7,36.3 85.4,39.5 85.4,39.5 L101.1,68.8 L82,68.8 L62.9,68.8 L78.6,39.5 L78.6,39.5 Z" id="Shape" fill="#46427B" sketch:type="MSShapeGroup"></path>
                            <path d="M78.6,39.5 C78.6,39.5 80.3,36.3 82,36.3 L82,68.8 L62.9,68.8 L78.6,39.5 L78.6,39.5 Z" id="Shape" fill="#3A3572" sketch:type="MSShapeGroup"></path>
                            <path d="M95.2,33.6 C95.2,33.6 97.1,29.9 99.1,29.9 C101.1,29.9 103,33.6 103,33.6 L121.1,67.4 L99,67.4 L77,67.4 L95.2,33.6 L95.2,33.6 Z" id="Shape" fill="#554F94" sketch:type="MSShapeGroup"></path>
                            <path d="M99.1,29.9 C101.1,29.9 103,33.6 103,33.6 L112.5,51.3 L121.1,67.4 L99,67.4 C99.1,67.4 98.9,29.9 99.1,29.9 L99.1,29.9 Z" id="Shape" fill="#5D57A2" sketch:type="MSShapeGroup"></path>
                            <path d="M95.2,33.6 C95.2,33.6 97.1,29.9 99.1,29.9 C101.1,29.9 103,33.6 103,33.6 L104.5,36.3 C104.5,36.3 104,37.6 101.8,37.6 C99.6,37.6 99.1,37 99.1,37 C99.1,37 98.3,36.4 96.5,36.4 C94.2,36.4 93.3,37.1 93.3,37.1 L95.2,33.6 L95.2,33.6 Z" id="Shape" fill="#F2F2F2" sketch:type="MSShapeGroup"></path>
                            <path d="M99.1,29.9 C101.1,29.9 103,33.6 103,33.6 L104.5,36.3 C104.5,36.3 103.9,37.6 101.8,37.6 C99.7,37.6 99.1,37 99.1,37 L99.1,29.9 L99.1,29.9 Z" id="Shape" fill="#FFFFFF" sketch:type="MSShapeGroup"></path>
                            <g id="Group" stroke-width="1" fill="none" sketch:type="MSLayerGroup" transform="translate(0.000000, 59.000000)">
                                <path d="M103.4,7.1 C103.4,7.1 110.3,-0.1 132.6,-0.1 C132.6,-0.1 168.5,0.2 189.9,8.4 L189.9,38.2 L132.6,38.2 L121.7,38.2 L104.7,15.7 L99.1,7.9 L103.4,7.1 L103.4,7.1 Z" id="Shape" fill="#89BF6B" sketch:type="MSShapeGroup"></path>
                                <path d="M57.7,3.1 C57.7,3.1 99.2,-2.4 128.6,19 C128.6,19 133,22.1 139.3,29.6 C139.3,29.6 140.5,34.1 153.3,38.2 L0.4,38.1 L0.4,5.9 C26.6,10.2 57.7,3.1 57.7,3.1 L57.7,3.1 Z" id="Shape" fill="#B2D46B" sketch:type="MSShapeGroup"></path>
                            </g>
                            <path d="M109,67.8 C110.2,67.2 111.6,66.6 112.6,65.7 C112.7,65.6 113.1,65.3 113.3,65.2 C113.5,64.9 114.9,64.3 114.4,63.3 C113.6,62.6 112.5,62.4 111.6,62.5 L111.1,62.5 L109.6,62.5 L109.1,62.7 C110.1,62.7 110.9,62.7 111.5,62.8 L111.9,62.8 C112.2,62.9 112.7,62.9 113.1,63 C114.4,63.7 113.3,64.2 112.6,64.7 C112.5,64.8 112.2,65 112.1,65.1 C111.8,65.3 110.7,65.8 110.4,65.9 C109.9,66.1 109.9,66.1 109.4,66.4 C109.3,66.4 109.3,66.5 109.2,66.5 C109,66.6 108.8,66.7 108.5,66.9 C108.3,67 108.2,67 108.1,67.1 L107.7,67.3 L109,67.8 L109,67.8 Z" id="Shape" fill="#89AE64" sketch:type="MSShapeGroup"></path>
                            <g id="Group" stroke-width="1" fill="none" sketch:type="MSLayerGroup" transform="translate(114.000000, 54.000000)">
                                <rect id="Rectangle-path" fill="#C2986B" sketch:type="MSShapeGroup" x="3" y="7" width="0.7" height="2"></rect>
                                <path d="M0.4,7.3 C0.4,7.3 2.8,0.1 3,0.1 C3.2,0.1 5.6,7.3 5.6,7.3 C5.6,7.5 4.5,7.6 3,7.6 C1.6,7.6 0.4,7.5 0.4,7.3 L0.4,7.3 Z" id="Shape" fill="#8A9D81" sketch:type="MSShapeGroup"></path>
                                <path d="M0.4,7.3 C0.4,7.3 2.8,0.1 3,0.1 L3,7.6 C1.6,7.6 0.4,7.5 0.4,7.3 L0.4,7.3 Z" id="Shape" fill="#768C6C" sketch:type="MSShapeGroup"></path>
                            </g>
                            <g id="Group" stroke-width="1" fill="none" sketch:type="MSLayerGroup" transform="translate(104.000000, 54.000000)">
                                <rect id="Rectangle-path" fill="#C2986B" sketch:type="MSShapeGroup" x="3" y="9" width="1" height="2.9"></rect>
                                <path d="M0.2,10.3 C0.2,10.3 3.6,-0.2 3.9,-0.2 C4.2,-0.2 7.6,10.3 7.6,10.3 C7.6,10.5 5.9,10.7 3.9,10.7 C1.9,10.7 0.2,10.5 0.2,10.3 L0.2,10.3 Z" id="Shape" fill="#8A9D81" sketch:type="MSShapeGroup"></path>
                                <path d="M0.2,10.3 C0.2,10.3 3.6,-0.2 3.9,-0.2 L3.9,10.7 C1.9,10.7 0.2,10.5 0.2,10.3 L0.2,10.3 Z" id="Shape" fill="#768C6C" sketch:type="MSShapeGroup"></path>
                            </g>
                            <g id="Group" stroke-width="1" fill="none" sketch:type="MSLayerGroup" transform="translate(116.000000, 55.000000)">
                                <rect id="Rectangle-path" fill="#C2986B" sketch:type="MSShapeGroup" x="3" y="9" width="1" height="2.7"></rect>
                                <path d="M0,10.3 C0,10.3 3.2,0.3 3.5,0.3 C3.8,0.3 7,10.3 7,10.3 C7,10.5 5.4,10.7 3.5,10.7 C1.6,10.7 0,10.6 0,10.3 L0,10.3 Z" id="Shape" fill="#8A9D81" sketch:type="MSShapeGroup"></path>
                                <path d="M0,10.3 C0,10.3 3.2,0.3 3.5,0.3 L3.5,10.6 C1.6,10.7 0,10.6 0,10.3 L0,10.3 Z" id="Shape" fill="#768C6C" sketch:type="MSShapeGroup"></path>
                            </g>
                            <g id="Group" stroke-width="1" fill="none" sketch:type="MSLayerGroup" transform="translate(121.000000, 55.000000)">
                                <rect id="Rectangle-path" fill="#C2986B" sketch:type="MSShapeGroup" x="3" y="11" width="1.2" height="3.3"></rect>
                                <path d="M-0.4,12.6 C-0.4,12.6 3.6,0.4 3.9,0.4 C4.2,0.4 8.2,12.6 8.2,12.6 C8.2,12.9 6.3,13.1 3.9,13.1 C1.5,13.1 -0.4,12.8 -0.4,12.6 L-0.4,12.6 Z" id="Shape" fill="#8A9D81" sketch:type="MSShapeGroup"></path>
                                <path d="M-0.4,12.6 C-0.4,12.6 3.6,0.4 3.9,0.4 L3.9,13.1 C1.5,13.1 -0.4,12.8 -0.4,12.6 L-0.4,12.6 Z" id="Shape" fill="#768C6C" sketch:type="MSShapeGroup"></path>
                            </g>
                            <path d="M59.4,76.7 C87.5,65.7 98.8,64.8 99.2,64.9 C100.4,65.1 102.6,65.8 102.6,65.8 C102.6,65.8 85.1,69.9 67.4,88.5 C67.4,88.5 63.8,92.1 60.6,97.1 L28,97.1 C29.1,94.6 37.6,88.5 37.6,88.5 C45.2,82.3 59.4,76.7 59.4,76.7 L59.4,76.7 Z" id="Shape" fill="#A1BF65" sketch:type="MSShapeGroup"></path>
                            <path d="M78.6,39.5 C78.6,39.5 80.3,36.3 82,36.3 C83.7,36.3 85.4,39.5 85.4,39.5 L86.7,41.9 C86.7,41.9 85.6,42.7 84,42 C83.3,41.7 83,42.2 82.1,42.5 C81.6,42.7 81,42.8 80.1,42.7 C78.1,42.6 77.5,41.9 77.5,41.9 L78.6,39.5 L78.6,39.5 Z" id="Shape" fill="#FFFFFF" sketch:type="MSShapeGroup"></path>
                            <path d="M78.6,39.5 C78.6,39.5 80.3,36.3 82,36.3 L82,42.5 C81.5,42.7 80.9,42.8 80,42.7 C78,42.6 77.4,41.9 77.4,41.9 L78.6,39.5 L78.6,39.5 Z" id="Shape" fill="#F2F2F2" sketch:type="MSShapeGroup"></path>
                            <g id="Group" stroke-width="1" fill="none" sketch:type="MSLayerGroup" transform="translate(66.000000, 52.000000)">
                                <rect id="Rectangle-path" fill="#C2986B" sketch:type="MSShapeGroup" x="3" y="9" width="0.9" height="2.6"></rect>
                                <path d="M-0.2,9.6 C-0.2,9.6 2.9,0.1 3.1,0.1 C3.4,0.1 6.4,9.6 6.4,9.6 C6.4,9.8 4.9,10 3.1,10 C1.3,10 -0.2,9.8 -0.2,9.6 L-0.2,9.6 Z" id="Shape" fill="#8A9D81" sketch:type="MSShapeGroup"></path>
                                <path d="M-0.2,9.6 C-0.2,9.6 2.9,0.1 3.1,0.1 L3.1,9.9 C1.3,9.9 -0.2,9.8 -0.2,9.6 L-0.2,9.6 Z" id="Shape" fill="#768C6C" sketch:type="MSShapeGroup"></path>
                            </g>
                            <g id="Group" stroke-width="1" fill="none" sketch:type="MSLayerGroup" transform="translate(60.000000, 51.000000)">
                                <rect id="Rectangle-path" fill="#C2986B" sketch:type="MSShapeGroup" x="4" y="10" width="1.1" height="3.2"></rect>
                                <path d="M0.2,11.6 C0.2,11.6 4,-0.2 4.3,-0.2 C4.6,-0.2 8.4,11.6 8.4,11.6 C8.4,11.9 6.5,12.1 4.3,12.1 C2,12.1 0.2,11.9 0.2,11.6 L0.2,11.6 Z" id="Shape" fill="#8A9D81" sketch:type="MSShapeGroup"></path>
                                <path d="M0.2,11.6 C0.2,11.6 4,-0.2 4.3,-0.2 L4.3,12 C2,12.1 0.2,11.9 0.2,11.6 L0.2,11.6 Z" id="Shape" fill="#768C6C" sketch:type="MSShapeGroup"></path>
                            </g>
                            <path d="M140.6,25.8 C142.3,25.8 143.7,27.2 143.7,28.9 C143.7,30.6 142.3,32 140.6,32 L131,32 C129.6,32 128.5,30.9 128.5,29.5 C128.5,28.1 129.6,27 131,27 L131.4,27 L131.4,27 C131.7,25 133.5,23.4 135.6,23.4 C137.3,23.4 138.8,24.4 139.5,25.9 C139.5,26 139.8,25.8 140.6,25.8 L140.6,25.8 Z" id="Shape" fill="#FFFFFF" sketch:type="MSShapeGroup"></path>
                            <path d="M56.1,18.3 C58.2,18.3 60,20 60,22.2 C60,24.4 58.3,26.1 56.1,26.1 L44.3,26.1 C42.6,26.1 41.2,24.7 41.2,23 C41.2,21.3 42.6,19.9 44.3,19.9 L44.7,19.9 L44.7,19.9 C45.1,17.4 47.3,15.5 49.9,15.5 C52,15.5 53.8,16.7 54.7,18.5 C54.7,18.6 55.1,18.3 56.1,18.3 L56.1,18.3 Z" id="Shape" fill="#FFFFFF" sketch:type="MSShapeGroup"></path>
                            <path d="M107.6,11.1 C108.8,11.1 109.8,12.1 109.8,13.3 C109.8,14.5 108.8,15.5 107.6,15.5 L100.9,15.5 C99.9,15.5 99.1,14.7 99.1,13.7 C99.1,12.7 99.9,11.9 100.9,11.9 L101.2,11.9 L101.2,11.9 C101.4,10.5 102.7,9.4 104.2,9.4 C105.4,9.4 106.5,10.1 106.9,11.1 C106.8,11.2 107.1,11.1 107.6,11.1 L107.6,11.1 Z" id="Shape" fill="#FFFFFF" sketch:type="MSShapeGroup"></path>
                        </g>
                    </g>
                </g>
                <g id="Group" transform="translate(918.000000, 191.000000)" sketch:type="MSShapeGroup">
                    <path d="M143.7,178.9 C143.7,180.5 142.4,181.8 140.8,181.8 L9,181.8 C7.4,181.8 6.1,180.5 6.1,178.9 L6.1,4.6 C6.1,3 7.4,1.7 9,1.7 L140.8,1.7 C142.4,1.7 143.7,3 143.7,4.6 L143.7,178.9 L143.7,178.9 Z" id="Shape" fill="#5D57A2"></path>
                    <circle id="Oval" fill="#FFFFFF" cx="17.8" cy="17.8" r="3.8"></circle>
                    <circle id="Oval" fill="#FFFFFF" cx="17.8" cy="162.8" r="3.8"></circle>
                    <circle id="Oval" fill="#FFFFFF" cx="17.8" cy="91.8" r="3.8"></circle>
                    <path d="M0.3,174 C0.3,175.6 1.6,176.9 3.2,176.9 L3.2,176.9 C4.8,176.9 6.1,175.6 6.1,174 L6.1,11.7 C6.1,10.1 4.8,8.8 3.2,8.8 L3.2,8.8 C1.6,8.8 0.3,10.1 0.3,11.7 L0.3,174 L0.3,174 Z" id="Shape" fill="#4D4D4D"></path>
                    <g transform="translate(31.000000, 56.000000)" id="Shape" fill="#FFFFFF">
                        <path d="M4.6,11.5 L4.6,9.1 C4.7,9.1 5.8,9 5.9,9 C6.3,8.9 8.5,9 8.7,9.1 C8.7,9.1 8.9,10.3 8.8,11.2 C8.8,12.9 8.7,14.7 8,16 C7.4,17.1 6.1,17.6 4.6,17.5 C3,17.5 1.8,16.6 1,15.5 C0.1,14.2 0.1,11.3 1.34036879e-13,9.2 C-0.1,7.1 0.3,3.5 1.2,1.7 C2.1,-0.2 6,-0.6 7.7,1.1 C8.3,1.7 8.6,2.7 8.7,4 C8.8,5.1 8.9,5.8 8.5,6.4 C7.7,6.8 6.1,6.5 6.1,6.5 C5.6,6.2 6,4.1 5.5,3.1 C5.3,2.7 4.8,2.8 4.3,2.8 C2.7,2.8 3.2,9.5 3.2,9.5 L3.2,10.2 C3.1,11.6 3.1,13.8 4,14.9 C5.4,15.5 5.7,13.3 5.7,12.1 C5.6,11.2 5.8,11.7 4.6,11.5 L4.6,11.5 Z"></path>
                        <path d="M13.5,13.2 C13.4,14.4 13.7,16.7 13.4,17.1 C13.3,17.3 11.1,17.4 10.9,17.1 C10.7,16.8 10.7,13.7 10.8,12.6 C10.8,11.5 10.7,10.2 10.7,8.8 C10.7,6.8 10.8,2.1 10.7,0.2 C10.7,-8.21009927e-14 10.8,-0.1 10.8,-0.1 C11.2,-0.1 13.1,-0.2 13.8,-0.1 C17.6,-8.21009927e-14 20.1,0.7 20.3,4.3 C20.3,4.9 20.3,5.6 20.1,6.2 C19.6,7.8 18.8,9 17.5,9.8 C18,11.3 18.6,13 19.2,14.6 C19.5,15.5 19.8,16.2 19.9,17 C19.3,17.3 18,17 17.4,17 C17.2,17 16.2,14.2 15.8,13.1 C15.4,12 15,9.7 13.9,10.1 C13.5,11.1 13.6,12.2 13.5,13.2 L13.5,13.2 Z M16.9,3.4 C16.7,3 16.5,2.8 16.1,2.6 C15.4,2.4 14.5,2.3 13.6,2.3 C13.5,4 13.6,5.8 13.6,7.5 C14.4,7.5 14.9,7.6 15.4,7.5 C16.7,7.4 17.5,4.8 16.9,3.4 L16.9,3.4 Z"></path>
                        <path d="M28.5,4.5 C28.8,6.3 28.9,7.1 29.1,8.8 C29.2,9.4 29.3,10 29.3,10.4 C29.5,12.6 29.8,14.4 29.9,16.7 C29.5,17.7 27.4,17.1 27.4,17.1 C26.8,16.3 27.3,14.4 26.9,13.6 C25.9,13.5 24.7,13.5 24.1,13.5 C23.5,14.5 24,16.8 23.3,17.2 C22.9,17.5 21.2,17.2 21.2,17.2 C20.9,16.6 21.8,11.4 21.9,10.5 C22,9.5 22.2,8.4 22.4,7.5 C22.6,6.1 22.7,5.2 22.9,3.8 C23,3.5 23.6,0.7 23.7,0.2 C23.7,0.2 23.9,0.2 24.2,0.1 C24.4,0.1 25.1,-6.95832281e-14 25.4,-6.95832281e-14 C26.7,-0.1 27.1,-6.95832281e-14 27.5,0.2 C28.1,1.1 28.3,3 28.5,4.5 L28.5,4.5 Z M24.2,11.1 C25,11.2 26,11.2 26.6,11.1 C26.4,8.5 25.5,3 25.5,3.1 C25.1,4.2 24.9,5.6 24.7,7.1 C24.6,8.6 24.2,9.7 24.2,11.1 L24.2,11.1 Z"></path>
                        <path d="M37,2.8 C36.7,5.5 37,7.8 37,10.5 C37,11.9 36.9,13.4 37,14.9 C37,15.4 37.2,16.6 37,17 C36.8,17.5 34.2,17.3 34.1,16.9 C34.1,16 33.8,8.1 33.8,7 C33.8,4.3 33.9,3.1 33.7,2.8 C33.4,2.4 31.1,2.8 30.5,2.7 C30.2,2.7 30.1,0.1 30.4,0.1 C31.2,-5.68434189e-14 32.2,-5.68434189e-14 33.2,-5.68434189e-14 L40,-5.68434189e-14 C40.3,-5.68434189e-14 40.1,2.7 40.1,2.7 C39.8,2.7 38.4,2.5 37,2.8 L37,2.8 Z"></path>
                        <path d="M44.8,-0.1 C44.9,0.2 44.8,2.6 44.8,3.1 C45,6.6 44.9,11.1 44.9,14.6 L44.9,17 C44.5,17.6 42.6,17.4 42.2,17.1 C42,17 42.2,16.5 42.1,16.3 C42,15.4 42.2,14.2 42.2,12.9 C42.2,10.7 42.3,7.1 42.2,5.8 C42.1,4.5 42.2,-0.1 42.2,-0.1 C42.7,-0.2 44.8,-0.1 44.8,-0.1 L44.8,-0.1 Z"></path>
                        <path d="M53.3,2.8 C53,5.5 53.3,7.8 53.3,10.5 C53.3,11.9 53.2,13.4 53.3,14.9 C53.3,15.4 53.5,16.6 53.3,17 C53.1,17.5 50.5,17.3 50.4,16.9 C50.4,16 50.1,8.1 50.1,7 C50.1,4.3 50.2,3.1 50,2.8 C49.7,2.4 47.4,2.8 46.8,2.7 C46.5,2.7 46.4,0.1 46.7,0.1 C47.5,-5.68434189e-14 48.5,-5.68434189e-14 49.5,-5.68434189e-14 L56.3,-5.68434189e-14 C56.6,-5.68434189e-14 56.4,2.7 56.4,2.7 C56.1,2.7 54.7,2.5 53.3,2.8 L53.3,2.8 Z"></path>
                        <path d="M60.8,7.8 C60.8,8.7 60.8,9.1 60.9,9.9 C61,11.3 60.9,12.6 61.2,13.5 C61.4,14.1 61.6,15 62.8,15 C64.2,15.1 64.6,12.5 64.6,10.9 C64.6,9.5 64.5,7.9 64.5,6.4 C64.5,5.1 64.1,1.3 64.3,2.84217094e-14 C64.3,-0.2 65.2,-0.3 65.9,-0.2 C66.4,-0.2 67,-0.2 67.2,0.1 C67.5,0.6 67.4,3.8 67.5,4.5 L67.5,6.4 C67.5,7.8 67.6,9.3 67.5,10.7 C67.4,12.5 67.8,14.5 66.3,16 C65.7,16.6 65,17.1 64.4,17.2 C60.9,18 59.3,16.3 58.4,13.7 C58.1,12.7 58.1,8.5 58,7.5 C57.9,4.9 57.9,1.9 58.1,-0.2 C59,-0.3 60.6,-0.3 60.9,-0.2 C60.9,2.4 60.7,5.3 60.8,7.8 L60.8,7.8 Z"></path>
                        <path d="M79.3,4 C79.5,4.7 79.4,5.7 79.3,6.8 C79.2,8 79.3,8.5 79.2,9.6 C79.1,11.6 79.5,13.6 78,15.3 C77.5,15.9 77.1,16.2 76.5,16.6 C74.9,17.5 72.2,17.2 71.8,17.3 L70.3,17.3 C70.1,16.9 70.2,16.1 70.1,15.5 C70,13.6 70.1,12.3 70.1,10.3 L70.1,3.2 C70.1,2.1 69.9,0.9 70.1,0.3 C70.1,0.3 71.8,0.2 73.1,0.2 C73.7,0.2 74.3,0.1 74.9,0.2 C76,0.3 76.8,1 77.5,1.3 C78.3,1.9 79,2.9 79.3,4 L79.3,4 Z M76.5,4.7 C76.3,2.6 74.5,2.2 72.9,2.5 C73,6.5 72.9,10.7 73.1,14.3 C74,14.4 75,14.6 75.8,13.8 C76.4,13.2 76.4,12.8 76.5,11.7 C76.6,9.8 76.7,7.2 76.5,4.7 L76.5,4.7 Z"></path>
                        <path d="M88.9,0.2 C89,0.5 88.8,2 88.9,2.4 C88.9,2.4 85.9,2.5 84.1,2.4 C84.2,4.3 83.9,6.1 84.1,7.6 C84.9,7.6 87.3,7.5 88.2,7.6 L88.2,9.6 C87.3,10.1 85.9,9.8 84.4,9.8 C84.2,11 84.5,13.2 84.4,14.7 C84.6,14.8 88.3,14.6 89.1,14.8 C89.3,14.9 89.2,15.5 89.2,16.2 C89.2,16.8 89.2,17.1 88.9,17.1 L81.6,17.1 L81.5,17.1 L81.5,11.6 C81.5,9.3 81.6,8.4 81.4,5.7 C81.5,4.1 81.5,0.3 81.6,0.2 C81.8,-4.97379915e-14 84.3,0.1 86.1,0.1 C87,0.1 88.9,0.2 88.9,0.2 L88.9,0.2 Z"></path>
                        <path d="M10.8,39 C11,38.8 11.1,37.8 11.2,37.3 C11.4,35.7 11.2,33.9 11.2,32 C11.1,29.2 11,26.6 10.9,24.3 C11.7,23.7 13.3,24 13.7,24.3 C14,27.3 14.2,32.7 14.2,36.4 C14.2,38 14,39.6 13.3,40.6 C13.2,40.7 13.1,40.8 13,41 C12.2,41.8 11.1,41.7 10,41.6 C9,41.5 7.7,40.9 7.4,40.4 C7.3,40.3 8.1,38.7 8.3,38.6 C8.9,38.4 9.9,39.7 10.8,39 L10.8,39 Z"></path>
                        <path d="M16.7,29.6 C16.8,28.4 16.9,27.2 17.2,26.3 C17.6,25.3 18.5,24.6 19.3,24.1 C20.9,23.9 22.8,24 23.9,25.1 C24.6,25.8 25.1,27.5 25.3,28.6 C25.4,29.3 25.4,30.4 25.4,31 C25.4,32.4 25.6,33.7 25.5,35.1 C25.4,37.1 25.2,39.3 24.2,40.5 C22.8,42.2 18.7,41.4 17.7,39.9 C16.1,37.4 16.5,33 16.7,29.6 L16.7,29.6 Z M19.3,34 C19.3,34.4 19.3,34.8 19.4,35 C19.5,35.4 19.4,36.4 19.7,37.2 C20,38.1 20.4,39.3 21.5,38.8 C22.1,38.1 22.2,36.7 22.3,35.5 C22.5,33.3 22.3,31.9 22.1,30.1 C22,28.4 22,26.4 20.6,26.5 C19.6,27 19.7,28.5 19.6,30.3 C19.6,31.6 19.4,32.9 19.3,34 L19.3,34 Z"></path>
                        <path d="M30.3,31.8 C30.3,32.7 30.3,33.1 30.4,33.9 C30.5,35.3 30.4,36.6 30.7,37.5 C30.9,38.1 31.1,39 32.3,39 C33.7,39.1 34.1,36.5 34.1,34.9 C34.1,33.5 34,31.9 34,30.4 C34,29.1 33.6,25.3 33.8,24 C33.8,23.8 34.7,23.7 35.4,23.8 C35.9,23.8 36.5,23.8 36.7,24.1 C37,24.6 36.9,27.8 37,28.5 L37,30.4 C37,31.8 37.1,33.3 37,34.7 C36.9,36.5 37.3,38.5 35.8,40 C35.2,40.6 34.5,41.1 33.9,41.2 C30.4,42 28.8,40.3 27.9,37.7 C27.6,36.7 27.6,32.5 27.5,31.5 C27.4,28.9 27.4,25.9 27.6,23.8 C28.5,23.7 30.1,23.7 30.4,23.8 C30.4,26.4 30.2,29.3 30.3,31.8 L30.3,31.8 Z"></path>
                        <path d="M42.4,37.2 C42.3,38.4 42.6,40.7 42.3,41.1 C42.2,41.3 40,41.4 39.8,41.1 C39.6,40.8 39.6,37.7 39.7,36.6 C39.7,35.5 39.6,34.2 39.6,32.8 C39.6,30.8 39.7,26.1 39.6,24.2 C39.6,24 39.7,23.9 39.7,23.9 C40.1,23.9 42,23.8 42.7,23.9 C46.5,24 49,24.7 49.2,28.3 C49.2,28.9 49.2,29.6 49,30.2 C48.5,31.8 47.7,33 46.4,33.8 C46.9,35.3 47.5,37 48.1,38.6 C48.4,39.5 48.7,40.2 48.8,41 C48.2,41.3 46.9,41 46.3,41 C46.1,41 45.1,38.2 44.7,37.1 C44.3,36 43.9,33.7 42.8,34.1 C42.4,35.1 42.5,36.2 42.4,37.2 L42.4,37.2 Z M45.8,27.4 C45.6,27 45.4,26.8 45,26.6 C44.3,26.4 43.4,26.3 42.5,26.3 C42.4,28 42.5,29.8 42.5,31.5 C43.3,31.5 43.8,31.6 44.3,31.5 C45.5,31.4 46.4,28.8 45.8,27.4 L45.8,27.4 Z"></path>
                        <path d="M57.4,28.8 L57.4,26.2 C57.4,25.5 57.2,24.5 57.6,24.1 C58.1,23.5 60.2,23.9 60.2,23.9 C60.2,23.9 60.3,26.2 60.3,27.5 C60.2,29.5 60.5,31.9 60.5,34.2 C60.5,35.2 60.4,38.3 60.4,38.6 C60.4,38.8 60.5,40.7 60.4,40.9 C60.4,40.9 58.6,41.1 57.8,40.9 C57.8,40.9 57.1,39.2 56.6,38.1 C56.3,37.2 54.7,32.5 53.9,30.8 C53.7,32.1 53.9,41.1 53.9,41.1 L52.5,41.1 C51.1,41.2 51.1,40.8 51.1,40.8 L51.1,32.6 L51.1,26.9 L51.1,24.2 C51.1,24 53.4,23.6 54.1,24 C54.5,24.2 57.1,31.9 57.8,33.4 C57.6,32.8 57.5,29.8 57.4,28.8 L57.4,28.8 Z"></path>
                        <path d="M69.2,28.5 C69.5,30.3 69.6,31.1 69.8,32.8 C69.9,33.4 70,34 70,34.4 C70.2,36.6 70.5,38.4 70.6,40.7 C70.2,41.7 68.1,41.1 68.1,41.1 C67.5,40.3 68,38.4 67.6,37.6 C66.6,37.5 65.4,37.5 64.8,37.5 C64.2,38.5 64.7,40.8 64,41.2 C63.6,41.5 61.9,41.2 61.9,41.2 C61.6,40.6 62.5,35.4 62.6,34.5 C62.7,33.5 62.9,32.4 63.1,31.5 C63.3,30.1 63.4,29.2 63.6,27.8 C63.7,27.5 64.3,24.7 64.4,24.2 C64.4,24.2 64.6,24.2 64.9,24.1 C65.1,24.1 65.8,24 66.1,24 C67.4,23.9 67.8,24 68.2,24.2 C68.8,25.1 69,27 69.2,28.5 L69.2,28.5 Z M64.9,35.1 C65.7,35.2 66.7,35.2 67.3,35.1 C67.1,32.5 66.2,27 66.2,27.1 C65.8,28.2 65.6,29.6 65.4,31.1 C65.3,32.6 64.9,33.7 64.9,35.1 L64.9,35.1 Z"></path>
                        <path d="M80,38.8 C80.6,38.9 80.4,39.5 80.4,40 C80.4,40.5 80.4,41.2 79.9,41.2 C79.1,41.2 74.6,41.3 73.9,41.3 C72.9,41.2 72.3,41.2 72.3,41.2 C72.2,39.1 72.2,37.1 72.3,35.1 L72.3,27.8 L72.3,24.2 C72.8,23.7 74.9,23.8 75.1,24 C75.4,24.4 75.2,26.1 75.2,26.7 L75.2,32 C75.2,34.5 75,36.3 75.2,38.6 C76,39 78.8,38.6 80,38.8 L80,38.8 Z"></path>
                    </g>
                    <path d="M140.8,183.3 L9,183.3 C6.6,183.3 4.6,181.3 4.6,178.9 L4.6,4.6 C4.6,2.2 6.6,0.2 9,0.2 L140.8,0.2 C143.2,0.2 145.2,2.2 145.2,4.6 L145.2,178.9 C145.2,181.3 143.3,183.3 140.8,183.3 L140.8,183.3 Z M9,3.2 C8.2,3.2 7.6,3.8 7.6,4.6 L7.6,178.9 C7.6,179.7 8.2,180.3 9,180.3 L140.8,180.3 C141.6,180.3 142.2,179.7 142.2,178.9 L142.2,4.6 C142.2,3.8 141.6,3.2 140.8,3.2 L9,3.2 L9,3.2 Z" id="Shape" fill="#FFFFFF"></path>
                </g>
                <path d="M642,101.7 L496,101.7 L496,-0.3 L642,-0.3 L642,101.7 L642,101.7 Z M501,96.7 L637,96.7 L637,4.7 L501,4.7 L501,96.7 L501,96.7 Z" id="Shape" fill="#F2F2F2" sketch:type="MSShapeGroup"></path>
                <g id="Group" transform="translate(981.000000, 304.000000)" fill="#FFFFFF" sketch:type="MSShapeGroup">
                    <path d="M5,8.5 C5.2,8.5 5.3,10 5.2,10.1 C4.6,10.3 3.6,10.1 2.7,10.1 C1.9,10.1 0.9,10.4 0.4,10.1 C2.81996648e-14,9.9 0.3,9.2 0.3,8.8 C0.3,8.3 1.8,6.4 2.1,5.9 C2.6,4.9 2.9,4.4 3.4,3.3 C3.7,2.8 3.5,2 3.2,1.5 C2.6,1.3 2.4,1.5 2.1,1.9 C1.9,2.1 2.1,3 1.7,3.1 C1.2,3.3 0.4,3.3 0.4,2.9 C0.4,2.6 0.4,2 0.5,1.8 C0.7,1.3 0.8,0.8 1.3,0.5 C1.8,0.1 2.2,-6.62248034e-14 2.8,-0.1 C3.5,-0.2 4.3,0.2 4.7,0.6 C4.9,0.8 5.1,1 5.1,1.2 C5.3,1.7 5.4,2.5 5.2,3 C5.1,3.3 5,3.7 4.9,4 C4.7,4.3 4.6,4.7 4.4,5 C4.1,5.6 3.6,6.2 3.4,6.8 C3,7.2 2.4,7.9 2.2,8.5 C2.7,8.9 4.4,8.5 5,8.5 L5,8.5 Z" id="Shape"></path>
                    <path d="M11.4,1.9 C11.6,3.2 11.6,4.5 11.6,6.1 C11.6,7 11.7,7.7 11.6,8.5 C11.5,8.8 11.2,9.4 11.1,9.5 C10.9,9.8 10.6,10 10.3,10.2 C9.8,10.5 9,10.4 8.5,10.3 C8,10.1 7.4,9.8 7.1,9.3 C6.7,8.4 7,7.9 6.8,6.7 C6.7,6 6.7,3.3 6.8,2.8 C7.1,1.5 7.2,0.2 8.8,0.1 C9.8,-0.1 11.2,0.7 11.4,1.9 L11.4,1.9 Z M8.2,3.1 C8.1,3.4 8.1,5.5 8.2,5.7 C8.3,6 8.2,6.3 8.2,6.6 L8.2,8 C8.3,8.6 8.6,9.2 9.2,9 C10,8.5 9.8,7 9.8,5.9 C9.8,4.4 10,2.7 9.6,1.7 C9.1,1.4 8.5,1.5 8.4,1.7 C8.2,1.9 8.4,2.6 8.2,3.1 L8.2,3.1 Z" id="Shape"></path>
                    <path d="M14.6,10.1 C14.5,9.7 14.5,8 14.5,7.4 L14.5,5.5 C14.5,4.4 14.6,3.4 14.5,2.4 C14.2,2.4 13,2.5 13.2,2.1 C13.3,1.9 13.1,1.4 13.3,1.2 C13.5,1 14.2,0.8 14.3,0.6 C14.6,0.1 14.6,1.5959456e-14 15.1,-0.1 C15.7,-0.3 16,-0.3 16,0.3 C16,0.5 16.1,0.8 16.1,1 C16,2.6 16,4.3 16,6 C16,7.4 16.1,8.6 16.1,10 C15.5,10.3 14.6,10.1 14.6,10.1 L14.6,10.1 Z" id="Shape"></path>
                    <path d="M24,6.4 C24.1,6.6 24,7.4 24.1,7.6 C24.1,8 23.3,7.4 23.2,7.7 C23,7.8 23.3,10.1 23.1,10.1 C23.1,10.3 23,10.3 21.6,10.2 C21.3,10.2 21.5,8.8 21.5,7.9 C21.1,7.8 20.6,7.9 20.2,7.9 C19.7,7.9 19,8 18.5,7.8 C18.2,7.7 18.4,6.9 18.4,6.5 C18.4,6.2 18.6,5.9 18.8,5.6 C19,5.2 19,5.1 19.1,4.8 C19.5,3.6 20.9,0.6 21.5,0.2 C22.1,0.2 22.8,0.1 23,0.4 C23.2,2.6 23.1,4 23.1,6.4 C23.3,6.5 23.8,6.3 24,6.4 L24,6.4 Z M21.5,6.3 C21.5,5.3 21.8,3.6 21.6,2.7 C21.2,3.6 20.4,5.4 20,6.2 C20.2,6.5 21.2,6.4 21.5,6.3 L21.5,6.3 Z" id="Shape"></path>
                </g>
            </g>
        </g>
    </g>
</svg>