<?xml version="1.0" encoding="UTF-8" standalone="no"?>
<svg width="1140px" height="450px" viewBox="0 0 1140 450" version="1.1" xmlns="http://www.w3.org/2000/svg" xmlns:xlink="http://www.w3.org/1999/xlink" xmlns:sketch="http://www.bohemiancoding.com/sketch/ns">
    <!-- Generator: Sketch 3.0.3 (7891) - http://www.bohemiancoding.com/sketch -->
    <title>grit</title>
    <desc>Created with Sketch.</desc>
    <defs></defs>
    <g id="SVGs" stroke="none" stroke-width="1" fill="none" fill-rule="evenodd" sketch:type="MSPage">
        <g id="grit" sketch:type="MSLayerGroup">
            <g id="Background" fill="#98D5D6" sketch:type="MSShapeGroup">
                <rect id="Rectangle-path" x="0" y="0" width="1140" height="450"></rect>
            </g>
            <g id="Layer_3" transform="translate(0.000000, 17.000000)" sketch:type="MSShapeGroup">
                <path d="M594.6,82.6 C593.9,82.6 593.3,82 593.3,81.3 L593.3,46.7 C593.3,46 593.9,45.4 594.6,45.4 C595.3,45.4 595.9,46 595.9,46.7 L595.9,81.3 C595.9,82 595.3,82.6 594.6,82.6 L594.6,82.6 Z" id="Shape" fill="#6D6E70"></path>
                <path d="M594.6,49.7 C594.6,49.7 608.2,50.8 604.9,52.7 C603.1,53.8 605.5,55.9 612.1,54.7 L612.1,68.3 L604.7,65.6 C605.6,63.6 594.6,63.5 594.6,63.5 L594.6,49.7 L594.6,49.7 Z" id="Shape" fill="#C72528"></path>
                <path d="M471.8,138.8 C471.8,138.8 481.9,119.5 492.2,119.5 C502.5,119.5 512.6,138.8 512.6,138.8 L607,314.5 L492.2,314.5 L377.5,314.5 L471.8,138.8 L471.8,138.8 Z" id="Shape" fill="#46427B"></path>
                <path d="M471.8,138.8 C471.8,138.8 481.9,119.5 492.2,119.5 L492.2,314.4 L377.5,314.4 L471.8,138.8 L471.8,138.8 Z" id="Shape" fill="#3A3572"></path>
                <path d="M571.1,103.6 C571.1,103.6 582.8,81.4 594.6,81.4 C606.4,81.4 618.1,103.6 618.1,103.6 L727,306.2 L594.6,306.2 L462.2,306.2 L571.1,103.6 L571.1,103.6 Z" id="Shape" fill="#554F94"></path>
                <path d="M594.6,81.3 C606.4,81.3 618.1,103.5 618.1,103.5 L675.1,209.7 L726.9,306.1 L594.6,306.1 C594.6,306.2 593.3,81.3 594.6,81.3 L594.6,81.3 Z" id="Shape" fill="#5D57A2"></path>
                <path d="M571.1,103.6 C571.1,103.6 582.8,81.4 594.6,81.4 C606.4,81.4 618.1,103.6 618.1,103.6 L626.9,119.9 C626.9,119.9 624.1,128 610.7,128 C597.5,128 594.6,124.2 594.6,124.2 C594.6,124.2 589.6,120.5 579.1,120.5 C565.2,120.5 560,124.4 560,124.4 L571.1,103.6 L571.1,103.6 Z" id="Shape" fill="#F2F2F2"></path>
                <path d="M594.6,81.3 C606.4,81.3 618.1,103.5 618.1,103.5 L626.9,119.8 C626.9,119.8 623.5,127.9 610.7,127.9 C597.9,127.9 594.6,124.1 594.6,124.1 L594.6,81.3 L594.6,81.3 Z" id="Shape" fill="#FFFFFF"></path>
                <g id="Group" transform="translate(0.000000, 255.000000)">
                    <path d="M620.4,43.1 C620.4,43.1 661.7,-0.1 795.8,-0.1 C795.8,-0.1 1011,1.9 1140,51.2 L1140,178 L795.8,178 L730.6,178 L628.4,94.5 L594.5,47.8 L620.4,43.1 L620.4,43.1 Z" id="Shape" fill="#89BF6B"></path>
                    <path d="M344.2,19.2 C344.2,19.2 593.5,-13.7 769.5,114.6 C769.5,114.6 795.8,133.2 833.7,178 L0,178 L0,36 C157.7,61.7 344.2,19.2 344.2,19.2 L344.2,19.2 Z" id="Shape" fill="#B2D46B"></path>
                </g>
                <path d="M653.4,308.9 C660.3,305.4 670.1,301.4 676.1,296 C676.9,295.6 679.2,293.3 680,293 C681.4,291.4 689.7,287.4 686.9,281.8 C682.3,277.3 675.7,276.2 670.1,276.9 C669,276.8 667.9,276.7 666.9,276.7 C661.7,276.4 657.6,276.6 657.6,276.6 L654.8,277.7 C660.7,277.6 665.5,277.7 669.2,278.1 C669.9,278.2 670.7,278.3 671.3,278.3 C672.9,278.9 675.8,278.7 678.4,279.5 C686,283.8 679.5,286.8 675.5,289.9 C674.6,290.5 673.2,291.5 672.3,292.1 C670.6,293.1 663.8,296.1 662.1,296.9 C659.3,297.9 658.9,298.4 656.4,300.1 C656,300.3 655.5,300.6 655,300.8 C653.6,301.5 652.3,302.2 651,303 C650,303.5 649.1,303.8 648.5,304.1 C647.6,304.5 645.5,305.9 645.5,305.9 L653.4,308.9 L653.4,308.9 Z" id="Shape" fill="#89AE64"></path>
                <g id="Group" transform="translate(687.000000, 226.000000)">
                    <rect id="Rectangle-path" fill="#C2986B" x="13" y="39" width="4.2" height="11.8"></rect>
                    <path d="M-0.3,43.5 C-0.3,43.5 13.8,0.1 15,0.1 C16.2,0.1 30.3,43.5 30.3,43.5 C30.3,44.4 23.4,45.2 15,45.2 C6.6,45.2 -0.3,44.4 -0.3,43.5 L-0.3,43.5 Z" id="Shape" fill="#8A9D81"></path>
                    <path d="M-0.3,43.5 C-0.3,43.5 13.8,0.1 15,0.1 L15,45.2 C6.6,45.2 -0.3,44.4 -0.3,43.5 L-0.3,43.5 Z" id="Shape" fill="#768C6C"></path>
                </g>
                <g id="Group" transform="translate(625.000000, 224.000000)">
                    <rect id="Rectangle-path" fill="#C2986B" x="20" y="56" width="6.1" height="17.2"></rect>
                    <path d="M0.3,63.2 C0.3,63.2 20.9,0.1 22.6,0.1 C24.3,0.1 44.9,63.2 44.9,63.2 C44.9,64.6 34.9,65.7 22.6,65.7 C10.3,65.7 0.3,64.6 0.3,63.2 L0.3,63.2 Z" id="Shape" fill="#8A9D81"></path>
                    <path d="M0.3,63.2 C0.3,63.2 20.9,0.1 22.6,0.1 L22.6,65.7 C10.3,65.7 0.3,64.6 0.3,63.2 L0.3,63.2 Z" id="Shape" fill="#768C6C"></path>
                </g>
                <g id="Group" transform="translate(696.000000, 234.000000)">
                    <rect id="Rectangle-path" fill="#C2986B" x="18" y="53" width="5.8" height="16.3"></rect>
                    <path d="M0.3,59.8 C0.3,59.8 19.8,0.1 21.4,0.1 C23,0.1 42.5,59.8 42.5,59.8 C42.5,61.1 33.1,62.1 21.4,62.1 C9.7,62.1 0.3,61.1 0.3,59.8 L0.3,59.8 Z" id="Shape" fill="#8A9D81"></path>
                    <path d="M0.3,59.8 C0.3,59.8 19.8,0.1 21.4,0.1 L21.4,62.2 C9.7,62.1 0.3,61.1 0.3,59.8 L0.3,59.8 Z" id="Shape" fill="#768C6C"></path>
                </g>
                <g id="Group" transform="translate(724.000000, 234.000000)">
                    <rect id="Rectangle-path" fill="#C2986B" x="22" y="65" width="7.1" height="19.9"></rect>
                    <path d="M-0.5,73.2 C-0.5,73.2 23.3,0.1 25.3,0.1 C27.3,0.1 51.1,73.2 51.1,73.2 C51.1,74.8 39.5,76.1 25.3,76.1 C11.1,76.1 -0.5,74.7 -0.5,73.2 L-0.5,73.2 Z" id="Shape" fill="#8A9D81"></path>
                    <path d="M-0.5,73.2 C-0.5,73.2 23.3,0.1 25.3,0.1 L25.3,76.1 C11.1,76 -0.5,74.7 -0.5,73.2 L-0.5,73.2 Z" id="Shape" fill="#768C6C"></path>
                </g>
                <path d="M356.4,361.9 C525.2,296.1 593.1,290.6 595.4,291 C602.3,292.3 615.6,296.6 615.6,296.6 C615.6,296.6 510.6,321.4 404.6,432.9 L225.6,432.9 C271,395.7 356.4,361.9 356.4,361.9 L356.4,361.9 Z" id="Shape" fill="#A1BF65"></path>
                <path d="M471.8,138.8 C471.8,138.8 481.9,119.5 492.2,119.5 C502.5,119.5 512.6,138.8 512.6,138.8 L520.2,152.9 C520.2,152.9 513.3,157.6 503.8,153.8 C499.7,152.2 497.6,154.8 492.2,156.6 C489.3,157.6 485.5,158.3 479.9,158 C467.9,157.3 464.2,153 464.2,153 L471.8,138.8 L471.8,138.8 Z" id="Shape" fill="#FFFFFF"></path>
                <path d="M471.8,138.8 C471.8,138.8 481.9,119.5 492.2,119.5 L492.2,156.6 C489.3,157.6 485.5,158.3 479.9,158 C467.9,157.3 464.2,153 464.2,153 L471.8,138.8 L471.8,138.8 Z" id="Shape" fill="#F2F2F2"></path>
                <path d="M604.7,54.2 C605.5,54.6 606.4,55.5 612.1,54.7 L612.1,68.3 C612.1,68.3 606.7,68.9 604.7,66.7 L604.7,54.2 L604.7,54.2 Z" id="Shape" fill="#EA2427"></path>
                <g id="Group" transform="translate(395.000000, 214.000000)">
                    <rect id="Rectangle-path" fill="#C2986B" x="17" y="51" width="5.5" height="15.5"></rect>
                    <path d="M-0.4,57.1 C-0.4,57.1 18.1,0.4 19.6,0.4 C21.1,0.4 39.6,57.1 39.6,57.1 C39.6,58.3 30.6,59.3 19.6,59.3 C8.6,59.3 -0.4,58.3 -0.4,57.1 L-0.4,57.1 Z" id="Shape" fill="#8A9D81"></path>
                    <path d="M-0.4,57.1 C-0.4,57.1 18.1,0.4 19.6,0.4 L19.6,59.4 C8.6,59.3 -0.4,58.3 -0.4,57.1 L-0.4,57.1 Z" id="Shape" fill="#768C6C"></path>
                </g>
                <g id="Group" transform="translate(361.000000, 207.000000)">
                    <rect id="Rectangle-path" fill="#C2986B" x="22" y="63" width="6.9" height="19.2"></rect>
                    <path d="M0.1,70.4 C0.1,70.4 23.1,-0.1 25,-0.1 C26.9,-0.1 49.9,70.4 49.9,70.4 C49.9,71.9 38.8,73.2 25,73.2 C11.3,73.2 0.1,71.9 0.1,70.4 L0.1,70.4 Z" id="Shape" fill="#8A9D81"></path>
                    <path d="M0.1,70.4 C0.1,70.4 23.1,-0.1 25,-0.1 L25,73.2 C11.3,73.2 0.1,71.9 0.1,70.4 L0.1,70.4 Z" id="Shape" fill="#768C6C"></path>
                </g>
                <g id="Group" transform="translate(42.000000, 91.000000)">
                    <path d="M142.6,24.6 L142.3,23.9 L158.2,14.7 L142.3,5.4 L142.6,4.8 L159.8,14.7 L142.6,24.6 Z" id="Shape" fill="#49494A"></path>
                    <rect id="Rectangle-path" fill="#49494A" x="159" y="14" width="18" height="0.8"></rect>
                    <path d="M218.5,7 L213,7 C213,4 210,1.5 213,1.5 C216,1.5 218.5,3.9 218.5,7 L218.5,7 Z" id="Shape" fill="#8AC1E8"></path>
                    <g transform="translate(174.000000, 2.000000)">
                        <rect id="Rectangle-path" fill="#49494A" x="55" y="13" width="2.3" height="0.5"></rect>
                        <path d="M10.2,9.6 C10.2,9.6 6.6,11.6 1.8,11.6 C1.8,11.6 -3.2,1 1.6,1 C6.3,1 10.2,4.8 10.2,9.6 L10.2,9.6 Z" id="Shape" fill="#BB5838"></path>
                        <path d="M55.7,12.9 C55.7,17.7 52.2,21.6 47,21.6 C33.8,21.6 -0.4,15.9 -0.4,12.9 C-0.4,7.3 20.6,5.3 34.7,4.6 L47.1,4.2 C51.8,4.2 55.7,8.1 55.7,12.9 L55.7,12.9 L55.7,12.9 Z" id="Shape" fill="#F2754D"></path>
                        <path d="M58.4,12.9 L57.6,12.9 L57.6,0.3 L59.7,0.3 L58.4,12.9 Z" id="Shape" fill="#49494A"></path>
                        <path d="M58.4,12.9 L57.6,12.9 L57.6,25.5 L59.7,25.5 L58.4,12.9 Z" id="Shape" fill="#252525"></path>
                        <path d="M58.6,12.9 C58.6,13.4 58.2,13.8 57.7,13.8 L57.7,12 C58.1,12 58.6,12.4 58.6,12.9 L58.6,12.9 Z" id="Shape" fill="#BB5838"></path>
                        <path d="M55.3,15.7 C54.2,19.2 51.2,21.7 47,21.7 C37.2,21.7 16,18.6 5.6,15.7 L55.3,15.7 L55.3,15.7 Z" id="Shape" fill="#BB5838"></path>
                        <path d="M52.2,13.2 C52.2,14.1 51.5,14.8 50.6,14.8 C50.6,14.8 19.3,14.1 19.3,13.2 L19.3,13.2 C19.3,12.3 50.6,11.6 50.6,11.6 C51.5,11.6 52.2,12.3 52.2,13.2 L52.2,13.2 L52.2,13.2 Z" id="Shape" fill="#BB5838"></path>
                    </g>
                    <path d="M143.1,26.7 C80.5,23.7 16.9,29 3,26.7 C-2.22044605e-15,26.2 -0.9,1.3 3,1.9 C24.8,5.4 115.3,-4.4 143.1,1.9 C143.1,1.9 145.2,26.8 143.1,26.7 L143.1,26.7 Z" id="Shape" fill="#F7F8F9"></path>
                    <g transform="translate(8.000000, 8.000000)" id="Shape" fill="#5D57A2">
                        <path d="M4.6,5.9 C3.8,5.7 4.3,4.7 3.9,3.9 C3.7,3.3 2.9,3 2.5,3.7 C2.3,4 2.1,4.7 2.1,5.1 C2,6.3 2.1,8.2 2.1,9.6 C2.1,10.1 2.1,10.5 2.2,10.8 C2.3,11.1 2.8,11.5 3.2,11.4 C3.5,11.4 3.8,10.8 3.9,10.7 C4.2,10.1 4.1,9.4 4.2,9.1 C4.2,9.1 5.1,8.8 5.6,9.2 C5.9,9.9 5.7,10.7 5.5,11.4 C5.2,12.6 4.2,13.5 2.8,13.2 C1.8,13 1.1,12.6 0.6,11.8 C0.2,10.9 0.2,9.3 0.3,7.9 C0.3,6 0.1,4.4 0.9,3.1 C1.3,2.5 2.2,1.9 3.1,2 C3.9,2.1 4.4,2.4 4.9,2.9 C5.4,3.6 5.8,4.7 5.5,6 C5.4,5.9 4.6,5.9 4.6,5.9 L4.6,5.9 Z"></path>
                        <path d="M7,5.5 C7.1,4.8 7.1,4 7.3,3.4 C7.6,2.7 8.1,2.3 8.6,2 C9.6,1.9 10.8,2 11.5,2.7 C11.9,3.1 12.3,4.2 12.4,4.9 C12.5,5.4 12.4,6 12.4,6.4 C12.4,7.3 12.5,8.1 12.4,9 C12.3,10.3 12.2,11.7 11.5,12.4 C10.6,13.5 8,12.9 7.4,12 C6.6,10.5 6.9,7.7 7,5.5 L7,5.5 Z M8.7,8.3 L8.7,9 C8.7,9.2 8.7,9.9 8.9,10.4 C9.1,11 9.3,11.7 10.1,11.4 C10.5,10.9 10.6,10.1 10.6,9.3 C10.7,7.9 10.6,7 10.5,5.9 C10.4,4.8 10.5,3.5 9.6,3.6 C8.9,3.9 9,4.9 8.9,6 C8.8,6.8 8.7,7.7 8.7,8.3 L8.7,8.3 Z"></path>
                        <path d="M19.8,12.9 C19.6,12.6 19.8,11.8 19.7,11.3 C19.7,10.8 19.8,10.1 19.8,9.7 C19.8,9.2 19.9,5.6 19.8,5.3 C19.7,5.6 18.7,10 18.7,10.4 C18.7,10.6 18.2,12.9 18.2,12.9 C17.9,13 17.2,12.9 17.2,12.9 C17,12.7 16.9,11.8 16.9,11.4 C16.7,10.4 16.5,9.4 16.3,8.5 C16.2,8 15.8,5.9 15.6,5.2 C15.6,5.7 15.7,8.9 15.6,9.5 C15.5,10.2 15.6,11.9 15.5,12.6 C15.5,13.1 14.9,13 14.6,13 C14.2,13 14,13.1 13.8,12.8 C13.7,12.7 13.8,12.2 13.8,12 C13.7,10.6 13.9,9.6 13.9,8.2 L13.9,7 C13.9,6 13.8,4.6 13.9,3.3 C13.9,2.7 13.9,2.4 14,2.1 C14.5,2.2 15.9,2 16.3,2.3 C16.6,2.8 16.6,3.9 16.9,4.5 C17,4.9 17.6,7.8 17.8,8 C18.2,6.8 18.6,3.6 19.1,2.3 C19.3,2.1 20.1,2.2 20.4,2.2 C20.8,2.2 21.3,2.1 21.5,2.4 C21.6,3.5 21.4,6.7 21.5,7.5 C21.5,7.8 21.5,11.6 21.6,12.3 L21.6,13.1 C21,13.2 19.8,12.9 19.8,12.9 L19.8,12.9 Z"></path>
                        <path d="M29,12.9 C28.8,12.6 29,11.8 28.9,11.3 C28.9,10.8 29,10.1 29,9.7 L29,5.3 C28.9,5.6 28,10 27.9,10.4 C27.9,10.6 27.4,12.9 27.4,12.9 C27.1,13 26.4,12.9 26.4,12.9 C26.2,12.7 26.1,11.8 26.1,11.4 C25.9,10.4 25.7,9.4 25.5,8.5 C25.4,8 24.9,5.9 24.8,5.3 C24.8,5.8 24.9,9 24.9,9.6 C24.8,10.3 24.9,12 24.9,12.7 C24.9,13.2 24.3,13.1 24,13.1 C23.6,13.1 23.4,13.2 23.2,12.9 C23.1,12.8 23.2,12.3 23.2,12.1 C23,10.7 23.2,9.7 23.2,8.3 L23.2,7.1 C23.2,6.1 23.1,4.7 23.1,3.4 C23.1,2.8 23.1,2.5 23.2,2.2 C23.7,2.3 25.1,2.1 25.5,2.3 C25.8,2.8 25.8,3.9 26.1,4.5 C26.3,4.9 26.8,7.7 27,8 C27.4,6.8 27.7,3.6 28.2,2.3 C28.4,2.1 29.2,2.2 29.5,2.2 C29.9,2.2 30.4,2.1 30.6,2.3 C30.8,3.4 30.6,6.6 30.6,7.4 C30.6,7.7 30.7,11.5 30.7,12.2 L30.7,13 C30.1,13.2 29,12.9 29,12.9 L29,12.9 Z"></path>
                        <path d="M33.9,2 C33.9,2.2 33.9,3.7 34,4 C34.2,6.2 34.1,9.1 34.1,11.3 L34.1,12.8 C33.9,13.2 32.6,13.1 32.4,12.9 C32.3,12.8 32.4,12.5 32.3,12.4 C32.2,11.8 32.3,11.1 32.3,10.3 C32.3,8.9 32.3,6.6 32.2,5.8 C32.1,5 32.1,2 32.1,2 C32.6,1.9 33.9,2 33.9,2 L33.9,2 Z"></path>
                        <path d="M39.2,3.7 C39,5.4 39.3,6.9 39.3,8.5 C39.4,9.4 39.3,10.3 39.4,11.3 C39.4,11.6 39.5,12.3 39.4,12.6 C39.3,12.9 37.6,12.9 37.6,12.6 C37.6,12 37.3,7 37.3,6.3 C37.3,4.6 37.3,3.9 37.2,3.6 C37,3.4 35.5,3.6 35.2,3.6 C35,3.6 34.9,1.9 35.1,1.9 C35.6,1.8 36.3,1.8 36.9,1.8 C37.1,1.8 41.1,1.7 41.2,1.7 C41.4,1.7 41.3,3.4 41.3,3.4 C41,3.6 40.1,3.5 39.2,3.7 L39.2,3.7 Z"></path>
                        <path d="M48.9,3.4 C48.8,5.1 49,6.6 49.1,8.2 C49.2,9.1 49.1,10 49.2,11 C49.2,11.3 49.4,12 49.3,12.3 C49.2,12.6 47.5,12.6 47.5,12.3 C47.4,11.7 47.1,6.7 47.1,6 C47,4.3 47.1,3.6 46.9,3.3 C46.7,3.1 45.2,3.3 44.9,3.3 C44.7,3.3 44.6,1.7 44.8,1.6 C45.3,1.5 46,1.5 46.6,1.5 C46.8,1.5 50.7,1.3 50.9,1.3 C51.1,1.3 51,3 51,3 C50.7,3.3 49.8,3.2 48.9,3.4 L48.9,3.4 Z"></path>
                        <path d="M51.8,5 C51.8,4.3 51.8,3.5 52,2.9 C52.2,2.2 52.7,1.8 53.2,1.4 C54.2,1.2 55.4,1.2 56.1,1.9 C56.6,2.3 57,3.3 57.1,4 C57.2,4.5 57.2,5.1 57.3,5.5 C57.4,6.4 57.6,7.2 57.5,8.1 C57.5,9.4 57.5,10.8 56.9,11.6 C56.1,12.7 53.5,12.4 52.8,11.5 C51.8,10 51.9,7.2 51.8,5 L51.8,5 Z M53.7,7.7 C53.7,7.9 53.8,8.2 53.8,8.3 C53.9,8.5 53.9,9.2 54.1,9.7 C54.3,10.3 54.6,11 55.3,10.6 C55.6,10.1 55.7,9.2 55.7,8.5 C55.7,7.1 55.5,6.2 55.3,5.1 C55.2,4 55.1,2.8 54.2,2.9 C53.6,3.3 53.7,4.2 53.7,5.3 L53.7,7.7 L53.7,7.7 Z"></path>
                        <path d="M65.4,2.7 C65.5,2.4 65.7,1.2 65.9,0.6 C66.4,0.5 67.1,0.4 67.6,0.5 C67.6,0.6 67.1,2.7 66.9,3.2 C66.4,4.8 66.3,5.5 65.8,6.9 C65.9,7.7 65.8,8.5 65.9,9.1 C66,9.6 66,10.9 66,11.3 C66,11.7 65.9,11.6 65.1,11.6 C64.6,11.6 64.3,11.7 64.2,11.2 C64.1,10.6 64,8.9 64,8.2 C64,7.4 63.9,7 63.9,7 C63.8,6.8 63.3,5.6 63.2,5.4 C62.6,4.3 61.3,0.9 61.4,0.9 C61.9,0.8 63.1,0.7 63.1,0.8 C63.2,1.1 63.5,1.7 63.6,2.1 C63.9,3 64.4,4.3 64.7,4.9 C65,4.3 65.2,3.4 65.4,2.7 L65.4,2.7 Z"></path>
                        <path d="M68.8,4 C68.8,3.3 68.9,2.5 69,1.9 C69.2,1.2 69.8,0.8 70.3,0.4 C71.3,0.2 72.5,0.3 73.2,0.9 C73.6,1.3 74,2.4 74.2,3.1 C74.3,3.6 74.3,4.2 74.3,4.6 C74.3,5.5 74.5,6.3 74.5,7.2 C74.5,8.5 74.4,9.9 73.8,10.6 C72.9,11.7 70.3,11.3 69.7,10.4 C68.7,8.9 68.8,6.1 68.8,4 L68.8,4 Z M70.6,6.7 C70.6,6.9 70.6,7.2 70.7,7.4 C70.8,7.6 70.8,8.3 70.9,8.8 C71.1,9.4 71.4,10.1 72.1,9.8 C72.5,9.3 72.5,8.5 72.5,7.7 C72.6,6.3 72.4,5.4 72.3,4.3 C72.2,3.2 72.1,1.9 71.2,2 C70.6,2.4 70.7,3.3 70.6,4.4 C70.7,5.1 70.6,6 70.6,6.7 L70.6,6.7 Z"></path>
                        <path d="M77.5,5 C77.5,5.5 77.6,5.8 77.6,6.3 C77.7,7.2 77.7,8 77.9,8.6 C78,9 78.2,9.5 78.9,9.5 C79.8,9.5 80,7.9 80,6.9 C80,6 79.9,5 79.9,4 C79.9,3.1 79.6,0.8 79.6,-0.1 C79.6,-0.3 80.2,-0.3 80.6,-0.3 C80.9,-0.3 81.3,-0.3 81.4,-0.1 C81.6,0.2 81.6,2.2 81.6,2.7 C81.6,3.1 81.7,3.5 81.7,3.9 C81.7,4.8 81.8,5.7 81.8,6.7 C81.8,7.8 82.1,9.1 81.1,10.1 C80.7,10.5 80.3,10.8 79.9,10.9 C77.7,11.5 76.7,10.4 76.1,8.8 C75.9,8.2 75.8,5.5 75.8,4.9 C75.7,3.3 75.7,1.3 75.7,0 C76.3,-0.1 77.3,-0.1 77.4,0 C77.5,1.6 77.4,3.4 77.5,5 L77.5,5 Z"></path>
                        <path d="M85.3,8.3 C85.3,9 85.5,10.5 85.3,10.8 C85.2,10.9 83.9,11 83.7,10.8 C83.5,10.6 83.6,8.7 83.6,8 C83.6,7.3 83.5,6.5 83.5,5.6 C83.5,4.4 83.5,1.4 83.4,0.2 C83.4,-1.42108547e-14 83.5,-1.42108547e-14 83.5,-1.42108547e-14 C83.7,-1.42108547e-14 85,-0.1 85.4,-0.1 C87.8,-0.1 89.4,0.3 89.6,2.6 C89.6,3 89.6,3.5 89.5,3.8 C89.2,4.8 88.7,5.6 87.9,6.1 C88.3,7 88.6,8.1 89,9.2 C89.2,9.8 89.4,10.2 89.5,10.7 C89.1,10.9 88.3,10.7 87.9,10.7 C87.8,10.7 87.1,8.9 86.9,8.3 C86.6,7.6 86.4,6.1 85.7,6.4 C85.3,7 85.3,7.7 85.3,8.3 L85.3,8.3 Z M87.3,2.1 C87.2,1.9 87.1,1.7 86.8,1.6 C86.3,1.5 85.8,1.4 85.2,1.5 C85.2,2.6 85.3,3.7 85.3,4.8 L86.5,4.8 C87.2,4.6 87.7,2.9 87.3,2.1 L87.3,2.1 Z"></path>
                        <path d="M97,7.1 L97,5.6 C97.1,5.6 97.7,5.5 97.8,5.5 C98,5.5 99.5,5.5 99.6,5.6 C99.6,5.6 99.7,6.3 99.7,6.9 C99.7,8 99.7,9.1 99.2,10 C98.8,10.7 98,11 97.1,11 C96.1,11 95.4,10.4 94.8,9.7 C94.2,8.9 94.2,7.1 94.2,5.7 C94.1,4.4 94.4,2.1 95,1 C95.6,-0.2 98.1,-0.5 99.1,0.6 C99.5,1 99.7,1.6 99.8,2.4 C99.8,3.1 99.9,3.5 99.7,3.9 C99.2,4.1 98.2,4 98.2,4 C97.9,3.8 98.1,2.4 97.8,1.8 C97.7,1.6 97.4,1.6 97.1,1.6 C96.1,1.6 96.4,5.8 96.4,5.8 L96.4,6.2 C96.4,7.1 96.4,8.5 96.9,9.2 C97.8,9.6 98,8.2 97.9,7.4 C97.7,6.9 97.8,7.2 97,7.1 L97,7.1 Z"></path>
                        <path d="M100.4,3.4 C100.5,2.7 100.5,1.9 100.7,1.3 C101,0.6 101.5,0.2 102,-0.1 C103,-0.2 104.2,-0.1 104.9,0.6 C105.3,1 105.7,2.1 105.8,2.8 C105.9,3.3 105.8,3.9 105.8,4.3 C105.8,5.2 105.9,6 105.8,6.9 C105.7,8.2 105.6,9.6 104.9,10.3 C104,11.4 101.4,10.9 100.8,9.9 C100,8.3 100.3,5.5 100.4,3.4 L100.4,3.4 Z M102,6.2 L102,6.9 C102,7.1 102,7.8 102.2,8.3 C102.4,8.9 102.6,9.6 103.4,9.3 C103.8,8.8 103.9,8 103.9,7.2 C104,5.8 103.9,4.9 103.8,3.8 C103.7,2.7 103.7,1.4 102.9,1.5 C102.2,1.8 102.3,2.8 102.2,3.9 C102.2,4.6 102.1,5.5 102,6.2 L102,6.2 Z"></path>
                        <path d="M111.5,2.9 C111.6,4.1 111.7,4.6 111.8,5.6 C111.9,6 111.9,6.4 111.9,6.6 C112,8 112.1,9.1 112.2,10.6 C112,11.2 110.6,10.8 110.6,10.8 C110.2,10.3 110.6,9.1 110.3,8.6 C109.7,8.5 108.9,8.5 108.5,8.5 C108.1,9.1 108.4,10.6 107.9,10.8 C107.6,11 106.5,10.8 106.5,10.8 C106.3,10.4 107,7.2 107.1,6.6 C107.2,5.9 107.3,5.3 107.5,4.7 C107.7,3.8 107.7,3.3 107.9,2.4 C108,2.2 108.4,0.4 108.5,0.1 L108.8,0.1 L109.6,0.1 C110.4,1.73611125e-14 110.7,0.1 110.9,0.3 C111.3,0.7 111.4,1.9 111.5,2.9 L111.5,2.9 Z M108.7,7 C109.2,7.1 109.9,7.1 110.2,7.1 C110.1,5.4 109.6,2 109.7,2 C109.4,2.7 109.3,3.6 109.1,4.5 C108.9,5.4 108.7,6.1 108.7,7 L108.7,7 Z"></path>
                        <path d="M118.1,9.7 C118.5,9.8 118.4,10.2 118.3,10.5 C118.3,10.8 118.3,11.3 118,11.2 C117.5,11.2 114.6,11.1 114.2,11.1 C113.6,11 113.2,11 113.2,11 C113.2,9.7 113.3,8.4 113.3,7.1 C113.4,5.4 113.5,2.5 113.5,2.5 C113.5,2.5 113.5,0.9 113.6,0.2 C113.9,-0.1 115.3,2.76167977e-14 115.4,0.2 C115.6,0.4 115.4,1.5 115.4,1.9 C115.4,2.8 115.3,4.1 115.2,5.3 C115.1,6.9 115,8 115,9.5 C115.6,9.7 117.4,9.5 118.1,9.7 L118.1,9.7 Z"></path>
                        <path d="M121.5,2.7 C121.4,3.1 121.3,4.1 121.7,4.8 C122,5.3 122.4,5.5 122.8,5.9 C123.1,6.2 123.5,6.6 123.7,6.9 C124.2,7.6 124.3,8.5 124,9.6 C123.8,10.4 123.5,10.9 123,11.4 C122.8,11.6 122.6,11.7 122.3,11.7 C121.4,12 120.4,11.5 119.9,11.1 C119.7,10.9 119.4,10.5 119.3,10.3 C119,9.6 118.9,8.4 119.2,7.8 C119.3,7.7 119.6,7.7 119.9,7.7 C120.2,7.7 120.6,7.7 120.6,7.8 C120.9,8.4 120.5,9.6 121.1,10 C121.9,10.6 122.4,8.7 122.2,8 C122.1,7.5 121.5,7.1 121.1,6.8 C120.9,6.7 120.7,6.4 120.5,6.2 C120.3,6 120,5.8 119.9,5.6 C119.5,5 119.4,3.9 119.4,3.1 C119.4,2.5 119.6,1.9 119.9,1.5 C120,1.3 120.4,0.8 120.7,0.6 C121.8,-0.1 123.6,0.3 124.2,1.5 C124.4,1.8 124.4,2.2 124.4,2.7 C124.4,3.2 124.3,4.4 124.3,4.4 C124.2,4.6 122.8,4.5 122.8,4.3 C122.7,3.7 123,2.6 122.4,2 C122.3,1.7 121.6,2.2 121.5,2.7 L121.5,2.7 Z"></path>
                        <path d="M125.3,11.7 C125,11.2 125.3,10.2 125.6,10 C125.8,9.9 127.3,10 127.3,10.2 C127.4,10.6 127.4,11.4 127.2,11.7 C127.1,11.9 126.6,11.8 126.2,11.8 C125.8,11.8 125.4,11.9 125.3,11.7 L125.3,11.7 Z M126.4,1.2 C126.7,0.9 128,1.2 128.3,1.4 C128.7,1.6 127.9,3 127.9,3.4 C127.9,3.7 127.7,4.5 127.7,5.1 C127.7,5.4 127.6,6.2 127.6,6.5 C127.4,7.7 127.3,8.5 127.2,8.8 C126.3,9 126.2,9.1 126,8.6 C126.2,7 125.9,5.4 126.2,3.6 C126.3,3.3 126,1.6 126.4,1.2 L126.4,1.2 Z"></path>
                    </g>
                </g>
                <path d="M78.7,27.5 C86.1,27.5 92,33.5 92,40.8 C92,48.1 86,54.1 78.7,54.1 L38,54.1 C32.1,54.1 27.4,49.3 27.4,43.5 C27.4,37.7 32.2,32.9 38,32.9 C38.5,32.9 39,32.9 39.5,33 L39.5,33 C40.9,24.4 48.4,17.8 57.4,17.8 C64.7,17.8 71,22.1 73.9,28.3 C74,28.3 75.5,27.5 78.7,27.5 L78.7,27.5 Z" id="Shape" fill="#FFFFFF"></path>
                <path d="M1050.4,9.3 C1057.8,9.3 1063.7,15.3 1063.7,22.6 C1063.7,29.9 1057.7,35.9 1050.4,35.9 L1009.7,35.9 C1003.8,35.9 999.1,31.1 999.1,25.3 C999.1,19.5 1003.9,14.7 1009.7,14.7 C1010.2,14.7 1010.7,14.7 1011.2,14.8 L1011.2,14.8 C1012.6,6.2 1020.1,-0.4 1029.1,-0.4 C1036.4,-0.4 1042.7,3.9 1045.6,10.1 C1045.6,10.2 1047.1,9.3 1050.4,9.3 L1050.4,9.3 Z" id="Shape" fill="#FFFFFF"></path>
                <path d="M843.6,56.3 C854,56.3 862.5,64.8 862.5,75.2 C862.5,85.6 854,94.1 843.6,94.1 L786,94.1 C777.7,94.1 770.9,87.4 770.9,79 C770.9,70.6 777.6,63.9 786,63.9 C786.7,63.9 787.5,64 788.2,64.1 L788.2,64.1 C790.2,51.9 800.8,42.6 813.6,42.6 C824,42.6 832.9,48.7 837,57.5 C836.9,57.4 839,56.2 843.6,56.3 L843.6,56.3 Z" id="Shape" fill="#FFFFFF"></path>
            </g>
        </g>
    </g>
</svg>