<?xml version="1.0" encoding="UTF-8" standalone="no"?>
<svg width="1140px" height="450px" viewBox="0 0 1140 450" version="1.1" xmlns="http://www.w3.org/2000/svg" xmlns:xlink="http://www.w3.org/1999/xlink" xmlns:sketch="http://www.bohemiancoding.com/sketch/ns">
    <!-- Generator: Sketch 3.0.3 (7891) - http://www.bohemiancoding.com/sketch -->
    <title>optimism</title>
    <desc>Created with Sketch.</desc>
    <defs></defs>
    <g id="SVGs" stroke="none" stroke-width="1" fill="none" fill-rule="evenodd" sketch:type="MSPage">
        <g id="optimism" sketch:type="MSLayerGroup">
            <g id="Background" fill="#99D6D8" sketch:type="MSShapeGroup">
                <rect id="Rectangle-path" x="0" y="0" width="1140" height="450"></rect>
            </g>
            <g id="Layer_3" transform="translate(0.000000, 29.000000)" sketch:type="MSShapeGroup">
                <rect id="Rectangle-path" fill="#D5D5D5" x="75" y="252" width="218.5" height="20.2"></rect>
                <rect id="Rectangle-path" fill="#B2A282" x="0" y="277" width="1140" height="143.7"></rect>
                <g id="Group" transform="translate(514.000000, 177.000000)">
                    <g id="Shape">
                        <path d="M53.7,73.6 L53.9,73.6 C54.4,73.4 54.7,72.9 54.5,72.4 C52.3,65.2 39.1,59.5 38.6,59.3 C38.1,59.1 37.6,59.3 37.4,59.8 C37.2,60.3 37.4,60.8 37.9,61 C38,61.1 50.8,66.6 52.8,73 C52.9,73.3 53.3,73.6 53.7,73.6 L53.7,73.6 Z" fill="#32A349"></path>
                        <g transform="translate(0.000000, 53.000000)">
                            <path d="M29.9,25.5 C39.1,22.6 44.8,14.9 42.7,8.3 C40.6,1.7 31.5,-1.3 22.3,1.6 C13.1,4.5 -0.1,21.9 -0.1,21.9 C-0.1,21.9 20.7,28.4 29.9,25.5 L29.9,25.5 Z" fill="#39B24A"></path>
                            <path d="M29.9,25.5 C39.1,22.6 44.8,14.9 42.7,8.3 L-0.1,21.8 C-0.1,21.8 20.7,28.4 29.9,25.5 L29.9,25.5 Z" fill="#32A349"></path>
                        </g>
                        <path d="M55.5,69.7 C57,69.7 58.3,68.5 58.3,66.9 C58.4,60.1 65,52.4 67.5,50 C68.6,48.9 68.7,47.2 67.6,46 C66.5,44.9 64.8,44.8 63.6,45.9 C63.2,46.3 52.7,56.3 52.6,66.9 C52.7,68.4 54,69.7 55.5,69.7 L55.5,69.7 L55.5,69.7 Z" fill="#32A349"></path>
                        <g transform="translate(64.000000, 25.000000)">
                            <path d="M10.5,38.2 C0.8,32.8 -2.7,20.5 2.7,10.8 C8.1,1.1 20.4,-2.4 30.1,3 C39.8,8.4 48.1,36 48.1,36 C48.1,36 20.2,43.6 10.5,38.2 L10.5,38.2 Z" fill="#32A349"></path>
                            <path d="M10.5,38.2 C0.8,32.8 -2.7,20.5 2.7,10.8 L48.1,36 C48.1,36 20.2,43.6 10.5,38.2 L10.5,38.2 Z" fill="#2A9546"></path>
                        </g>
                        <path d="M55.4,93.5 C56.9,93.5 58.2,92.3 58.2,90.8 C58.3,88.8 59.4,48.8 55.2,26 C54.5,22.4 51.9,17.3 50.9,14.7 C50.3,13.3 48.7,12.5 47.3,13.1 C45.9,13.7 44.9,15.4 45.7,16.7 C50.9,26 53,45.1 52.1,68.2 C51.6,80.7 52.7,90.4 52.7,90.6 C52.5,92.2 53.7,93.5 55.4,93.5 C55.3,93.5 55.3,93.5 55.4,93.5 L55.4,93.5 Z" fill="#32A349"></path>
                        <g transform="translate(19.000000, 0.000000)">
                            <path d="M16,24.5 C22.8,26.5 29.9,22.6 31.8,16 C33.7,9.3 29.7,2.3 22.9,0.4 C16.1,-1.5 -0.1,6.9 -0.1,6.9 C-0.1,6.9 9.2,22.5 16,24.5 L16,24.5 Z" fill="#39B24A"></path>
                            <path d="M16,24.5 C22.8,26.5 29.9,22.6 31.8,16 L-0.1,6.9 C-1.13686838e-13,6.8 9.2,22.5 16,24.5 L16,24.5 Z" fill="#32A349"></path>
                        </g>
                    </g>
                    <path d="M50.8,88.9 C51.9,88.4 53.1,88.1 54.3,87.9 C68.1,88.4 75.5,104.7 83.1,114 C83.5,115.3 83.6,116 83.9,117.3 L54.3,117.3 L30.4,117.3 C31.6,114.5 41.1,93.1 50.8,88.9 L50.8,88.9 Z" id="Shape" fill="#716558"></path>
                    <path d="M58.7,88.6 C69.6,91.8 76.1,105.1 82.8,113.5 C83.1,113.9 83.3,114.3 83.4,114.7 C83.6,115.6 83.8,116.4 84,117.3 L54.4,117.3 L54.4,91.9 L54.4,87.9 C55.8,87.7 57.5,88.3 58.7,88.6 L58.7,88.6 Z" id="Shape" fill="#655B4F"></path>
                </g>
                <path d="M716.1,43 L537.3,294.3 L603.7,294.3 L716.1,43 Z" id="Shape" opacity="0.5" fill="#FDF0C9"></path>
                <path d="M552.7,38.2 C559.4,38.2 564.8,43.6 564.8,50.3 C564.8,57 559.4,62.4 552.7,62.4 L515.8,62.4 C510.5,62.4 506.1,58.1 506.1,52.7 C506.1,47.4 510.4,43 515.8,43 C516.3,43 516.7,43 517.2,43.1 L517.2,43.1 C518.5,35.3 525.3,29.3 533.5,29.3 C540.1,29.3 545.9,33.2 548.5,38.9 C548.4,39 549.7,38.2 552.7,38.2 L552.7,38.2 Z" id="Shape" fill="#F1F1F2"></path>
                <circle id="Oval" fill="#FDF060" cx="716" cy="43" r="43"></circle>
                <path d="M802.4,63.4 C817.9,63.4 830.5,76 830.5,91.5 C830.5,107 817.9,119.6 802.4,119.6 L716.8,119.6 C704.4,119.6 694.4,109.6 694.4,97.2 C694.4,84.8 704.4,74.8 716.8,74.8 C717.9,74.8 719,74.9 720,75 L720,75 C723,56.9 738.7,43 757.7,43 C773.1,43 786.3,52.1 792.4,65.1 C792.5,65.2 795.6,63.3 802.4,63.4 L802.4,63.4 Z" id="Shape" fill="#F1F1F2"></path>
                <g id="Group" transform="translate(529.000000, 15.000000)" fill="#808184">
                    <circle id="Oval" cx="19.1" cy="57.1" r="19.1"></circle>
                    <g transform="translate(17.000000, 0.000000)">
                        <path d="M44.7,41.5 C47.3,40.1 50.3,39.3 53.5,39.3 C54.4,39.3 55.3,39.4 56.2,39.5 C58.7,24.4 71.9,12.8 87.7,12.8 C100.5,12.8 111.6,20.4 116.7,31.3 C116.7,31.3 119.3,29.8 125,29.8 C137.9,29.8 148.4,40.3 148.4,53.2 C148.4,66.1 138,76.6 125,76.6 L53.5,76.6 L2,76.6" id="Shape"></path>
                        <circle id="Oval" cx="59.7" cy="29.7" r="29.7"></circle>
                        <circle id="Oval" cx="26.9" cy="44.9" r="26.9"></circle>
                    </g>
                </g>
                <rect id="Rectangle-path" fill="#D5D5D5" x="75" y="202" width="218.5" height="20.2"></rect>
                <rect id="Rectangle-path" fill="#C6C6C6" x="75" y="212" width="218.5" height="10.1"></rect>
                <rect id="Rectangle-path" fill="#C6C6C6" x="75" y="263" width="218.5" height="10.1"></rect>
                <g id="Group" transform="translate(255.000000, 165.000000)">
                    <path d="M32.1,29 C32.1,25.2 18.8,-0.4 16.1,-0.4 C13.3,-0.4 0.1,25.1 0.1,29 L0.1,131.2 L32.2,131.2 C32.1,131.3 32.1,32.9 32.1,29 L32.1,29 Z" id="Shape" fill="#F7F8F9"></path>
                    <path d="M16,-0.4 C13.2,-0.4 0,25.1 0,29 L0,131.2 L16,131.2 L16,-0.4 L16,-0.4 Z" id="Shape" fill="#E8E8E8"></path>
                </g>
                <g id="Group" transform="translate(79.000000, 165.000000)">
                    <path d="M32.1,29 C32.1,25.2 18.8,-0.4 16.1,-0.4 C13.4,-0.4 0,25.2 0,29 L0,131.2 L32.1,131.2 C32.1,131.3 32.1,32.9 32.1,29 L32.1,29 Z" id="Shape" fill="#F7F8F9"></path>
                    <path d="M16,-0.4 C13.2,-0.4 0,25.1 0,29 L0,131.2 L16,131.2 L16,-0.4 L16,-0.4 Z" id="Shape" fill="#E8E8E8"></path>
                </g>
                <g id="Group" transform="translate(138.000000, 165.000000)">
                    <path d="M31.7,29 C31.7,25.2 18.4,-0.4 15.7,-0.4 C13,-0.4 -0.3,25.1 -0.3,29 L-0.3,131.2 L31.8,131.2 C31.7,131.3 31.7,32.9 31.7,29 L31.7,29 Z" id="Shape" fill="#F7F8F9"></path>
                    <path d="M15.7,-0.4 C12.9,-0.4 -0.3,25.1 -0.3,29 L-0.3,131.2 L15.7,131.2 L15.7,-0.4 L15.7,-0.4 Z" id="Shape" fill="#E8E8E8"></path>
                </g>
                <g id="Group" transform="translate(196.000000, 165.000000)">
                    <path d="M32.4,29 C32.4,25.2 19.1,-0.4 16.4,-0.4 C13.6,-0.4 0.4,25.1 0.4,29 L0.4,131.2 L32.5,131.2 C32.4,131.3 32.4,32.9 32.4,29 L32.4,29 Z" id="Shape" fill="#F7F8F9"></path>
                    <path d="M16.4,-0.4 C13.6,-0.4 0.4,25.1 0.4,29 L0.4,131.2 L16.4,131.2 L16.4,-0.4 L16.4,-0.4 Z" id="Shape" fill="#E8E8E8"></path>
                </g>
                <g id="Group" transform="translate(61.000000, 283.000000)">
                    <g transform="translate(21.000000, 25.000000)" id="Shape" fill="#009245">
                        <path d="M16.2,24.7 C23,26.7 30.1,22.8 32,16.2 C33.9,9.5 29.9,2.5 23.1,0.6 C16.3,-1.3 0.1,7.1 0.1,7.1 C0.1,7.1 9.3,22.7 16.2,24.7 L16.2,24.7 Z"></path>
                        <path d="M16.2,24.7 C23,26.7 30.1,22.8 32,16.2 L0.1,7 C0.1,7 9.3,22.7 16.2,24.7 L16.2,24.7 Z"></path>
                    </g>
                    <g transform="translate(0.000000, 21.000000)" id="Shape">
                        <path d="M16.1,24.1 C22.9,26.1 30,22.2 31.9,15.6 C33.8,9 29.8,1.9 23,-7.74935671e-14 C16.2,-2 -1.42108547e-14,6.5 -1.42108547e-14,6.5 C-1.42108547e-14,6.5 9.3,22.2 16.1,24.1 L16.1,24.1 Z" fill="#39B24A"></path>
                        <path d="M16.1,24.1 C22.9,26.1 30,22.2 31.9,15.6 L-2.13162821e-14,6.5 C0.1,6.4 9.3,22.2 16.1,24.1 L16.1,24.1 Z" fill="#32A349"></path>
                    </g>
                    <g transform="translate(14.000000, 8.000000)" id="Shape">
                        <path d="M6.8,22.8 C12.1,27.5 20.2,27.1 24.8,21.9 C29.4,16.7 28.8,8.7 23.5,4 C18.2,-0.7 0,1.14575016e-13 0,1.14575016e-13 C0,1.14575016e-13 1.4,18.1 6.8,22.8 L6.8,22.8 Z" fill="#39B24A"></path>
                        <path d="M6.8,22.8 C12.1,27.5 20.2,27.1 24.8,21.9 L-0.2,0 C-0.2,0 1.4,18.1 6.8,22.8 L6.8,22.8 Z" fill="#32A349"></path>
                    </g>
                    <g transform="translate(37.000000, 0.000000)" id="Shape">
                        <path d="M24.6,25.6 C19.8,31.4 11.2,32.2 5.4,27.4 C-0.4,22.6 -1.2,14 3.6,8.2 C8.4,2.4 27.8,0.4 27.8,0.4 C27.8,0.4 29.4,19.8 24.6,25.6 L24.6,25.6 Z" fill="#32A349"></path>
                        <path d="M24.6,25.6 C19.8,31.4 11.2,32.2 5.4,27.4 L27.9,0.4 C27.9,0.3 29.4,19.8 24.6,25.6 L24.6,25.6 Z" fill="#2A9546"></path>
                    </g>
                    <g transform="translate(48.000000, 15.000000)" id="Shape">
                        <path d="M12.7,23.9 C6.2,24.3 0.6,19.5 0.1,13 C-0.3,6.5 4.5,0.9 11,0.4 C17.5,7.22200078e-14 30.3,10.9 30.3,10.9 C30.3,10.9 19.2,23.4 12.7,23.9 L12.7,23.9 Z" fill="#32A349"></path>
                        <path d="M12.7,23.9 C6.2,24.3 0.6,19.5 0.1,13 L30.4,10.9 C30.4,10.8 19.2,23.4 12.7,23.9 L12.7,23.9 Z" fill="#2A9546"></path>
                    </g>
                    <g transform="translate(10.000000, 30.000000)" id="Shape">
                        <path d="M23,24.6 C29.9,22.7 33.9,15.8 32.1,9.1 C30.3,2.4 23.2,-1.5 16.3,0.4 C9.4,2.3 0.1,17.9 0.1,17.9 C0.1,17.9 16.1,26.5 23,24.6 L23,24.6 Z" fill="#39B24A"></path>
                        <path d="M23,24.6 C29.9,22.7 33.9,15.8 32.1,9.1 L0.1,17.9 C0.1,17.9 16.1,26.5 23,24.6 L23,24.6 Z" fill="#32A349"></path>
                    </g>
                    <g transform="translate(40.000000, 29.000000)" id="Shape">
                        <path d="M10,26.7 C2.7,24.8 -1.7,17.3 0.2,10.1 C2.1,2.8 9.6,-1.6 16.8,0.3 C24.1,2.2 34.2,18.9 34.2,18.9 C34.2,18.9 17.3,28.6 10,26.7 L10,26.7 Z" fill="#32A349"></path>
                        <path d="M10,26.7 C2.7,24.8 -1.7,17.3 0.2,10.1 L34.2,19 C34.3,18.9 17.3,28.6 10,26.7 L10,26.7 Z" fill="#2A9546"></path>
                    </g>
                </g>
                <g id="Group" transform="translate(145.000000, 287.000000)">
                    <g transform="translate(22.000000, 21.000000)" id="Shape" fill="#009245">
                        <path d="M16.2,24.7 C23,26.7 30.1,22.8 32,16.2 C33.9,9.6 29.9,2.5 23.1,0.6 C16.3,-1.4 0.1,7.1 0.1,7.1 C0.1,7.1 9.4,22.7 16.2,24.7 L16.2,24.7 Z"></path>
                        <path d="M16.2,24.7 C23,26.7 30.1,22.8 32,16.2 L0.1,7.1 C0.2,7 9.4,22.7 16.2,24.7 L16.2,24.7 Z"></path>
                    </g>
                    <g transform="translate(0.000000, 16.000000)" id="Shape">
                        <path d="M21.2,24.9 C28.3,24.4 33.6,18.3 33.1,11.4 C32.6,4.5 26.4,-0.7 19.3,-0.2 C12.2,0.3 -2.84217094e-14,13.9 -2.84217094e-14,13.9 C-2.84217094e-14,13.9 14.1,25.4 21.2,24.9 L21.2,24.9 Z" fill="#39B24A"></path>
                        <path d="M21.2,24.9 C28.3,24.4 33.6,18.3 33.1,11.4 L0,13.9 C0,13.9 14.1,25.4 21.2,24.9 L21.2,24.9 Z" fill="#32A349"></path>
                    </g>
                    <g transform="translate(18.000000, 8.000000)" id="Shape">
                        <path d="M6.4,19.5 C11,23.6 18,23.2 21.9,18.7 C25.8,14.2 25.3,7.3 20.7,3.2 C16.1,-0.9 0.4,-0.2 0.4,-0.2 C0.4,-0.2 1.8,15.5 6.4,19.5 L6.4,19.5 Z" fill="#39B24A"></path>
                        <path d="M6.4,19.5 C11,23.6 18,23.2 21.9,18.7 L0.4,-0.2 C0.4,-0.2 1.8,15.5 6.4,19.5 L6.4,19.5 Z" fill="#32A349"></path>
                    </g>
                    <g transform="translate(39.000000, 0.000000)" id="Shape">
                        <path d="M20.1,19.5 C17.4,24.8 11,26.9 5.7,24.2 C0.4,21.5 -1.7,15.1 1,9.8 C3.7,4.5 18.2,-0.4 18.2,-0.4 C18.2,-0.4 22.8,14.2 20.1,19.5 L20.1,19.5 Z" fill="#32A349"></path>
                        <path d="M20.1,19.5 C17.4,24.8 11,26.9 5.7,24.2 L18.2,-0.4 C18.2,-0.4 22.8,14.2 20.1,19.5 L20.1,19.5 Z" fill="#2A9546"></path>
                    </g>
                    <g transform="translate(47.000000, 14.000000)" id="Shape">
                        <path d="M10.3,18.5 C5.1,18.9 0.6,15 0.3,9.8 C-0.1,4.6 3.8,0.1 9,-0.2 C14.2,-0.5 24.4,8.2 24.4,8.2 C24.4,8.2 15.5,18.2 10.3,18.5 L10.3,18.5 Z" fill="#32A349"></path>
                        <path d="M10.3,18.5 C5.1,18.9 0.6,15 0.3,9.8 L24.5,8.1 C24.4,8.1 15.5,18.2 10.3,18.5 L10.3,18.5 Z" fill="#2A9546"></path>
                    </g>
                    <g transform="translate(11.000000, 26.000000)" id="Shape">
                        <path d="M21.5,25.2 C28.6,24.3 33.5,18 32.7,11.1 C31.9,4.2 25.4,-0.6 18.3,0.3 C11.2,1.2 -0.2,15.4 -0.2,15.4 C-0.2,15.4 14.5,26.1 21.5,25.2 L21.5,25.2 Z" fill="#39B24A"></path>
                        <path d="M21.5,25.2 C28.6,24.3 33.5,18 32.7,11.1 L-0.2,15.4 C-0.2,15.3 14.5,26.1 21.5,25.2 L21.5,25.2 Z" fill="#32A349"></path>
                    </g>
                    <g transform="translate(41.000000, 25.000000)" id="Shape">
                        <path d="M11.1,24.8 C4.4,24.2 -0.6,18.3 7.10542736e-15,11.5 C0.6,4.7 6.5,-0.2 13.3,0.4 C20,1 31.4,14.3 31.4,14.3 C31.4,14.3 17.8,25.4 11.1,24.8 L11.1,24.8 Z" fill="#32A349"></path>
                        <path d="M11.1,24.8 C4.4,24.2 -0.6,18.3 7.10542736e-15,11.5 L31.4,14.3 C31.4,14.3 17.8,25.4 11.1,24.8 L11.1,24.8 Z" fill="#2A9546"></path>
                    </g>
                </g>
                <path d="M1140,277.3 L1140,421 L948.4,421 C887.7,421 823.5,375.3 823.5,333.2 C823.5,291.1 848.9,277.7 865,275.5 L1140,277.3 L1140,277.3 Z" id="Shape" fill="#89BF6B"></path>
                <g id="Group" transform="translate(777.000000, 191.000000)">
                    <g>
                        <path d="M100.7,112.9 C100.7,115.9 98.3,118.4 95.2,118.4 L33,118.4 C30,118.4 27.5,116 27.5,112.9 L27.5,45.5 L100.7,45.5 L100.7,112.9 L100.7,112.9 Z" id="Shape" fill="#E8E8E8"></path>
                        <rect id="Rectangle-path" fill="#E8E8E8" transform="translate(124.010150, 72.805550) rotate(45.000000) translate(-124.010150, -72.805550) " x="119.510193" y="26.8059911" width="8.69991657" height="91.4991225"></rect>
                        <path d="M173,49.6 L173,49.6 C171.2,51.4 168.2,51.4 166.4,49.6 L156.2,39.4 L146,29.1 C144.2,27.3 144.2,24.3 146,22.5 L146,22.5 C147.8,20.7 174.8,47.8 173,49.6 L173,49.6 Z" id="Shape" fill="#F7F8F9"></path>
                        <path d="M145.6,28.7 C145.6,28.7 153.3,37.5 146.4,44.4 L153.9,36.9 L145.6,28.7 L145.6,28.7 Z" id="Shape" fill="#E8E8E8"></path>
                        <path d="M145.6,28.7 C145.6,28.7 153.3,37.5 146.4,44.4 L153.9,36.9 L145.6,28.7 L145.6,28.7 Z" id="Shape" fill="#E8E8E8"></path>
                        <path d="M151.7,51 C151.7,51 159.8,42.9 166.7,49.9 L159.7,43 L151.7,51 L151.7,51 Z" id="Shape" fill="#D5D5D5"></path>
                        <path d="M104.8,43.3 C104.8,44.5 103.8,45.4 102.7,45.4 L25.7,45.4 C24.5,45.4 23.6,44.4 23.6,43.3 L23.6,43.3 C23.6,42.1 24.6,41.2 25.7,41.2 L102.7,41.2 C103.8,41.2 104.8,42.1 104.8,43.3 L104.8,43.3 L104.8,43.3 Z" id="Shape" fill="#E8E8E8"></path>
                        <path d="M26.2,90.9 C26.1,90.8 17.2,77.4 9.8,62.4 C-0.4,41.8 -2.9,28 2.3,21.4 C14.3,6.1 47.4,0.4 65.4,0.4 C74.5,0.4 82.8,3.3 88.9,8.6 C94.7,13.6 98,20.4 98,27.2 L98,41.1 L94.7,41.1 L94.7,27.2 C94.7,15.9 83.5,3.7 65.3,3.7 C55,3.7 42.6,5.4 32.2,8.4 C19.2,12 9.7,17.3 4.8,23.5 C-4,34.7 19.2,74.6 28.9,89.1 L26.2,90.9 L26.2,90.9 Z" id="Shape" fill="#E8E8E8"></path>
                        <path d="M100.7,112.9 C100.7,115.9 98.3,118.4 95.2,118.4 L33,118.4 C30,118.4 27.5,116 27.5,112.9 L100.7,45.5 L100.7,112.9 L100.7,112.9 Z" id="Shape" fill="#D5D5D5"></path>
                        <path d="M103.3,74.5 C103.3,75.7 102.3,76.6 101.2,76.6 L27.2,76.6 C26,76.6 25.1,75.6 25.1,74.5 L25.1,74.5 C25.1,73.3 26.1,72.4 27.2,72.4 L101.2,72.4 C102.3,72.3 103.3,73.3 103.3,74.5 L103.3,74.5 L103.3,74.5 Z" id="Shape" fill="#F7F8F9"></path>
                        <path d="M103.3,74.5 C103.3,75.7 102.3,76.6 101.2,76.6 L66.9,76.6 L71.5,72.3 L101.2,72.3 C102.3,72.3 103.3,73.3 103.3,74.5 L103.3,74.5 L103.3,74.5 Z" id="Shape" fill="#E8E8E8"></path>
                        <rect id="Rectangle-path" fill="#D5D5D5" transform="translate(125.908400, 73.933600) rotate(45.000000) translate(-125.908400, -73.933600) " x="123.908419" y="27.9340411" width="4.3999578" height="91.4991225"></rect>
                    </g>
                    <path d="M172.5,47.9 C172.5,47.9 172.5,49.5 171.3,51.3 C170.1,53.1 170.1,55.8 172.8,55.8 C175.5,55.8 174.5,52.8 174.5,52.8 C174.5,52.8 174.4,51 172.5,47.9 L172.5,47.9 Z" id="Shape" fill="#5CB4FF"></path>
                </g>
                <g id="Group" transform="translate(232.000000, 275.000000)">
                    <g transform="translate(21.000000, 33.000000)" id="Shape" fill="#009245">
                        <path d="M15.7,24.7 C22.5,26.7 29.6,22.8 31.5,16.2 C33.4,9.6 29.4,2.5 22.6,0.6 C15.8,-1.4 -0.4,7.1 -0.4,7.1 C-0.4,7.1 8.9,22.7 15.7,24.7 L15.7,24.7 Z"></path>
                        <path d="M15.7,24.7 C22.5,26.7 29.6,22.8 31.5,16.2 L-0.4,7.1 C-0.3,7 8.9,22.7 15.7,24.7 L15.7,24.7 Z"></path>
                    </g>
                    <g transform="translate(0.000000, 29.000000)" id="Shape">
                        <path d="M15.7,24.1 C22.5,26.1 29.6,22.2 31.5,15.6 C33.4,9 29.4,1.9 22.6,-7.74935671e-14 C15.8,-2 -0.4,6.5 -0.4,6.5 C-0.4,6.5 8.8,22.2 15.7,24.1 L15.7,24.1 Z" fill="#39B24A"></path>
                        <path d="M15.7,24.1 C22.5,26.1 29.6,22.2 31.5,15.6 L-0.4,6.5 C-0.4,6.4 8.8,22.2 15.7,24.1 L15.7,24.1 Z" fill="#32A349"></path>
                    </g>
                    <g transform="translate(13.000000, 16.000000)" id="Shape">
                        <path d="M7.3,22.8 C12.6,27.5 20.7,27.1 25.3,21.9 C29.9,16.7 29.3,8.7 24,4 C18.7,-0.7 0.5,1.14575016e-13 0.5,1.14575016e-13 C0.5,1.14575016e-13 1.9,18.1 7.3,22.8 L7.3,22.8 Z" fill="#39B24A"></path>
                        <path d="M7.3,22.8 C12.6,27.5 20.7,27.1 25.3,21.9 L0.4,0 C0.4,0 1.9,18.1 7.3,22.8 L7.3,22.8 Z" fill="#32A349"></path>
                    </g>
                    <g transform="translate(32.000000, 0.000000)" id="Shape">
                        <path d="M26.9,24.5 C25.2,31.8 17.9,36.4 10.5,34.7 C3.2,33 -1.4,25.7 0.3,18.3 C2,11 18.4,0.4 18.4,0.4 C18.4,0.4 28.6,17.2 26.9,24.5 L26.9,24.5 Z" fill="#32A349"></path>
                        <path d="M26.9,24.5 C25.2,31.8 17.9,36.4 10.5,34.7 L18.4,0.5 C18.4,0.5 28.6,17.2 26.9,24.5 L26.9,24.5 Z" fill="#2A9546"></path>
                    </g>
                    <g transform="translate(48.000000, 23.000000)" id="Shape">
                        <path d="M12.2,23.9 C5.7,24.3 0.1,19.5 -0.4,13 C-0.9,6.5 4,0.9 10.5,0.4 C17,7.22200078e-14 29.8,10.9 29.8,10.9 C29.8,10.9 18.7,23.4 12.2,23.9 L12.2,23.9 Z" fill="#32A349"></path>
                        <path d="M12.2,23.9 C5.7,24.3 0.1,19.5 -0.4,13 L29.9,10.9 C29.9,10.8 18.7,23.4 12.2,23.9 L12.2,23.9 Z" fill="#2A9546"></path>
                    </g>
                    <g transform="translate(10.000000, 38.000000)" id="Shape">
                        <path d="M22.5,24.6 C29.4,22.7 33.4,15.8 31.6,9.1 C29.8,2.4 22.7,-1.5 15.8,0.4 C8.9,2.3 -0.4,17.9 -0.4,17.9 C-0.4,17.9 15.6,26.5 22.5,24.6 L22.5,24.6 Z" fill="#39B24A"></path>
                        <path d="M22.5,24.6 C29.4,22.7 33.4,15.8 31.6,9.1 L-0.4,17.9 C-0.4,17.9 15.6,26.5 22.5,24.6 L22.5,24.6 Z" fill="#32A349"></path>
                    </g>
                    <g transform="translate(39.000000, 37.000000)" id="Shape">
                        <path d="M10.6,26.7 C3.3,24.8 -1.1,17.3 0.8,10.1 C2.7,2.8 10.2,-1.6 17.4,0.3 C24.7,2.2 34.8,18.9 34.8,18.9 C34.8,18.9 17.9,28.6 10.6,26.7 L10.6,26.7 Z" fill="#32A349"></path>
                        <path d="M10.6,26.7 C3.3,24.8 -1.1,17.3 0.8,10.1 L34.8,19 C34.8,18.9 17.9,28.6 10.6,26.7 L10.6,26.7 Z" fill="#2A9546"></path>
                    </g>
                </g>
                <g id="Group" transform="translate(383.000000, 262.000000)">
                    <path d="M19.6,115.1 C7.5,116.3 2.7,72.2 2.7,72.2 C2.6,70.8 3.6,69.6 4.9,69.5 L25.5,67.4 C26.9,67.3 28.1,68.3 28.2,69.6 C28.2,69.6 31.6,113.8 19.6,115.1 L19.6,115.1 Z" id="Shape" fill="#C6C6C6"></path>
                    <rect id="Rectangle-path" fill="#E8E8E8" transform="translate(13.526150, 49.470050) rotate(-5.773878) translate(-13.526150, -49.470050) " x="10.0262439" y="45.9701439" width="6.89981497" height="6.89981497"></rect>
                    <rect id="Rectangle-path" fill="#D5D5D5" transform="translate(13.961000, 61.046900) rotate(-5.773878) translate(-13.961000, -61.046900) " x="12.9610268" y="52.0471413" width="2.19994101" height="17.599528"></rect>
                    <path d="M20.4,40.7 C20.6,43 18.9,45.1 16.6,45.3 L9,46.1 C6.7,46.3 4.6,44.6 4.4,42.3 C4.4,42.3 3.9,33 3,23.8 C2.1,14.6 -0.1,5.5 -0.1,5.5 C-0.3,3.2 1.4,1.1 3.7,0.9 L12.9,1.31838984e-15 C15.2,-0.2 17.3,1.5 17.5,3.8 C17.5,3.8 17.2,14.8 18,22.4 C18.7,29.9 20.4,40.7 20.4,40.7 L20.4,40.7 Z M8.5,2.7 C6.9,2.9 5.8,4.3 5.9,5.9 C6.1,7.5 7.5,8.6 9.1,8.5 C10.7,8.4 11.8,6.9 11.7,5.3 C11.5,3.7 10.1,2.6 8.5,2.7 L8.5,2.7 Z" id="Shape" fill="#E5E3B4"></path>
                    <path d="M12.9,45.7 L9.1,46.1 C6.8,46.3 4.7,44.6 4.5,42.3 C4.5,42.3 4,33 3.1,23.8 C2.2,14.6 -5.5525029e-14,5.5 -5.5525029e-14,5.5 C-0.2,3.2 1.5,1.1 3.8,0.9 L8.4,0.4 L8.6,2.6 C7,2.8 5.9,4.2 6,5.8 C6.2,7.4 7.6,8.5 9.2,8.4" id="Shape" fill="#CEC870"></path>
                </g>
                <ellipse id="Oval" fill="#B2A282" cx="402.8" cy="369" rx="21.8" ry="11"></ellipse>
            </g>
        </g>
    </g>
</svg>