<?xml version="1.0" encoding="UTF-8" standalone="no"?>
<svg width="1140px" height="451px" viewBox="0 0 1140 451" version="1.1" xmlns="http://www.w3.org/2000/svg" xmlns:xlink="http://www.w3.org/1999/xlink" xmlns:sketch="http://www.bohemiancoding.com/sketch/ns">
    <!-- Generator: Sketch 3.0.3 (7891) - http://www.bohemiancoding.com/sketch -->
    <title>selfcontrol</title>
    <desc>Created with Sketch.</desc>
    <defs></defs>
    <g id="SVGs" stroke="none" stroke-width="1" fill="none" fill-rule="evenodd" sketch:type="MSPage">
        <g id="selfcontrol" sketch:type="MSLayerGroup">
            <g id="Background" fill="#BDBAD8" sketch:type="MSShapeGroup">
                <rect id="Rectangle-path" x="0" y="0" width="1140" height="450"></rect>
            </g>
            <g id="Layer_3" transform="translate(0.000000, 61.000000)" sketch:type="MSShapeGroup">
                <rect id="Rectangle-path" fill="#C1B49A" x="0" y="279" width="1140" height="110.3"></rect>
                <g id="Group" transform="translate(492.000000, 105.000000)">
                    <path d="M153.4,210.8 C153.4,213 151.6,214.7 149.4,214.7 L5.8,214.6 C3.6,214.6 1.9,212.8 1.9,210.6 L2.1,22.7 C2.1,20.5 3.9,18.8 6.1,18.8 L149.7,18.9 C151.9,18.9 153.6,20.7 153.6,22.9 L153.4,210.8 L153.4,210.8 Z" id="Shape" fill="#A87C4F"></path>
                    <path d="M153.4,210.8 C153.4,213 151.6,214.7 149.4,214.7 L5.8,214.6 C3.6,214.6 1.9,212.8 1.9,210.6 L2.1,62.5 L153.6,193.1 L153.4,210.8 L153.4,210.8 Z" id="Shape" fill="#9B6E51"></path>
                    <path d="M139.9,189.3 C139.9,191.5 138.1,193.2 135.9,193.2 L19.1,193.1 C16.9,193.1 15.2,191.3 15.2,189.1 L15.3,30.6 C15.3,28.4 17.1,26.7 19.3,26.7 L136.1,26.8 C138.3,26.8 140,28.6 140,30.8 L139.9,189.3 L139.9,189.3 Z" id="Shape" fill="#FFFFFF"></path>
                    <path d="M35.4,18.9 C35.4,16.7 37.2,15 39.4,15 L57.1,15 C65.9,15 63.3,2.5 77.3,2.5 C91.1,2.5 89.8,15 98.9,15 L116.5,15 C118.7,15 120.4,16.8 120.4,19 L35.4,18.9 L35.4,18.9 Z M77.9,6.4 C74.3,6.4 71.4,9.3 71.4,12.9 C71.4,16.5 74.3,19.4 77.9,19.4 C81.5,19.4 84.4,16.5 84.4,12.9 C84.4,9.3 81.5,6.4 77.9,6.4 L77.9,6.4 Z" id="Shape" fill="#878787"></path>
                    <rect id="Rectangle-path" fill="#E4E4E3" x="55" y="164" width="49.8" height="7"></rect>
                    <rect id="Rectangle-path" fill="#E4E4E3" x="55" y="91" width="69.1" height="7"></rect>
                    <rect id="Rectangle-path" fill="#E4E4E3" x="55" y="115" width="45.7" height="7"></rect>
                    <path d="M45,126 L29.9,126 L29.9,110.9 L45,110.9 L45,126 L45,126 Z M32.5,123.5 L42.6,123.5 L42.6,113.4 L32.5,113.4 L32.5,123.5 L32.5,123.5 Z" id="Shape" fill="#E4E4E3"></path>
                    <rect id="Rectangle-path" fill="#E4E4E3" x="55" y="139" width="58.6" height="7"></rect>
                    <path d="M45,150.3 L29.9,150.3 L29.9,135.2 L45,135.2 L45,150.3 L45,150.3 Z M32.5,147.8 L42.6,147.8 L42.6,137.7 L32.5,137.7 L32.5,147.8 L32.5,147.8 Z" id="Shape" fill="#E4E4E3"></path>
                    <path d="M45,101.6 L29.9,101.6 L29.9,86.5 L45,86.5 L45,101.6 L45,101.6 Z M32.5,99.1 L42.6,99.1 L42.6,89 L32.5,89 L32.5,99.1 L32.5,99.1 Z" id="Shape" fill="#E4E4E3"></path>
                    <path d="M38.2,123.3 L32.2,117.3 L34.5,115.1 L38.2,118.9 L48.7,108.4 L51,110.6 L38.2,123.3 Z" id="Shape" fill="#FDDD25"></path>
                    <path d="M38.2,147.8 L32.2,141.8 L34.5,139.6 L38.2,143.4 L48.7,132.9 L51,135.1 L38.2,147.8 Z" id="Shape" fill="#48C1C4"></path>
                    <path d="M38.2,98.9 L32.2,92.9 L34.5,90.7 L38.2,94.5 L48.7,84 L51,86.2 L38.2,98.9 Z" id="Shape" fill="#48C1C4"></path>
                    <path d="M45,174.6 L29.9,174.6 L29.9,159.5 L45,159.5 L45,174.6 L45,174.6 Z M32.5,172.1 L42.6,172.1 L42.6,162 L32.5,162 L32.5,172.1 L32.5,172.1 Z" id="Shape" fill="#E4E4E3"></path>
                    <g transform="translate(38.000000, 51.000000)" id="Shape" fill="#808184">
                        <path d="M9.9,18.5 C9.6,18 9.8,16.7 9.8,15.7 C9.7,14.8 9.9,13.7 9.9,12.9 C9.9,12 10,6 9.9,5.5 C9.8,6 8.2,13.5 8,14.1 C7.9,14.5 7.2,18.4 7.2,18.4 C6.6,18.6 5.5,18.4 5.5,18.4 C5.2,18 5.1,16.5 4.9,15.9 C4.5,14.3 4.3,12.6 3.9,11 C3.7,10.2 2.9,6.5 2.7,5.5 C2.7,6.3 2.9,11.8 2.8,12.8 C2.7,14.1 2.9,16.9 2.7,18.1 C2.6,18.9 1.7,18.7 1.1,18.7 C0.5,18.7 0.1,18.8 -0.2,18.4 C-0.4,18.2 -0.1,17.4 -0.2,17 C-0.5,14.6 -0.1,13 -0.1,10.6 L-0.1,8.5 C5.32907052e-15,6.7 -0.3,4.4 -0.2,2.2 C-0.1,1.2 -0.3,0.7 -0.1,0.1 C0.8,0.3 3,-0.1 3.8,0.4 C4.3,1.2 4.4,3.1 4.8,4.1 C5.1,4.8 6,9.6 6.3,10 C7,7.9 7.6,2.6 8.4,0.3 C8.7,-3.61724539e-14 10.2,0.2 10.5,0.1 C11.1,0.1 12,-0.1 12.4,0.4 C12.7,2.3 12.3,7.7 12.4,9 C12.4,9.5 12.5,15.9 12.6,17.2 L12.6,18.5 C11.9,19 9.9,18.5 9.9,18.5 L9.9,18.5 Z"></path>
                        <path d="M20.9,3.8 C21.1,3.2 21.5,1.4 22,0.2 C22.8,2.82274204e-14 24,2.82274204e-14 24.9,0.3 C25,0.4 23.8,3.9 23.5,4.8 C22.5,7.4 22.3,8.6 21.3,11 C21.4,12.3 21.2,13.7 21.2,14.7 C21.3,15.5 21.2,17.7 21.1,18.4 C21,19 20.9,18.9 19.6,18.9 C18.8,18.9 18.2,18.9 18.1,18.2 C17.9,17.1 18,14.3 18.1,13.1 C18.2,11.7 18,11 18,11 C17.9,10.6 17,8.6 16.9,8.2 C15.9,6.2 14.1,0.5 14.2,0.4 C15.1,0.2 17,0.2 17.1,0.5 C17.2,0.9 17.7,2.1 17.8,2.7 C18.2,4.2 19,6.5 19.4,7.5 C20.1,6.4 20.5,5 20.9,3.8 L20.9,3.8 Z"></path>
                        <path d="M37.3,12.5 L37.2,9.9 C37.3,9.9 38.4,9.8 38.6,9.7 C39,9.6 41.4,9.6 41.6,9.8 C41.6,9.8 41.8,11 41.8,12 C41.8,13.9 41.7,15.7 40.9,17.2 C40.2,18.3 38.8,18.9 37.3,18.8 C35.6,18.7 34.3,17.8 33.5,16.6 C32.5,15.2 32.5,12.1 32.4,9.9 C32.3,7.6 32.7,3.8 33.7,1.9 C34.7,-0.1 38.9,-0.6 40.6,1.2 C41.2,1.9 41.6,2.9 41.7,4.3 C41.8,5.5 41.9,6.2 41.4,6.9 C40.5,7.3 38.8,7 38.8,7 C38.3,6.6 38.7,4.4 38.2,3.3 C38,2.9 37.5,3 37,3 C35.3,3 35.8,10.2 35.8,10.2 L35.8,10.9 C35.7,12.4 35.7,14.8 36.7,15.9 C38.2,16.5 38.5,14.2 38.5,12.9 C38.3,12.2 38.6,12.8 37.3,12.5 L37.3,12.5 Z"></path>
                        <path d="M42.9,6.2 C43,5 43.1,3.6 43.4,2.6 C43.8,1.5 44.8,0.8 45.6,0.2 C47.3,-0.1 49.4,0.1 50.5,1.3 C51.2,2 51.8,3.8 52,5 C52.1,5.8 52.1,6.9 52.1,7.6 C52.1,9.1 52.3,10.5 52.2,11.9 C52,14.1 51.8,16.4 50.8,17.7 C49.3,19.5 44.9,18.7 43.9,17.1 C42.3,14.5 42.7,9.8 42.9,6.2 L42.9,6.2 Z M45.7,10.9 C45.7,11.3 45.7,11.8 45.8,12 C45.9,12.4 45.9,13.5 46.1,14.4 C46.4,15.4 46.9,16.6 48.1,16.1 C48.7,15.3 48.9,13.9 49,12.6 C49.2,10.3 48.9,8.7 48.8,6.8 C48.7,5 48.7,2.8 47.2,2.9 C46.1,3.5 46.2,5.1 46.1,6.9 C46,8.3 45.8,9.7 45.7,10.9 L45.7,10.9 Z"></path>
                        <path d="M61.5,5 C61.8,7 61.9,7.8 62.1,9.6 C62.2,10.3 62.4,10.9 62.3,11.3 C62.5,13.7 62.8,15.6 62.9,18 C62.5,19 60.2,18.4 60.2,18.4 C59.6,17.5 60.1,15.5 59.6,14.7 C58.6,14.6 57.2,14.6 56.6,14.6 C56,15.7 56.5,18.1 55.8,18.6 C55.3,18.9 53.5,18.6 53.5,18.6 C53.2,18 54.2,12.4 54.3,11.4 C54.4,10.3 54.7,9.2 54.8,8.2 C55.1,6.7 55.1,5.8 55.4,4.2 C55.5,3.9 56.2,0.8 56.3,0.3 C56.3,0.3 56.5,0.2 56.8,0.2 C57,0.2 57.8,0.1 58.1,0.1 C59.5,3.18425841e-14 59.9,0.1 60.4,0.3 C61,1.3 61.2,3.4 61.5,5 L61.5,5 Z M56.9,12.1 C57.8,12.3 58.9,12.3 59.5,12.2 C59.3,9.4 58.3,3.6 58.4,3.6 C57.9,4.7 57.8,6.3 57.5,7.9 C57.2,9.4 56.9,10.6 56.9,12.1 L56.9,12.1 Z"></path>
                        <path d="M73,16 C73.7,16.1 73.5,16.8 73.4,17.3 C73.4,17.8 73.4,18.6 72.9,18.6 C72,18.6 67.2,18.8 66.5,18.7 C65.4,18.6 64.8,18.6 64.8,18.6 C64.7,16.4 64.7,14.2 64.7,12.1 C64.8,9.2 64.8,4.3 64.8,4.3 C64.8,4.3 64.7,1.7 64.9,0.4 C65.5,-0.1 67.7,2.55351296e-14 67.9,0.2 C68.2,0.6 68,2.5 68,3.1 C68,4.7 68,6.9 67.9,8.8 C67.8,11.5 67.7,13.5 67.9,15.9 C68.7,16.3 71.8,15.9 73,16 L73,16 Z"></path>
                        <path d="M77.9,3.9 C77.7,4.7 77.7,6.3 78.4,7.5 C78.9,8.3 79.7,8.6 80.3,9.2 C80.9,9.7 81.6,10.2 82,10.7 C83,11.8 83.2,13.4 82.9,15.2 C82.6,16.6 82.3,17.4 81.5,18.3 C81.2,18.6 80.8,18.8 80.3,19 C78.8,19.6 77.1,18.9 76.1,18.2 C75.8,17.9 75.2,17.3 75,16.9 C74.4,15.7 74,13.8 74.6,12.7 C74.7,12.6 75.3,12.5 75.8,12.5 C76.2,12.5 76.9,12.4 77,12.6 C77.6,13.5 77.1,15.7 78.1,16.3 C79.5,17.2 80.2,14 79.7,12.8 C79.4,12 78.4,11.4 77.7,10.8 C77.4,10.6 77.1,10.2 76.7,9.9 C76.3,9.6 75.9,9.3 75.6,9 C74.9,8 74.6,6.2 74.5,4.9 C74.4,3.8 74.7,2.9 75.1,2.1 C75.3,1.8 75.9,0.8 76.3,0.5 C78,-0.8 81.2,-0.3 82.3,1.6 C82.6,2.1 82.7,2.8 82.8,3.6 C82.9,4.4 82.7,6.4 82.7,6.4 C82.5,6.7 80.3,6.7 80.2,6.5 C79.9,5.4 80.3,3.6 79.3,2.7 C79.2,2.2 78.1,3.1 77.9,3.9 L77.9,3.9 Z"></path>
                    </g>
                    <g transform="translate(0.000000, 18.000000)" id="Shape">
                        <path d="M80.2,3.7 C80.2,5.7 74.9,7.3 72.9,7.3 L16.2,7.3 C14.2,7.3 12.6,5.7 12.6,3.7 L12.6,3.7 C12.6,1.7 14.2,0.1 16.2,0.1 L72.9,0.1 C74.8,0.1 80.2,1.7 80.2,3.7 L80.2,3.7 L80.2,3.7 Z" fill="#F1F1F2"></path>
                        <path d="M22.9,10.2 L22.5,10.2 L5.4,10.2 C3.5,10.2 2.9,9 2.8,8.3 L2.8,5.6 L4.5,5.6 L4.5,8.2 C4.5,8.3 4.8,8.5 5.4,8.5 L22.7,8.5 L23.2,8.5 C23.3,8.4 23.3,8.3 23.3,7.9 L25,7.9 C25,8.9 24.6,9.5 24.2,9.8 C23.8,10.1 23.3,10.2 22.9,10.2 L22.9,10.2 Z" fill="#FDCE09"></path>
                        <path d="M80.2,3.7 C80.2,5.7 74.9,7.3 72.9,7.3 L16.2,7.3 C14.2,7.3 12.6,5.7 12.6,3.7 L12.6,3.7 L80.2,3.7 L80.2,3.7 Z" fill="#D0D2D3"></path>
                        <path d="M0.4,3.7 C0.4,5.8 6,7.5 8.1,7.5 L29.2,7.5 L29.2,-0.1 L8.1,-0.1 C6.1,-0.1 0.4,1.6 0.4,3.7 L0.4,3.7 L0.4,3.7 Z" fill="#FDDD25"></path>
                        <path d="M0.4,3.7 C0.4,5.8 6,7.5 8.1,7.5 L29.2,7.5 L29.2,3.7 L0.4,3.7 L0.4,3.7 Z" fill="#FDCE09"></path>
                    </g>
                    <path d="M120.3,28.2 C120.3,30.4 118.5,32.1 116.3,32.1 L39.3,32 C37.1,32 35.4,30.2 35.4,28 L35.4,16.1 C35.4,13.9 37.2,12.2 39.4,12.2 L57.1,12.2 C65.9,12.2 63.3,-0.3 77.3,-0.3 C91.1,-0.3 89.8,12.2 98.9,12.2 L116.5,12.2 C118.7,12.2 120.4,14 120.4,16.2 L120.3,28.2 L120.3,28.2 Z M77.9,3.8 C74.3,3.8 71.4,6.7 71.4,10.3 C71.4,13.9 74.3,16.8 77.9,16.8 C81.5,16.8 84.4,13.9 84.4,10.3 C84.4,6.7 81.5,3.8 77.9,3.8 L77.9,3.8 Z" id="Shape" fill="#CCCBCB"></path>
                </g>
                <g id="Group" transform="translate(599.000000, 325.000000)">
                    <path d="M0.5,26.5 C-1.58761893e-14,23.8 6.9,20.4 9.5,20 L86.1,6.9 C88.8,6.4 91.3,8.2 91.7,10.9 L91.7,10.9 C92.2,13.6 90.4,16.1 87.7,16.5 L11.1,29.6 C8.6,30.1 1,29.2 0.5,26.5 L0.5,26.5 L0.5,26.5 Z" id="Shape" fill="#D0D2D3"></path>
                    <path d="M76.4,4.5 L76.9,4.5 L100,0.5 C102.6,0.1 103.7,1.6 103.9,2.4 L104.5,6 L102.3,6.4 L101.7,2.9 C101.6,2.8 101.2,2.6 100.4,2.7 L77.1,6.7 C76.8,6.7 76.6,6.8 76.5,6.9 C76.4,7 76.4,7.3 76.4,7.7 L74.2,8.1 C74,6.7 74.4,5.9 74.8,5.4 C75.3,4.8 75.9,4.6 76.4,4.5 L76.4,4.5 Z" id="Shape" fill="#48C1C4"></path>
                    <path d="M0.5,26.5 C-1.29563027e-13,23.8 6.9,20.4 9.5,20 L86.1,6.9 C88.8,6.4 91.3,8.2 91.7,10.9 L91.7,10.9 L0.5,26.5 L0.5,26.5 Z" id="Shape" fill="#F1F1F2"></path>
                    <path d="M108.2,8.1 C107.7,5.3 99.7,4.3 96.9,4.8 L68.4,9.7 L70.2,19.9 L98.7,15 C101.5,14.5 108.7,10.9 108.2,8.1 L108.2,8.1 L108.2,8.1 Z" id="Shape" fill="#64A4A7"></path>
                    <path d="M108.2,8.1 C107.7,5.3 99.7,4.3 96.9,4.8 L68.4,9.7 L69.3,14.8 L108.2,8.1 L108.2,8.1 Z" id="Shape" fill="#48C1C4"></path>
                </g>
                <g id="Group" transform="translate(119.000000, 0.000000)">
                    <circle id="Oval" fill="#FFFFFF" cx="69.1" cy="69.1" r="65.1"></circle>
                    <path d="M68.7,134.3 C32.8,134.3 3.6,105.2 3.6,69.2 C3.6,33.2 32.7,4.1 68.7,4.1 L68.7,134.3 L68.7,134.3 Z" id="Shape" fill="#E6E6E6"></path>
                    <path d="M68.7,138.3 C30.6,138.3 -0.4,107.3 -0.4,69.2 C-0.4,31.1 30.6,0.1 68.7,0.1 C106.8,0.1 137.8,31.1 137.8,69.2 C137.8,107.3 106.8,138.3 68.7,138.3 L68.7,138.3 Z M68.7,8.1 C35,8.1 7.6,35.5 7.6,69.2 C7.6,102.9 35,130.3 68.7,130.3 C102.4,130.3 129.8,102.9 129.8,69.2 C129.8,35.5 102.4,8.1 68.7,8.1 L68.7,8.1 Z" id="Shape" fill="#4D4D4D"></path>
                    <path d="M93.1,25.4 C93.6,25.7 93.8,26.3 93.5,26.8 L68.8,70.6 C68.5,71.1 67.9,71.3 67.4,71 C66.9,70.7 66.7,70.1 67,69.6 L91.7,25.8 C92.1,25.3 92.7,25.1 93.1,25.4 L93.1,25.4 Z" id="Shape" fill="#FF4F31"></path>
                    <rect id="Rectangle-path" fill="#333333" transform="translate(63.418900, 89.250900) rotate(195.545580) translate(-63.418900, -89.250900) " x="61.9189273" y="68.7512735" width="2.59995263" height="40.999253"></rect>
                    <rect id="Rectangle-path" fill="#333333" transform="translate(43.175850, 78.597100) rotate(249.848993) translate(-43.175850, -78.597100) " x="41.6758307" y="51.5967532" width="2.50003211" height="54.0006936"></rect>
                    <g transform="translate(64.000000, 65.000000)">
                        <circle id="Oval" fill="#4D4D4D" cx="5" cy="5" r="5"></circle>
                        <circle id="Oval" fill="#F1F1F2" cx="5" cy="5" r="3"></circle>
                        <path d="M4.5,7.7 C2.8,7.7 1.5,6.4 1.5,4.7 C1.5,3 2.8,1.7 4.5,1.7 L4.5,7.7 L4.5,7.7 Z" id="Shape" fill="#E6E7E8"></path>
                    </g>
                </g>
                <g id="Group" transform="translate(336.000000, 153.000000)">
                    <g transform="translate(57.000000, 0.000000)">
                        <path d="M15.5,2 C15.6,1 14.9,0.1 13.9,6.7168493e-15 L10.9,-0.4 C9.9,-0.5 9,0.2 8.9,1.2 L8.5,4.2 C8.4,5.2 9.1,6.1 10.1,6.2 L13.1,6.6 C14.1,6.7 15,6 15.1,5 L15.5,2 L15.5,2 Z" id="Shape" fill="#D56B68"></path>
                        <rect id="Rectangle-path" fill="#FDCE09" transform="translate(4.955750, 38.448850) rotate(7.290604) translate(-4.955750, -38.448850) " x="3.95576539" y="10.9492732" width="2.19996614" height="54.8991551"></rect>
                        <rect id="Rectangle-path" fill="#FFDE28" transform="translate(6.993150, 38.425150) rotate(7.290604) translate(-6.993150, -38.425150) " x="5.99316539" y="10.9255732" width="2.19996614" height="54.8991551"></rect>
                        <rect id="Rectangle-path" fill="#FDF060" transform="translate(10.022450, 38.528450) rotate(7.290604) translate(-10.022450, -38.528450) " x="9.02246539" y="11.0288732" width="2.19996614" height="54.8991551"></rect>
                        <path d="M15.5,2 C15.6,1 14.9,0.1 13.9,0 L12.4,-0.2 L11.6,6.4 L13.1,6.6 C14.1,6.7 15,6 15.1,5 L15.5,2 L15.5,2 Z" id="Shape" fill="#ED7179"></path>
                        <rect id="Rectangle-path" fill="#F2F2F2" transform="translate(11.500050, 8.003650) rotate(7.290604) translate(-11.500050, -8.003650) " x="8.00010387" y="5.00369617" width="6.69989689" height="6.3999015"></rect>
                        <rect id="Rectangle-path" fill="#E6E6E6" transform="translate(9.476050, 7.958050) rotate(7.290604) translate(-9.476050, -7.958050) " x="7.97607309" y="4.95809617" width="3.29994921" height="6.3999015"></rect>
                        <rect id="Rectangle-path" fill="#E6E6E6" transform="translate(11.424800, 11.546600) rotate(7.290604) translate(-11.424800, -11.546600) " x="7.92485387" y="11.0466077" width="6.69989689" height="0.499992305"></rect>
                        <rect id="Rectangle-path" fill="#E6E6E6" transform="translate(11.465000, 8.505100) rotate(7.290604) translate(-11.465000, -8.505100) " x="7.96505387" y="8.0051077" width="6.69989689" height="0.499992305"></rect>
                        <rect id="Rectangle-path" fill="#E6E6E6" transform="translate(11.491000, 7.493700) rotate(7.290604) translate(-11.491000, -7.493700) " x="7.99105387" y="6.9937077" width="6.69989689" height="0.499992305"></rect>
                        <rect id="Rectangle-path" fill="#CCCCCC" transform="translate(9.400800, 11.501000) rotate(7.290604) translate(-9.400800, -11.501000) " x="7.90082309" y="11.0010077" width="3.29994921" height="0.499992305"></rect>
                        <rect id="Rectangle-path" fill="#CCCCCC" transform="translate(9.440900, 8.459400) rotate(7.290604) translate(-9.440900, -8.459400) " x="7.94092309" y="7.9594077" width="3.29994921" height="0.499992305"></rect>
                        <rect id="Rectangle-path" fill="#CCCCCC" transform="translate(9.466900, 7.448000) rotate(7.290604) translate(-9.466900, -7.448000) " x="7.96692309" y="6.9480077" width="3.29994921" height="0.499992305"></rect>
                    </g>
                    <g transform="translate(50.000000, 7.000000)" id="Rectangle-path">
                        <rect fill="#B4C519" transform="translate(3.938300, 29.444600) rotate(6.038997) translate(-3.938300, -29.444600) " x="2.9383508" y="1.94599704" width="2.19988824" height="54.897211"></rect>
                        <rect fill="#C5D119" transform="translate(5.963900, 29.423800) rotate(6.038997) translate(-5.963900, -29.423800) " x="4.9639508" y="1.92519704" width="2.19988824" height="54.897211"></rect>
                        <rect fill="#D9E021" transform="translate(8.984000, 29.508200) rotate(6.038997) translate(-8.984000, -29.508200) " x="7.9840508" y="2.00959704" width="2.19988824" height="54.897211"></rect>
                        <rect fill="#C69C6D" transform="translate(9.489000, 0.980900) rotate(6.038997) translate(-9.489000, -0.980900) " x="5.9891778" y="-0.0190491987" width="6.69965963" height="1.79990856"></rect>
                        <rect fill="#A67C52" transform="translate(7.472500, 0.944000) rotate(6.038997) translate(-7.472500, -0.944000) " x="5.9725762" y="-0.0559491987" width="3.29983236" height="1.79990856"></rect>
                    </g>
                    <path d="M88.5,56.1 C88.5,54.4 87.2,53.1 85.5,53.1 L3.4,53.1 C1.7,53.1 0.4,54.4 0.4,56.1 L0.4,138.2 C0.4,139.9 1.7,141.2 3.4,141.2 L85.5,141.2 C87.2,141.2 88.5,139.9 88.5,138.2 L88.5,56.1 L88.5,56.1 Z" id="Shape" fill="#736357"></path>
                    <path d="M3.3,53.1 C1.6,53.1 0.3,54.4 0.3,56.1 L0.3,138.2 C0.3,139.9 1.6,141.2 3.3,141.2 L85.4,141.2 C87.1,141.2 88.4,139.9 88.4,138.2 L3.3,53.1 L3.3,53.1 Z" id="Shape" fill="#615751"></path>
                </g>
                <path d="M994.7,229.4 C994.7,229.4 994.7,252.7 1011.6,259.6 C1023,264.3 1027.4,271 1027.4,278.7" id="Shape" stroke="#333333" stroke-width="2"></path>
                <path d="M1035,234.8 C1035,236.1 1033.9,237.2 1032.6,237.2 L811.4,237.2 C810.1,237.2 809,236.1 809,234.8 L809,100.4 C809,99.1 810.1,98 811.4,98 L1032.5,98 C1033.8,98 1034.9,99.1 1034.9,100.4 L1034.9,234.8 L1035,234.8 Z" id="Shape" fill="#4D4D4D"></path>
                <rect id="Rectangle-path" fill="#1A1A1A" x="816" y="104" width="211.6" height="125.2"></rect>
            </g>
        </g>
    </g>
</svg>