<?xml version="1.0" encoding="UTF-8" standalone="no"?>
<svg width="1140px" height="452px" viewBox="0 0 1140 452" version="1.1" xmlns="http://www.w3.org/2000/svg" xmlns:xlink="http://www.w3.org/1999/xlink" xmlns:sketch="http://www.bohemiancoding.com/sketch/ns">
    <!-- Generator: Sketch 3.0.3 (7891) - http://www.bohemiancoding.com/sketch -->
    <title>socialintelligence</title>
    <desc>Created with Sketch.</desc>
    <defs></defs>
    <g id="SVGs" stroke="none" stroke-width="1" fill="none" fill-rule="evenodd" sketch:type="MSPage">
        <g id="socialintelligence" sketch:type="MSLayerGroup" transform="translate(0.000000, 0.644531)">
            <g id="Background" sketch:type="MSShapeGroup">
                <rect id="Rectangle-path" fill="#C8E9F6" x="0" y="0" width="1140" height="450"></rect>
                <rect id="Rectangle-path" fill="#89BF6B" x="0" y="264" width="1140" height="186.2"></rect>
            </g>
            <g id="Layer_3" transform="translate(28.000000, 10.000000)" sketch:type="MSShapeGroup">
                <rect id="Rectangle-path" fill="#89BF6B" x="327" y="254" width="423.9" height="176.9"></rect>
                <rect id="Rectangle-path" fill="#C2986B" x="732" y="236" width="9.7" height="27.2"></rect>
                <path d="M701.4,246.4 C701.4,246.4 733.9,146.8 736.6,146.8 C739.3,146.8 771.8,246.4 771.8,246.4 C771.8,248.6 756.1,250.3 736.6,250.3 C717.1,250.3 701.4,248.6 701.4,246.4 L701.4,246.4 Z" id="Shape" fill="#8A9D81"></path>
                <path d="M701.4,246.4 C701.4,246.4 733.9,146.8 736.6,146.8 L736.6,250.3 C717.1,250.3 701.4,248.6 701.4,246.4 L701.4,246.4 Z" id="Shape" fill="#768C6C"></path>
                <g id="Group" transform="translate(333.000000, 104.000000)">
                    <rect id="Rectangle-path" fill="#C2986B" x="45" y="131" width="14.5" height="40.8"></rect>
                    <path d="M-0.3,149.8 C-0.3,149.8 48.4,0.2 52.5,0.2 C56.6,0.2 105.3,149.8 105.3,149.8 C105.3,153 81.7,155.7 52.5,155.7 C23.3,155.7 -0.3,153.1 -0.3,149.8 L-0.3,149.8 Z" id="Shape" fill="#8A9D81"></path>
                    <path d="M-0.3,149.8 C-0.3,149.8 48.4,0.2 52.5,0.2 L52.5,155.6 C23.3,155.7 -0.3,153.1 -0.3,149.8 L-0.3,149.8 Z" id="Shape" fill="#768C6C"></path>
                </g>
                <path d="M517.6,357.4 C516.1,357.4 515,356.2 515,354.8 L515,341.5 C515,340 516.2,338.9 517.6,338.9 C519,338.9 520.2,340.1 520.2,341.5 L520.2,354.8 C520.2,356.2 519,357.4 517.6,357.4 L517.6,357.4 Z" id="Shape" fill="#B62129"></path>
                <circle id="Oval" cx="542.3" cy="209.3" r="209.3"></circle>
                <path d="M691.1,263 L682.1,253.8 L673,253.8 L675.8,265.4 L691.1,263 Z" id="Shape" fill="#1773B9"></path>
                <path d="M459.1,263 L468.4,253.8 L474.6,253.8 L474.6,265.4 L459.1,263 Z" id="Shape" fill="#1773B9"></path>
                <rect id="Rectangle-path" fill="#5D57A2" x="482" y="132" width="185.5" height="5.9"></rect>
                <path d="M691.1,267.1 L459.1,267.1 L472,253.8 L678.2,253.8 L691.1,267.1 Z" id="Shape" fill="#C6B198"></path>
                <path d="M482.3,258.4 L472,258.4 L472,129.6 C472,126.7 474.5,124.4 477.2,124.4 C479.9,124.4 482.4,126.7 482.4,129.6 L482.4,258.4 L482.3,258.4 Z" id="Shape" fill="#5D57A2"></path>
                <g id="Group" transform="translate(522.000000, 138.000000)">
                    <rect id="Rectangle-path" fill="#808080" x="4" y="0" width="4.2" height="96.1"></rect>
                    <rect id="Rectangle-path" fill="#808080" x="23" y="0" width="4.2" height="96.1"></rect>
                    <path d="M15,99.7 C6.3,99.7 -0.2,96 -0.2,91 C-0.2,89.8 0.7,88.9 1.9,88.9 C3.1,88.9 4,89.8 4,91 C4,92.8 8.3,95.5 15,95.5 C21.7,95.5 26,92.9 26,91 C26,89.8 26.9,88.9 28.1,88.9 C29.3,88.9 30.2,89.8 30.2,91 C30.3,96 23.7,99.7 15,99.7 L15,99.7 Z" id="Shape" fill="#4D4E4E"></path>
                </g>
                <rect id="Rectangle-path" fill="#0F8ECE" x="459" y="263" width="232.1" height="11.7"></rect>
                <path d="M678.2,258.4 L667.8,258.4 L667.8,129.6 C667.8,126.7 670.3,124.4 673,124.4 C675.7,124.4 678.2,126.7 678.2,129.6 L678.2,258.4 L678.2,258.4 Z" id="Shape" fill="#5D57A2"></path>
                <g id="Group" transform="translate(622.000000, 327.000000)">
                    <circle id="Oval" fill="#FFFFFF" cx="19.8" cy="19.8" r="19.8"></circle>
                    <path d="M39.9,17.1 C40.7,24.3 37.5,31.7 31,36 C21.8,42 9.5,39.4 3.6,30.2 C3.6,30.2 14.9,35.5 24.9,31.7 C37.1,26.9 39.9,17.1 39.9,17.1 L39.9,17.1 Z" id="Shape" fill="#CCCBCB"></path>
                </g>
                <g id="Group" transform="translate(597.000000, 138.000000)">
                    <rect id="Rectangle-path" fill="#808080" x="4" y="0" width="4.2" height="96.1"></rect>
                    <rect id="Rectangle-path" fill="#808080" x="23" y="0" width="4.2" height="96.1"></rect>
                    <path d="M15.4,99.7 C6.7,99.7 0.2,96 0.2,91 C0.2,89.8 1.1,88.9 2.3,88.9 C3.5,88.9 4.4,89.8 4.4,91 C4.4,92.8 8.7,95.5 15.4,95.5 C22.1,95.5 26.4,92.9 26.4,91 C26.4,89.8 27.3,88.9 28.5,88.9 C29.7,88.9 30.6,89.8 30.6,91 C30.6,96 24.1,99.7 15.4,99.7 L15.4,99.7 Z" id="Shape" fill="#4D4E4E"></path>
                </g>
                <path d="M477.2,258.4 L472,258.4 L472,129.6 C472,126.7 474.5,124.4 477.2,124.4 L477.2,258.4 L477.2,258.4 Z" id="Shape" fill="#423E95"></path>
                <path d="M673,258.4 L667.8,258.4 L667.8,129.6 C667.8,126.7 670.3,124.4 673,124.4 L673,258.4 L673,258.4 Z" id="Shape" fill="#423E95"></path>
                <path d="M353.5,217.7 C353.5,217.7 359,191.4 324.5,191.4 C303.5,191.4 308.5,217.1 308.5,217.1" id="Shape" stroke="#F2F2F2" stroke-width="5"></path>
                <path d="M301.3,232.3 L261.5,357.4" id="Shape" stroke="#B62129" stroke-width="6"></path>
                <path d="M335.5,217.7 C335.5,217.7 339.7,197.9 313.7,197.9 C298,197.9 301.7,217.2 301.7,217.2" id="Shape" stroke="#F2F2F2" stroke-width="5"></path>
                <path d="M525,349.4 C482.5,349.4 436.4,318.7 417.8,277.9 C401.6,242.4 363.3,233 343.2,233 L318,233 L300.4,233 C296,233 292.5,229.5 292.5,225.1 C292.5,220.7 296,217.2 300.4,217.2 L317.5,217.2 L343.2,217.2 C367.1,217.2 412.6,228.6 432.2,271.4 C446.4,302.5 480.4,327 513.1,332.7 C521.9,334.2 524.1,331.2 528.1,331.2 C534.9,331.2 537.2,337.2 537.2,341.5 C537,349.4 529.3,349.4 525,349.4 L525,349.4 Z" id="Shape" fill="#F37B35"></path>
                <path d="M525,349.4 C482.5,349.4 436.4,318.7 417.8,277.9 C401.6,242.4 363.3,233 343.2,233 L318,233 L300.4,233 C296,233 292.5,229.5 292.5,225.1 L317.6,225.1 L354,225.1 C373.1,225.1 411.7,244.1 425.7,274.7 C435.3,295.6 456.7,323.7 495.7,336.4 C515.1,342.7 533.1,341.5 533.1,341.5 C532.9,346.1 529.3,349.4 525,349.4 L525,349.4 Z" id="Shape" fill="#E06733"></path>
                <g id="Group" transform="translate(107.000000, 132.000000)">
                    <rect id="Rectangle-path" fill="#C2986B" x="35" y="101" width="11.3" height="31.6"></rect>
                    <path d="M0.1,116 C0.1,116 37.8,0.2 41,0.2 C44.1,0.2 81.9,116 81.9,116 C81.9,118.5 63.6,120.6 41,120.6 C18.4,120.6 0.1,118.5 0.1,116 L0.1,116 Z" id="Shape" fill="#8A9D81"></path>
                    <path d="M0.1,116 C0.1,116 37.8,0.2 41,0.2 L41,120.5 C18.4,120.6 0.1,118.5 0.1,116 L0.1,116 Z" id="Shape" fill="#768C6C"></path>
                </g>
                <g id="Group" transform="translate(0.000000, 73.000000)">
                    <rect id="Rectangle-path" fill="#C2986B" x="61" y="175" width="19.5" height="54.8"></rect>
                    <path d="M0,200.6 C0,200.6 65.4,-0.3 70.9,-0.3 C76.4,-0.3 141.8,200.6 141.8,200.6 C141.8,205 110.1,208.5 70.9,208.5 C31.7,208.5 0,205 0,200.6 L0,200.6 Z" id="Shape" fill="#8A9D81"></path>
                    <path d="M0,200.6 C0,200.6 65.4,-0.3 70.9,-0.3 L70.9,208.4 C31.8,208.5 0,205 0,200.6 L0,200.6 Z" id="Shape" fill="#768C6C"></path>
                </g>
                <path d="M962.5,253.8 C962.5,253.8 1012.5,265 995.5,310 C978.5,355 917.6,361.8 870.5,377 C821.5,392.8 769.5,440 769.5,440 L1077.5,440 C1077.5,440 1035.5,378 1044.5,338.8 C1056.5,286.9 1039.3,275.1 988.3,253.3" id="Shape" fill="#666666"></path>
                <g id="Group" transform="translate(1043.000000, 157.000000)">
                    <rect id="Rectangle-path" fill="#C2986B" x="36" y="104" width="11.6" height="32.5"></rect>
                    <path d="M0,118.9 C0,118.9 38.8,-0.1 42,-0.1 C43.9,-0.1 57.7,39.9 69,73.6 L69,122.5 C61.7,123.2 52.3,123.6 42,123.6 C18.8,123.6 0,121.5 0,118.9 L0,118.9 Z" id="Shape" fill="#8A9D81"></path>
                    <path d="M0,118.9 C0,118.9 38.8,-0.1 42,-0.1 L42,123.6 C18.8,123.6 0,121.5 0,118.9 L0,118.9 Z" id="Shape" fill="#768C6C"></path>
                </g>
                <path d="M837.5,291 C805.5,290 747,323.6 802.5,338.5 C847.9,350.7 921.9,345.6 940.2,321.5 C972,279.8 943.4,266.7 918,274.7 C899.6,280.5 905.5,293.2 837.5,291 L837.5,291 Z" id="Shape" fill="#F9F4AF"></path>
            </g>
        </g>
    </g>
</svg>