<?xml version="1.0" encoding="UTF-8" standalone="no"?>
<svg width="1140px" height="451px" viewBox="0 0 1140 451" version="1.1" xmlns="http://www.w3.org/2000/svg" xmlns:xlink="http://www.w3.org/1999/xlink" xmlns:sketch="http://www.bohemiancoding.com/sketch/ns">
    <!-- Generator: Sketch 3.0.3 (7891) - http://www.bohemiancoding.com/sketch -->
    <title>zest</title>
    <desc>Created with Sketch.</desc>
    <defs></defs>
    <g id="SVGs" stroke="none" stroke-width="1" fill="none" fill-rule="evenodd" sketch:type="MSPage">
        <g id="zest" sketch:type="MSLayerGroup">
            <g id="Background" fill="#344357" sketch:type="MSShapeGroup">
                <rect id="Rectangle-path" x="0" y="0" width="1140" height="450"></rect>
            </g>
            <g id="Layer_1" transform="translate(28.000000, 23.000000)" sketch:type="MSShapeGroup">
                <g id="Group" transform="translate(488.000000, 93.000000)">
                    <path d="M38.8,214.6 C38.8,282.6 22.5,317.6 10.9,334 L100,334 C88.4,317.9 72.5,283.2 72.5,214.6 L38.8,214.6 L38.8,214.6 Z" id="Shape" fill="#FBEF61"></path>
                    <path d="M55.6,270.8 L46.4,214.6 L64.7,214.6 L55.6,270.8 Z" id="Shape" fill="#FBCD0F"></path>
                    <path d="M33.2,200 C33.2,203.5 32.8,203.8 30.2,206.9 L3.8,235.1 C1.1,237.5 -0.5,236.1 -0.5,233.5 L-0.5,195.2 C-0.5,190.6 2.27373675e-13,190.1 3.8,185.9 L26.9,161.3 C29,158.8 33.2,158.6 33.2,162.1 L33.2,200 L33.2,200 Z" id="Shape" fill="#B8712B"></path>
                    <path d="M78,200 C78,203.5 78.4,203.8 81,206.9 L107.4,235.1 C110.1,237.5 111.7,236.1 111.7,233.5 L111.7,195.2 C111.7,190.6 111.2,190.1 107.4,185.9 L84.3,161.3 C82.2,158.8 78,158.6 78,162.1 L78,200 L78,200 Z" id="Shape" fill="#F7963A"></path>
                    <path d="M72.4,214.6 L38.8,214.6 C38.8,205.3 46.3,197.8 55.6,197.8 C64.9,197.8 72.4,205.4 72.4,214.6 L72.4,214.6 Z" id="Shape" fill="#5C697A"></path>
                    <path d="M92,94.3 C92,142.1 83.9,183.5 72.1,203.9 L39,203.9 C27.2,183.5 19.1,142.1 19.1,94.3 C19.1,26.3 44.8,-0.2 55.5,-0.2 C66.3,-0.2 92,26.3 92,94.3 L92,94.3 Z" id="Shape" fill="#F2754D"></path>
                    <path d="M55.2,203.9 L39,203.9 C27.2,183.5 19.1,142.1 19.1,94.3 C19.1,26.3 44.8,-0.2 55.5,-0.2 L55.2,203.9 L55.2,203.9 Z" id="Shape" fill="#BB5838"></path>
                    <path d="M52.7,233.4 C52.7,235 54,236.3 55.6,236.3 L55.6,236.3 C57.2,236.3 58.5,235 58.5,233.4 L64.2,174.8 C64.2,173.2 57.7,159.9 55.4,159.9 C53.1,159.9 46.9,173.2 46.9,174.8 L52.7,233.4 L52.7,233.4 Z" id="Shape" fill="#F7963A"></path>
                    <path d="M52.7,233.4 C52.7,235 54,236.3 55.6,236.3 L55.6,236.3 L55.5,159.9 C53.2,159.9 47,173.2 47,174.8 L52.7,233.4 L52.7,233.4 Z" id="Shape" fill="#B8712B"></path>
                    <g transform="translate(37.000000, 58.000000)">
                        <circle id="Oval" fill="#FACA89" cx="18.4" cy="18.4" r="16.4"></circle>
                        <path d="M30.2,30 C23.8,36.4 13.5,36.4 7.1,30 C0.7,23.6 0.7,13.3 7.1,6.9 L30.2,30 L30.2,30 Z" id="Shape" fill="#F5AA5B"></path>
                        <path d="M18.6,36.9 C8.4,36.9 0.1,28.6 0.1,18.4 C0.1,8.2 8.4,-0.1 18.6,-0.1 C28.8,-0.1 37.1,8.2 37.1,18.4 C37.1,28.6 28.8,36.9 18.6,36.9 L18.6,36.9 Z M18.6,4.2 C10.7,4.2 4.3,10.6 4.3,18.5 C4.3,26.4 10.7,32.8 18.6,32.8 C26.5,32.8 32.9,26.4 32.9,18.5 C32.9,10.6 26.4,4.2 18.6,4.2 L18.6,4.2 Z" id="Shape" fill="#5C697A"></path>
                        <path d="M18.6,4.2 C10.7,4.2 4.3,10.6 4.3,18.5 C4.3,26.4 10.7,32.8 18.6,32.8 L18.6,37 C8.4,37 0.1,28.7 0.1,18.5 C0.1,8.3 8.4,0 18.6,0 L18.6,4.2 L18.6,4.2 Z" id="Shape" fill="#474B54"></path>
                    </g>
                </g>
                <path d="M544.9,400.3 C548.4,389.3 558.7,381.4 570.8,381.4 C572.1,381.4 573.4,381.5 574.7,381.7 C578.3,359.7 597.5,342.9 620.5,342.9 C639.2,342.9 655.3,353.9 662.6,369.8 C662.6,369.8 666.3,367.6 674.7,367.7 C693.5,367.7 708.8,382.9 708.8,401.8 C708.8,401.8 733.9,399.9 733.9,427.2 L386.1,427.2 C386.1,412.2 398.3,400 413.3,400 C414.6,400 415.9,400.1 417.2,400.3 C420.8,378.3 440,361.5 463,361.5 C481.7,361.5 497.8,372.5 505.1,388.4 C505.1,388.4 508.8,386.2 517.2,386.3 C528.6,386.1 538.7,391.7 544.9,400.3" id="Shape" fill="#F1F1F1"></path>
                <g id="Group" transform="translate(612.000000, 36.000000)">
                    <circle id="Oval" fill="#F8F4B0" cx="35.7" cy="35.7" r="35.7"></circle>
                    <circle id="Oval" fill="#EEDF91" cx="18.2" cy="19.2" r="5.2"></circle>
                    <circle id="Oval" fill="#EEDF91" cx="49.4" cy="13.4" r="3.4"></circle>
                    <circle id="Oval" fill="#EEDF91" cx="43.3" cy="37.3" r="6.3"></circle>
                    <circle id="Oval" fill="#EEDF91" cx="26.5" cy="43.5" r="2.5"></circle>
                    <circle id="Oval" fill="#EEDF91" cx="32" cy="60" r="5"></circle>
                    <circle id="Oval" fill="#EEDF91" cx="58.2" cy="30.2" r="5.2"></circle>
                    <circle id="Oval" fill="#EEDF91" cx="31.3" cy="26.3" r="2.3"></circle>
                    <circle id="Oval" fill="#EEDF91" cx="28.4" cy="6.4" r="3.4"></circle>
                    <circle id="Oval" fill="#EEDF91" cx="12.9" cy="38.9" r="3.9"></circle>
                    <circle id="Oval" fill="#EEDF91" cx="53.4" cy="55.4" r="3.4"></circle>
                </g>
                <g id="Group" transform="translate(386.000000, 85.000000)" fill="#5C697A">
                    <path d="M12.4,-0.1 L15.1,12.1 L9.7,12.1 L12.4,-0.1 Z" id="Shape"></path>
                    <path d="M12.4,24.5 L9.7,12.2 L15.1,12.2 L12.4,24.5 Z" id="Shape"></path>
                    <path d="M0.1,12.2 L12.4,9.5 L12.4,14.8 L0.1,12.2 Z" id="Shape"></path>
                    <path d="M24.7,12.2 L12.4,14.8 L12.4,9.5 L24.7,12.2 Z" id="Shape"></path>
                </g>
                <g id="Group" transform="translate(85.000000, 28.000000)" fill="#5C697A">
                    <path d="M8,0 L9.6,7.5 L6.4,7.5 L8,0 Z" id="Shape"></path>
                    <path d="M8,15.1 L6.4,7.5 L9.6,7.5 L8,15.1 Z" id="Shape"></path>
                    <path d="M0.4,7.5 L8,5.9 L8,9.2 L0.4,7.5 Z" id="Shape"></path>
                    <path d="M15.6,7.5 L8,9.2 L8,5.9 L15.6,7.5 Z" id="Shape"></path>
                </g>
                <g id="Group" transform="translate(517.000000, 7.000000)" fill="#5C697A">
                    <path d="M7.5,0.4 L9.2,8 L5.9,8 L7.5,0.4 Z" id="Shape"></path>
                    <path d="M7.5,15.6 L5.9,8 L9.2,8 L7.5,15.6 Z" id="Shape"></path>
                    <path d="M-0.1,8 L7.5,6.3 L7.5,9.6 L-0.1,8 Z" id="Shape"></path>
                    <path d="M15.1,8 L7.5,9.6 L7.5,6.3 L15.1,8 Z" id="Shape"></path>
                </g>
                <g id="Group" transform="translate(712.000000, 127.000000)" fill="#5C697A">
                    <path d="M11.9,0.2 L14.6,12.5 L9.3,12.5 L11.9,0.2 Z" id="Shape"></path>
                    <path d="M11.9,24.8 L9.3,12.5 L14.6,12.5 L11.9,24.8 Z" id="Shape"></path>
                    <path d="M-0.4,12.5 L11.9,9.8 L11.9,15.2 L-0.4,12.5 Z" id="Shape"></path>
                    <path d="M24.2,12.5 L12,15.2 L12,9.8 L24.2,12.5 Z" id="Shape"></path>
                </g>
                <g id="Group" transform="translate(563.000000, 21.000000)" fill="#5C697A">
                    <path d="M12.1,-0.4 L14.8,11.9 L9.4,11.9 L12.1,-0.4 Z" id="Shape"></path>
                    <path d="M12.1,24.2 L9.4,11.9 L14.8,11.9 L12.1,24.2 Z" id="Shape"></path>
                    <path d="M-0.2,11.9 L12.1,9.2 L12.1,14.5 L-0.2,11.9 Z" id="Shape"></path>
                    <path d="M24.4,11.9 L12.1,14.5 L12.1,9.2 L24.4,11.9 Z" id="Shape"></path>
                </g>
                <g id="Group" transform="translate(364.000000, 160.000000)" fill="#5C697A">
                    <path d="M7.1,0.4 L8.7,7.9 L5.4,7.9 L7.1,0.4 Z" id="Shape"></path>
                    <path d="M7.1,15.5 L5.4,7.9 L8.7,7.9 L7.1,15.5 Z" id="Shape"></path>
                    <path d="M-0.5,7.9 L7.1,6.3 L7.1,9.6 L-0.5,7.9 Z" id="Shape"></path>
                    <path d="M14.6,7.9 L7.1,9.6 L7.1,6.3 L14.6,7.9 Z" id="Shape"></path>
                </g>
                <g id="Group" transform="translate(471.000000, 86.000000)" fill="#5C697A">
                    <path d="M7.5,0.2 L9.2,7.7 L5.9,7.7 L7.5,0.2 Z" id="Shape"></path>
                    <path d="M7.5,15.3 L5.9,7.7 L9.2,7.7 L7.5,15.3 Z" id="Shape"></path>
                    <path d="M0,7.7 L7.5,6.1 L7.5,9.4 L0,7.7 Z" id="Shape"></path>
                    <path d="M15.1,7.7 L7.5,9.4 L7.5,6.1 L15.1,7.7 Z" id="Shape"></path>
                </g>
                <g id="Group" transform="translate(284.000000, 154.000000)" fill="#5C697A">
                    <path d="M8,-0.4 L9.8,8.1 L6.1,8.1 L8,-0.4 Z" id="Shape"></path>
                    <path d="M8,16.6 L6.1,8.1 L9.8,8.1 L8,16.6 Z" id="Shape"></path>
                    <path d="M-0.5,8.1 L8,6.2 L8,9.9 L-0.5,8.1 Z" id="Shape"></path>
                    <path d="M16.5,8.1 L8,9.9 L8,6.2 L16.5,8.1 Z" id="Shape"></path>
                </g>
                <g id="Group" transform="translate(617.000000, 148.000000)" fill="#5C697A">
                    <path d="M7.1,0.4 L8.8,8 L5.5,8 L7.1,0.4 Z" id="Shape"></path>
                    <path d="M7.1,15.6 L5.5,8 L8.8,8 L7.1,15.6 Z" id="Shape"></path>
                    <path d="M-0.4,8 L7.1,6.4 L7.1,9.7 L-0.4,8 Z" id="Shape"></path>
                    <path d="M14.7,8 L7.1,9.7 L7.1,6.4 L14.7,8 Z" id="Shape"></path>
                </g>
                <g id="Group" transform="translate(593.000000, 193.000000)" fill="#5C697A">
                    <path d="M12.3,-0.5 L14.9,11.8 L9.6,11.8 L12.3,-0.5 Z" id="Shape"></path>
                    <path d="M12.3,24.1 L9.6,11.9 L14.9,11.9 L12.3,24.1 Z" id="Shape"></path>
                    <path d="M0,11.8 L12.3,9.2 L12.3,14.5 L0,11.8 Z" id="Shape"></path>
                    <path d="M24.6,11.8 L12.3,14.5 L12.3,9.2 L24.6,11.8 Z" id="Shape"></path>
                </g>
                <g id="Group" transform="translate(826.000000, 115.000000)" fill="#5C697A">
                    <path d="M12,-0.1 L14.7,12.2 L9.3,12.2 L12,-0.1 Z" id="Shape"></path>
                    <path d="M12,24.5 L9.3,12.2 L14.7,12.2 L12,24.5 Z" id="Shape"></path>
                    <path d="M-0.3,12.2 L12,9.5 L12,14.9 L-0.3,12.2 Z" id="Shape"></path>
                    <path d="M12,9.5 L24.3,12.2 L12,14.9 L12,9.5" id="Shape"></path>
                </g>
                <g id="Group" transform="translate(724.000000, 8.000000)" fill="#5C697A">
                    <path d="M12.5,0.3 L15.2,12.6 L9.8,12.6 L12.5,0.3 Z" id="Shape"></path>
                    <path d="M12.5,24.9 L9.8,12.6 L15.2,12.6 L12.5,24.9 Z" id="Shape"></path>
                    <path d="M0.2,12.6 L12.5,9.9 L12.5,15.2 L0.2,12.6 Z" id="Shape"></path>
                    <path d="M24.8,12.6 L12.5,15.2 L12.5,9.9 L24.8,12.6 Z" id="Shape"></path>
                </g>
                <g id="Group" transform="translate(704.000000, 199.000000)" fill="#5C697A">
                    <path d="M7,-0.2 L8.7,7.4 L5.4,7.4 L7,-0.2 Z" id="Shape"></path>
                    <path d="M7,14.9 L5.4,7.4 L8.7,7.4 L7,14.9 Z" id="Shape"></path>
                    <path d="M-0.5,7.4 L7,5.7 L7,9 L-0.5,7.4 Z" id="Shape"></path>
                    <path d="M14.6,7.4 L7,9 L7,5.7 L14.6,7.4 Z" id="Shape"></path>
                </g>
                <g id="Group" transform="translate(379.000000, 14.000000)" fill="#5C697A">
                    <path d="M7.1,0 L8.8,7.6 L5.5,7.6 L7.1,0 Z" id="Shape"></path>
                    <path d="M7.1,15.2 L5.5,7.6 L8.8,7.6 L7.1,15.2 Z" id="Shape"></path>
                    <path d="M-0.5,7.6 L7.1,6 L7.1,9.3 L-0.5,7.6 Z" id="Shape"></path>
                    <path d="M14.7,7.6 L7.1,9.3 L7.1,6 L14.7,7.6 Z" id="Shape"></path>
                </g>
                <g id="Group" transform="translate(284.000000, 52.000000)" fill="#5C697A">
                    <path d="M8,0.1 L9.6,7.6 L6.3,7.6 L8,0.1 Z" id="Shape"></path>
                    <path d="M8,15.2 L6.3,7.6 L9.6,7.6 L8,15.2 Z" id="Shape"></path>
                    <path d="M0.4,7.6 L8,6 L8,9.3 L0.4,7.6 Z" id="Shape"></path>
                    <path d="M15.6,7.6 L8,9.3 L8,6 L15.6,7.6 Z" id="Shape"></path>
                </g>
                <g id="Group" transform="translate(237.000000, 91.000000)" fill="#5C697A">
                    <path d="M8,0.4 L9.6,8 L6.3,8 L8,0.4 Z" id="Shape"></path>
                    <path d="M8,15.6 L6.3,8 L9.6,8 L8,15.6 Z" id="Shape"></path>
                    <path d="M0.4,8 L8,6.3 L8,9.6 L0.4,8 Z" id="Shape"></path>
                    <path d="M15.6,8 L8,9.6 L8,6.3 L15.6,8 Z" id="Shape"></path>
                </g>
                <g id="Group" transform="translate(201.000000, 14.000000)" fill="#5C697A">
                    <path d="M8,0 L9.6,7.6 L6.3,7.6 L8,0 Z" id="Shape"></path>
                    <path d="M8,15.2 L6.3,7.6 L9.6,7.6 L8,15.2 Z" id="Shape"></path>
                    <path d="M0.4,7.6 L8,5.9 L8,9.2 L0.4,7.6 Z" id="Shape"></path>
                    <path d="M15.6,7.6 L8,9.2 L8,5.9 L15.6,7.6 Z" id="Shape"></path>
                </g>
                <g id="Group" transform="translate(179.000000, 147.000000)" fill="#5C697A">
                    <path d="M8,0.3 L9.6,7.9 L6.3,7.9 L8,0.3 Z" id="Shape"></path>
                    <path d="M8,15.5 L6.3,7.9 L9.6,7.9 L8,15.5 Z" id="Shape"></path>
                    <path d="M0.4,7.9 L8,6.2 L8,9.5 L0.4,7.9 Z" id="Shape"></path>
                    <path d="M15.6,7.9 L8,9.5 L8,6.2 L15.6,7.9 Z" id="Shape"></path>
                </g>
                <g id="Group" transform="translate(106.000000, 233.000000)" fill="#5C697A">
                    <path d="M7.6,0 L9.3,7.5 L6,7.5 L7.6,0 Z" id="Shape"></path>
                    <path d="M7.6,15.1 L6,7.5 L9.3,7.5 L7.6,15.1 Z" id="Shape"></path>
                    <path d="M0.1,7.5 L7.6,5.9 L7.6,9.2 L0.1,7.5 Z" id="Shape"></path>
                    <path d="M15.2,7.5 L7.6,9.2 L7.6,5.9 L15.2,7.5 Z" id="Shape"></path>
                </g>
                <g id="Group" transform="translate(19.000000, 126.000000)" fill="#5C697A">
                    <path d="M7.2,-0.2 L8.9,7.3 L5.6,7.3 L7.2,-0.2 Z" id="Shape"></path>
                    <path d="M7.2,14.9 L5.6,7.3 L8.9,7.3 L7.2,14.9 Z" id="Shape"></path>
                    <path d="M-0.3,7.3 L7.2,5.7 L7.2,9 L-0.3,7.3 Z" id="Shape"></path>
                    <path d="M14.8,7.3 L7.2,9 L7.2,5.7 L14.8,7.3 Z" id="Shape"></path>
                </g>
                <g id="Group" transform="translate(801.000000, 230.000000)" fill="#5C697A">
                    <path d="M12.4,-0.3 L15.1,11.9 L9.7,11.9 L12.4,-0.3 Z" id="Shape"></path>
                    <path d="M12.4,24.3 L9.7,12 L15.1,12 L12.4,24.3 Z" id="Shape"></path>
                    <path d="M0.1,12 L12.4,9.3 L12.4,14.6 L0.1,12 Z" id="Shape"></path>
                    <path d="M24.7,12 L12.4,14.6 L12.4,9.3 L24.7,12 Z" id="Shape"></path>
                </g>
                <g id="Group" transform="translate(773.000000, 162.000000)" fill="#5C697A">
                    <path d="M8,-0.4 L9.6,7.2 L6.3,7.2 L8,-0.4 Z" id="Shape"></path>
                    <path d="M8,14.7 L6.3,7.2 L9.6,7.2 L8,14.7 Z" id="Shape"></path>
                    <path d="M0.4,7.2 L8,5.5 L8,8.8 L0.4,7.2 Z" id="Shape"></path>
                    <path d="M15.6,7.2 L8,8.8 L8,5.5 L15.6,7.2 Z" id="Shape"></path>
                </g>
                <g id="Group" transform="translate(781.000000, 60.000000)" fill="#5C697A">
                    <path d="M7.6,-0.3 L9.2,7.3 L5.9,7.3 L7.6,-0.3 Z" id="Shape"></path>
                    <path d="M7.6,14.9 L5.9,7.3 L9.2,7.3 L7.6,14.9 Z" id="Shape"></path>
                    <path d="M0,7.3 L7.6,5.7 L7.6,9 L0,7.3 Z" id="Shape"></path>
                    <path d="M15.1,7.3 L7.6,9 L7.6,5.7 L15.1,7.3 Z" id="Shape"></path>
                </g>
                <g id="Group" transform="translate(979.000000, 253.000000)" fill="#5C697A">
                    <path d="M7.2,-0.5 L8.9,7.1 L5.6,7.1 L7.2,-0.5 Z" id="Shape"></path>
                    <path d="M7.2,14.6 L5.6,7.1 L8.9,7.1 L7.2,14.6 Z" id="Shape"></path>
                    <path d="M-0.4,7.1 L7.2,5.4 L7.2,8.7 L-0.4,7.1 Z" id="Shape"></path>
                    <path d="M14.8,7.1 L7.2,8.7 L7.2,5.4 L14.8,7.1 Z" id="Shape"></path>
                </g>
                <g id="Group" transform="translate(204.000000, 193.000000)" fill="#BEC3CA">
                    <path d="M12.6,-0.4 L15.2,11.8 L9.9,11.8 L12.6,-0.4 Z" id="Shape"></path>
                    <path d="M12.6,24.2 L9.9,11.9 L15.2,11.9 L12.6,24.2 Z" id="Shape"></path>
                    <path d="M0.3,11.9 L12.5,9.2 L12.5,14.5 L0.3,11.9 Z" id="Shape"></path>
                    <path d="M24.9,11.9 L12.6,14.5 L12.6,9.2 L24.9,11.9 Z" id="Shape"></path>
                </g>
                <g id="Group" transform="translate(84.000000, 177.000000)" fill="#5C697A">
                    <path d="M7.4,-0.5 L9,7.1 L5.7,7.1 L7.4,-0.5 Z" id="Shape"></path>
                    <path d="M7.4,14.7 L5.7,7.1 L9,7.1 L7.4,14.7 Z" id="Shape"></path>
                    <path d="M-0.2,7.1 L7.3,5.5 L7.3,8.8 L-0.2,7.1 Z" id="Shape"></path>
                    <path d="M14.9,7.1 L7.4,8.8 L7.4,5.5 L14.9,7.1 Z" id="Shape"></path>
                </g>
                <g id="Group" transform="translate(914.000000, 88.000000)" fill="#5C697A">
                    <path d="M8,-0.1 L9.6,7.5 L6.3,7.5 L8,-0.1 Z" id="Shape"></path>
                    <path d="M8,15.1 L6.3,7.5 L9.6,7.5 L8,15.1 Z" id="Shape"></path>
                    <path d="M0.4,7.5 L8,5.9 L8,9.2 L0.4,7.5 Z" id="Shape"></path>
                    <path d="M15.6,7.5 L8,9.2 L8,5.9 L15.6,7.5 Z" id="Shape"></path>
                </g>
                <g id="Group" transform="translate(922.000000, 14.000000)" fill="#5C697A">
                    <path d="M7.6,0 L9.2,7.6 L5.9,7.6 L7.6,0 Z" id="Shape"></path>
                    <path d="M7.6,15.2 L5.9,7.6 L9.2,7.6 L7.6,15.2 Z" id="Shape"></path>
                    <path d="M0,7.6 L7.6,6 L7.6,9.3 L0,7.6 Z" id="Shape"></path>
                    <path d="M15.1,7.6 L7.6,9.3 L7.6,6 L15.1,7.6 Z" id="Shape"></path>
                </g>
                <g id="Group" transform="translate(18.000000, 58.000000)" fill="#5C697A">
                    <path d="M7.6,0.1 L9.3,7.7 L6,7.7 L7.6,0.1 Z" id="Shape"></path>
                    <path d="M7.6,15.2 L6,7.7 L9.3,7.7 L7.6,15.2 Z" id="Shape"></path>
                    <path d="M0,7.7 L7.6,6 L7.6,9.3 L0,7.7 Z" id="Shape"></path>
                    <path d="M15.2,7.7 L7.6,9.3 L7.6,6 L15.2,7.7 Z" id="Shape"></path>
                </g>
                <g id="Group" transform="translate(925.000000, 266.000000)" fill="#5C697A">
                    <path d="M12.1,0.2 L14.8,12.5 L9.5,12.5 L12.1,0.2 Z" id="Shape"></path>
                    <path d="M12.1,24.8 L9.5,12.5 L14.8,12.5 L12.1,24.8 Z" id="Shape"></path>
                    <path d="M-0.2,12.5 L12.1,9.9 L12.1,15.2 L-0.2,12.5 Z" id="Shape"></path>
                    <path d="M12.1,9.9 L24.4,12.5 L12.1,15.2 L12.1,9.9" id="Shape"></path>
                </g>
                <g id="Group" transform="translate(866.000000, 203.000000)">
                    <circle id="Oval" fill="#F37B35" cx="32.2" cy="19.2" r="19.2"></circle>
                    <path d="M50.3,23.8 C47.7,34.1 37.3,40.3 27,37.7 C20.4,36 15.4,31.1 13.4,25.1 L49.2,11.4 C51,15.2 51.4,19.5 50.3,23.8 L50.3,23.8 Z" id="Shape" fill="#B65C28"></path>
                    <path d="M62.8,30.7 C62.2,33.2 47.6,31.6 30.2,27.3 C12.8,22.9 -0.8,17.4 -0.1,14.9 C0.3,13.4 5.3,13.3 13.2,14.4 C13.2,14.4 10.8,18 31.3,23.2 C51.8,28.4 50.4,23.7 50.4,23.7 C58.4,26.5 63.2,29.1 62.8,30.7 L62.8,30.7 Z" id="Shape" fill="#FBCB8A"></path>
                    <path d="M62.8,30.7 C62.2,33.2 47.6,31.6 30.2,27.3 C25.6,26.1 23.4,25.6 19.6,24.3 L26,21.8 C28,22.5 28.4,22.5 31.3,23.2 C51.8,28.3 50.4,23.7 50.4,23.7 C58.4,26.5 63.2,29.1 62.8,30.7 L62.8,30.7 Z" id="Shape" fill="#F8AC5B"></path>
                </g>
                <g id="Group" transform="translate(857.000000, 33.000000)" fill="#BEC3CA">
                    <path d="M11.8,-0.1 L14.4,12.2 L9.1,12.2 L11.8,-0.1 Z" id="Shape"></path>
                    <path d="M11.8,24.5 L9.1,12.2 L14.4,12.2 L11.8,24.5 Z" id="Shape"></path>
                    <path d="M-0.5,12.2 L11.7,9.5 L11.7,14.8 L-0.5,12.2 Z" id="Shape"></path>
                    <path d="M11.8,9.5 L24.1,12.2 L11.8,14.8 L11.8,9.5" id="Shape"></path>
                </g>
                <g id="Group" transform="translate(69.000000, 71.000000)">
                    <ellipse id="Oval" fill="#46427B" transform="translate(49.010326, 31.480088) rotate(-4.968491) translate(-49.010326, -31.480088) " cx="48.9103301" cy="31.6800797" rx="29.8987251" ry="11.6995011"></ellipse>
                    <path d="M96,22.2 C96.6,28.6 75.6,35.7 49.4,38 C23.2,40.3 1.6,36.9 1.1,30.5 L0.8,27.5 C9.5,23.3 78.3,20.8 95.8,19.2 L96,22.2 L96,22.2 Z" id="Shape" fill="#888888"></path>
                    <path d="M85.8,30.5 C77.3,33.8 64.2,36.6 49.4,37.9 C23.2,40.2 1.6,36.8 1.1,30.4 L0.8,27.4 C7.3,24.2 58.7,28.9 85.8,27.4 L85.8,30.5 L85.8,30.5 Z" id="Shape" fill="#49494A"></path>
                    <ellipse id="Oval" fill="#BEC3CA" transform="translate(48.507492, 23.476790) rotate(-4.968491) translate(-48.507492, -23.476790) " cx="48.7074838" cy="23.6767818" rx="47.6979662" ry="11.6995011"></ellipse>
                    <path d="M85.8,27.4 C77.3,30.8 64.2,33.6 49.3,34.9 C23.1,37.2 1.4,33.8 0.8,27.4 C0.3,22 14.8,16.2 35,13.1 L85.8,27.4 L85.8,27.4 Z" id="Shape" fill="#888888"></path>
                    <path d="M59.4,11.6 C60,18.3 54.7,20.3 47.9,20.9 C41.2,21.5 35.6,20.4 35,13.7 C34.4,7 39.4,1.1 46.1,0.5 C52.9,-0.1 58.8,4.8 59.4,11.6 L59.4,11.6 Z" id="Shape" fill="#5D57A2"></path>
                    <path d="M55.6,19 C53.6,20.1 50.9,20.6 47.9,20.9 C41.2,21.5 35.6,20.4 35,13.7 C34.7,9.9 36.1,6.4 38.6,4 C39.4,3.2 45.2,3.1 48.8,6 C54,10.2 57.1,18.2 55.6,19 L55.6,19 Z" id="Shape" fill="#46417A"></path>
                </g>
                <g id="Group" transform="translate(26.000000, 292.000000)" fill="#5C697A">
                    <path d="M7.2,-0.3 L8.8,7.2 L5.5,7.2 L7.2,-0.3 Z" id="Shape"></path>
                    <path d="M7.2,14.8 L5.5,7.2 L8.8,7.2 L7.2,14.8 Z" id="Shape"></path>
                    <path d="M-0.4,7.2 L7.2,5.6 L7.2,8.9 L-0.4,7.2 Z" id="Shape"></path>
                    <path d="M14.7,7.2 L7.2,8.9 L7.2,5.6 L14.7,7.2 Z" id="Shape"></path>
                </g>
                <g id="Group" transform="translate(1054.000000, 254.000000)" fill="#5C697A">
                    <path d="M12.5,-0.1 L15.2,12.2 L9.8,12.2 L12.5,-0.1 Z" id="Shape"></path>
                    <path d="M12.5,24.5 L9.8,12.2 L15.2,12.2 L12.5,24.5 Z" id="Shape"></path>
                    <path d="M0.2,12.2 L12.5,9.6 L12.5,14.9 L0.2,12.2 Z" id="Shape"></path>
                    <path d="M24.8,12.2 L12.5,14.9 L12.5,9.6 L24.8,12.2 Z" id="Shape"></path>
                </g>
                <g id="Group" transform="translate(1015.000000, 180.000000)" fill="#5C697A">
                    <path d="M7.7,0.3 L9.4,7.9 L6.1,7.9 L7.7,0.3 Z" id="Shape"></path>
                    <path d="M7.7,15.5 L6.1,7.9 L9.4,7.9 L7.7,15.5 Z" id="Shape"></path>
                    <path d="M0.2,7.9 L7.7,6.3 L7.7,9.6 L0.2,7.9 Z" id="Shape"></path>
                    <path d="M15.3,7.9 L7.8,9.6 L7.8,6.3 L15.3,7.9 Z" id="Shape"></path>
                </g>
                <g id="Group" transform="translate(1042.000000, 103.000000)" fill="#5C697A">
                    <path d="M12.2,-0.4 L14.9,11.9 L9.5,11.9 L12.2,-0.4 Z" id="Shape"></path>
                    <path d="M12.2,24.2 L9.5,11.9 L14.9,11.9 L12.2,24.2 Z" id="Shape"></path>
                    <path d="M-0.1,11.9 L12.2,9.2 L12.2,14.6 L-0.1,11.9 Z" id="Shape"></path>
                    <path d="M24.5,11.9 L12.2,14.6 L12.2,9.2 L24.5,11.9 Z" id="Shape"></path>
                </g>
                <g id="Group" transform="translate(982.000000, 52.000000)" fill="#5C697A">
                    <path d="M8,0 L9.6,7.6 L6.3,7.6 L8,0 Z" id="Shape"></path>
                    <path d="M8,15.2 L6.3,7.6 L9.6,7.6 L8,15.2 Z" id="Shape"></path>
                    <path d="M0.4,7.6 L8,6 L8,9.3 L0.4,7.6 Z" id="Shape"></path>
                    <path d="M15.6,7.6 L8,9.3 L8,6 L15.6,7.6 Z" id="Shape"></path>
                </g>
                <g id="Group" transform="translate(1039.000000, 7.000000)" fill="#5C697A">
                    <path d="M12.5,-0.5 L15.2,11.8 L9.8,11.8 L12.5,-0.5 Z" id="Shape"></path>
                    <path d="M12.5,24.1 L9.8,11.8 L15.2,11.8 L12.5,24.1 Z" id="Shape"></path>
                    <path d="M0.2,11.8 L12.5,9.1 L12.5,14.5 L0.2,11.8 Z" id="Shape"></path>
                    <path d="M12.5,9.1 L24.8,11.8 L12.5,14.5 L12.5,9.1" id="Shape"></path>
                </g>
                <g id="Group" transform="translate(1019.000000, 306.000000)" fill="#5C697A">
                    <path d="M7.5,0 L9.2,7.6 L5.9,7.6 L7.5,0 Z" id="Shape"></path>
                    <path d="M7.5,15.1 L5.9,7.6 L9.2,7.6 L7.5,15.1 Z" id="Shape"></path>
                    <path d="M0,7.6 L7.5,5.9 L7.5,9.2 L0,7.6 Z" id="Shape"></path>
                    <path d="M15.1,7.6 L7.5,9.2 L7.5,5.9 L15.1,7.6 Z" id="Shape"></path>
                </g>
                <g id="Group" fill="#BEC3CA">
                    <path d="M11.8,0.3 L14.4,12.6 L9.1,12.6 L11.8,0.3 Z" id="Shape"></path>
                    <path d="M11.8,24.9 L9.1,12.6 L14.4,12.6 L11.8,24.9 Z" id="Shape"></path>
                    <path d="M-0.5,12.6 L11.8,9.9 L11.8,15.3 L-0.5,12.6 Z" id="Shape"></path>
                    <path d="M24.1,12.6 L11.8,15.3 L11.8,9.9 L24.1,12.6 Z" id="Shape"></path>
                </g>
                <g id="Group" transform="translate(8.000000, 212.000000)" fill="#5C697A">
                    <path d="M12.1,0.4 L14.8,12.7 L9.4,12.7 L12.1,0.4 Z" id="Shape"></path>
                    <path d="M12.1,25 L9.4,12.7 L14.8,12.7 L12.1,25 Z" id="Shape"></path>
                    <path d="M-0.2,12.7 L12.1,10 L12.1,15.4 L-0.2,12.7 Z" id="Shape"></path>
                    <path d="M24.4,12.7 L12.1,15.4 L12.1,10 L24.4,12.7 Z" id="Shape"></path>
                </g>
            </g>
        </g>
    </g>
</svg>